SplineFontDB: 3.0
FontName: Gonville
FullName: Gonville
FamilyName: Gonville
Weight: Regular
Copyright: Designed by Grzegorz Pruchniakowski. This font is licensed under the SIL Open Font License (http://scripts.sil.org/OFL).\n\nThe Gonville font templates based on SMuFL 1.0 and Bravura 1.02, designed by Daniel Spreadbury at Steinberg.
Version: 2.2
ItalicAngle: 0
UnderlinePosition: -50
UnderlineWidth: 50
Ascent: 800
Descent: 200
sfntRevision: 0x00023333
LayerCount: 2
Layer: 0 0 "Back"  1
Layer: 1 0 "Zeichenebene"  0
XUID: [1021 950 32697 12825]
FSType: 0
OS2Version: 3
OS2_WeightWidthSlopeOnly: 0
OS2_UseTypoMetrics: 1
CreationTime: 1378800000
ModificationTime: 1378800000
PfmFamily: 81
TTFWeight: 400
TTFWidth: 5
LineGap: 0
VLineGap: 0
Panose: 5 6 0 0 0 0 0 0 0 0
OS2TypoAscent: 2012
OS2TypoAOffset: 0
OS2TypoDescent: -2012
OS2TypoDOffset: 0
OS2TypoLinegap: 0
OS2WinAscent: 2012
OS2WinAOffset: 0
OS2WinDescent: 2012
OS2WinDOffset: 0
HheadAscent: 2012
HheadAOffset: 0
HheadDescent: -2012
HheadDOffset: 0
OS2SubXSize: 650
OS2SubYSize: 600
OS2SubXOff: 0
OS2SubYOff: 75
OS2SupXSize: 650
OS2SupYSize: 600
OS2SupXOff: 0
OS2SupYOff: 350
OS2StrikeYSize: 50
OS2StrikeYPos: 165
OS2Vendor: 'G.P.'
OS2CodePages: 00000001.00000000
OS2UnicodeRanges: 00000000.12004000.01000000.00000000
Lookup: 4 0 1 "<1,2> Normale Ligaturen lookup 0"  {"<1,2> Normale Ligaturen lookup 0 subtable"  } [<1,2> ('DFLT' <'dflt' > ) 'liga' ('DFLT' <'dflt' > ) ]
Lookup: 258 0 0 "'kern' Horizontales Kerning lookup 0"  {"'kern' Horizontales Kerning lookup 0 subtable"  } ['kern' ('DFLT' <'dflt' > ) ]
DEI: 91125
MacFeat: 0 0 0
MacName: 0 0 24 "All Typographic Features"
MacName: 0 1 24 "Fonctions typographiques"
MacName: 0 2 33 "Alle typografischen M\232glichkeiten"
MacName: 0 3 21 "Funzioni Tipografiche"
MacName: 0 4 28 "Alle typografische kenmerken"
MacSetting: 0
MacName: 0 0 17 "All Type Features"
MacName: 0 1 31 "Toutes fonctions typographiques"
MacName: 0 2 23 "Alle Auszeichnungsarten"

StartChar: .notdef
Encoding: 1114112 -1 0
Width: 400
Flags: MW
HStem: 0 10<10 190 10 200> 390 10<10 190 10 10>
VStem: 0 10<10 10 10 390> 190 10<10 390 390 390>
LayerCount: 2
Fore
SplineSet
0 0 m 1
 0 400 l 1
 200 400 l 1
 200 0 l 1
 0 0 l 1
10 10 m 1
 190 10 l 1
 190 390 l 1
 10 390 l 1
 10 10 l 1
EndSplineSet
EndChar

StartChar: u02669
Encoding: 9833 9833 2
Width: 400
Flags: MW
HStem: 0 10<10 190 10 200> 390 10<10 190 10 10>
VStem: 0 10<10 10 10 390> 190 10<10 390 390 390>
LayerCount: 2
Fore
SplineSet
0 0 m 1
 0 400 l 1
 200 400 l 1
 200 0 l 1
 0 0 l 1
10 10 m 1
 190 10 l 1
 190 390 l 1
 10 390 l 1
 10 10 l 1
EndSplineSet
EndChar

StartChar: u0266A
Encoding: 9834 9834 3
Width: 400
Flags: MW
HStem: 0 10<10 190 10 200> 390 10<10 190 10 10>
VStem: 0 10<10 10 10 390> 190 10<10 390 390 390>
LayerCount: 2
Fore
SplineSet
0 0 m 1
 0 400 l 1
 200 400 l 1
 200 0 l 1
 0 0 l 1
10 10 m 1
 190 10 l 1
 190 390 l 1
 10 390 l 1
 10 10 l 1
EndSplineSet
EndChar

StartChar: u0266B
Encoding: 9835 9835 4
Width: 400
Flags: MW
HStem: 0 10<10 190 10 200> 390 10<10 190 10 10>
VStem: 0 10<10 10 10 390> 190 10<10 390 390 390>
LayerCount: 2
Fore
SplineSet
0 0 m 1
 0 400 l 1
 200 400 l 1
 200 0 l 1
 0 0 l 1
10 10 m 1
 190 10 l 1
 190 390 l 1
 10 390 l 1
 10 10 l 1
EndSplineSet
EndChar

StartChar: u0266C
Encoding: 9836 9836 5
Width: 400
Flags: MW
HStem: 0 10<10 190 10 200> 390 10<10 190 10 10>
VStem: 0 10<10 10 10 390> 190 10<10 390 390 390>
LayerCount: 2
Fore
SplineSet
0 0 m 1
 0 400 l 1
 200 400 l 1
 200 0 l 1
 0 0 l 1
10 10 m 1
 190 10 l 1
 190 390 l 1
 10 390 l 1
 10 10 l 1
EndSplineSet
EndChar

StartChar: u0266D
Encoding: 9837 9837 6
Width: 185
Flags: MW
HStem: 97 47<59 128.5>
VStem: -15 30<-112 58 108 446> 108 77<18.5 72.5>
LayerCount: 2
Fore
SplineSet
-15 -153 m 2
 -15 446 l 1
 -15 446 -15 460 0 460 c 0
 15 460 15 446 15 446 c 1
 15 108 l 1
 46 133 67 144 102 144 c 0
 155 144 185 108 185 62 c 0
 185 -25 109 -88 32 -146 c 0
 20 -155 6 -165 0 -165 c 0
 -8 -165 -15 -160 -15 -153 c 2
15 58 m 1
 15 -112 l 1
 49 -82 108 -28 108 62 c 0
 108 83 97 97 71 97 c 0
 47 97 28 77 15 58 c 1
EndSplineSet
EndChar

StartChar: u0266E
Encoding: 9838 9838 7
Width: 176
Flags: MW
VStem: 0 30<-84 56 148 323> 146 30<-323 -148 -148 -148 -56 84 84 84>
LayerCount: 2
Fore
SplineSet
0 -169 m 1
 0 323 l 1
 0 323 0 337 15 337 c 0
 30 337 30 323 30 323 c 1
 30 148 l 1
 161 180 l 1
 173 180 176 169 176 169 c 1
 176 -323 l 1
 176 -323 176 -337 161 -337 c 0
 146 -337 146 -323 146 -323 c 1
 146 -148 l 1
 15 -180 l 1
 3 -180 0 -169 0 -169 c 1
30 56 m 1
 30 -84 l 1
 146 -56 l 1
 146 84 l 1
 30 56 l 1
EndSplineSet
EndChar

StartChar: u0266F
Encoding: 9839 9839 8
Width: 236
Flags: MW
VStem: 54 30<-362 -188 -188 -188 -88 64 64 64 164 338> 152 30<-338 -164 -164 -164 -64 88 88 88 188 362>
LayerCount: 2
Fore
SplineSet
0 64 m 1
 0 129 l 2
 0 142 15 147 15 147 c 1
 54 157 l 1
 54 338 l 1
 54 338 54 352 69 352 c 0
 84 352 84 338 84 338 c 1
 84 164 l 1
 152 181 l 1
 152 362 l 1
 152 362 152 376 167 376 c 0
 182 376 182 362 182 362 c 1
 182 188 l 1
 182 188 218 198 221 198 c 0
 227 198 233 197 236 188 c 1
 236 123 l 2
 236 110 221 105 221 105 c 1
 182 95 l 1
 182 -64 l 1
 182 -64 218 -54 221 -54 c 0
 227 -54 233 -55 236 -64 c 1
 236 -129 l 2
 236 -142 221 -147 221 -147 c 1
 182 -157 l 1
 182 -338 l 1
 182 -338 182 -352 167 -352 c 0
 152 -352 152 -338 152 -338 c 1
 152 -164 l 1
 84 -181 l 1
 84 -362 l 1
 84 -362 84 -376 69 -376 c 0
 54 -376 54 -362 54 -362 c 1
 54 -188 l 1
 54 -188 18 -198 15 -198 c 0
 9 -198 3 -197 0 -188 c 1
 0 -123 l 2
 0 -110 15 -105 15 -105 c 1
 54 -95 l 1
 54 64 l 1
 54 64 18 54 15 54 c 0
 9 54 3 55 0 64 c 1
84 71 m 1
 84 -88 l 1
 152 -71 l 1
 152 88 l 1
 84 71 l 1
EndSplineSet
EndChar

StartChar: uniE000
Encoding: 57344 57344 9
Width: 400
Flags: MW
HStem: 0 10<10 190 10 200> 390 10<10 190 10 10>
VStem: 0 10<10 10 10 390> 190 10<10 390 390 390>
LayerCount: 2
Fore
SplineSet
0 0 m 1
 0 400 l 1
 200 400 l 1
 200 0 l 1
 0 0 l 1
10 10 m 1
 190 10 l 1
 190 390 l 1
 10 390 l 1
 10 10 l 1
EndSplineSet
EndChar

StartChar: uniE001
Encoding: 57345 57345 10
Width: 400
Flags: MW
HStem: 0 10<10 190 10 200> 390 10<10 190 10 10>
VStem: 0 10<10 10 10 390> 190 10<10 390 390 390>
LayerCount: 2
Fore
SplineSet
0 0 m 1
 0 400 l 1
 200 400 l 1
 200 0 l 1
 0 0 l 1
10 10 m 1
 190 10 l 1
 190 390 l 1
 10 390 l 1
 10 10 l 1
EndSplineSet
EndChar

StartChar: uniE002
Encoding: 57346 57346 11
Width: 400
Flags: MW
HStem: 0 10<10 190 10 200> 390 10<10 190 10 10>
VStem: 0 10<10 10 10 390> 190 10<10 390 390 390>
LayerCount: 2
Fore
SplineSet
0 0 m 1
 0 400 l 1
 200 400 l 1
 200 0 l 1
 0 0 l 1
10 10 m 1
 190 10 l 1
 190 390 l 1
 10 390 l 1
 10 10 l 1
EndSplineSet
EndChar

StartChar: uniE003
Encoding: 57347 57347 12
Width: 414
Flags: MW
HStem: -77 98<18 103 18 121.5>
LayerCount: 2
Fore
SplineSet
0 0 m 2
 0 11 12 21 24 21 c 0
 182 21 313 92 403 160 c 1
 403 160 407 163 409 163 c 0
 412 163 414 161 414 156 c 0
 414 125 243 -77 0 -77 c 1
 0 0 l 2
EndSplineSet
EndChar

StartChar: uniE004
Encoding: 57348 57348 13
Width: 414
Flags: MW
HStem: -21 98<18 103>
LayerCount: 2
Fore
SplineSet
0 0 m 2
 0 77 l 1
 243 77 414 -125 414 -156 c 0
 414 -161 412 -163 409 -163 c 0
 407 -163 403 -160 403 -160 c 1
 313 -92 182 -21 24 -21 c 0
 12 -21 0 -11 0 0 c 2
EndSplineSet
EndChar

StartChar: uniE005
Encoding: 57349 57349 14
Width: 414
Flags: MW
HStem: -77 98<311 396 311 414>
LayerCount: 2
Fore
SplineSet
0 156 m 0
 0 161 2 163 5 163 c 0
 7 163 11 160 11 160 c 1
 101 92 232 21 390 21 c 0
 402 21 414 11 414 0 c 2
 414 -77 l 1
 171 -77 0 125 0 156 c 0
EndSplineSet
EndChar

StartChar: uniE006
Encoding: 57350 57350 15
Width: 414
Flags: MW
HStem: -21 98<311 396>
LayerCount: 2
Fore
SplineSet
0 -156 m 0
 0 -125 171 77 414 77 c 1
 414 0 l 2
 414 -11 402 -21 390 -21 c 0
 232 -21 101 -92 11 -160 c 1
 11 -160 7 -163 5 -163 c 0
 2 -163 0 -161 0 -156 c 0
EndSplineSet
EndChar

StartChar: uniE007
Encoding: 57351 57351 16
Width: 400
Flags: MW
HStem: 0 10<10 190 10 200> 390 10<10 190 10 10>
VStem: 0 10<10 10 10 390> 190 10<10 390 390 390>
LayerCount: 2
Fore
SplineSet
0 0 m 1
 0 400 l 1
 200 400 l 1
 200 0 l 1
 0 0 l 1
10 10 m 1
 190 10 l 1
 190 390 l 1
 10 390 l 1
 10 10 l 1
EndSplineSet
EndChar

StartChar: uniE008
Encoding: 57352 57352 17
Width: 400
Flags: MW
HStem: 0 10<10 190 10 200> 390 10<10 190 10 10>
VStem: 0 10<10 10 10 390> 190 10<10 390 390 390>
LayerCount: 2
Fore
SplineSet
0 0 m 1
 0 400 l 1
 200 400 l 1
 200 0 l 1
 0 0 l 1
10 10 m 1
 190 10 l 1
 190 390 l 1
 10 390 l 1
 10 10 l 1
EndSplineSet
EndChar

StartChar: uniE009
Encoding: 57353 57353 18
Width: 400
Flags: MW
HStem: 0 10<10 190 10 200> 390 10<10 190 10 10>
VStem: 0 10<10 10 10 390> 190 10<10 390 390 390>
LayerCount: 2
Fore
SplineSet
0 0 m 1
 0 400 l 1
 200 400 l 1
 200 0 l 1
 0 0 l 1
10 10 m 1
 190 10 l 1
 190 390 l 1
 10 390 l 1
 10 10 l 1
EndSplineSet
EndChar

StartChar: uniE00A
Encoding: 57354 57354 19
Width: 400
Flags: MW
HStem: 0 10<10 190 10 200> 390 10<10 190 10 10>
VStem: 0 10<10 10 10 390> 190 10<10 390 390 390>
LayerCount: 2
Fore
SplineSet
0 0 m 1
 0 400 l 1
 200 400 l 1
 200 0 l 1
 0 0 l 1
10 10 m 1
 190 10 l 1
 190 390 l 1
 10 390 l 1
 10 10 l 1
EndSplineSet
EndChar

StartChar: uniE00B
Encoding: 57355 57355 20
Width: 400
Flags: MW
HStem: 0 10<10 190 10 200> 390 10<10 190 10 10>
VStem: 0 10<10 10 10 390> 190 10<10 390 390 390>
LayerCount: 2
Fore
SplineSet
0 0 m 1
 0 400 l 1
 200 400 l 1
 200 0 l 1
 0 0 l 1
10 10 m 1
 190 10 l 1
 190 390 l 1
 10 390 l 1
 10 10 l 1
EndSplineSet
EndChar

StartChar: uniE00C
Encoding: 57356 57356 21
Width: 400
Flags: MW
HStem: 0 10<10 190 10 200> 390 10<10 190 10 10>
VStem: 0 10<10 10 10 390> 190 10<10 390 390 390>
LayerCount: 2
Fore
SplineSet
0 0 m 1
 0 400 l 1
 200 400 l 1
 200 0 l 1
 0 0 l 1
10 10 m 1
 190 10 l 1
 190 390 l 1
 10 390 l 1
 10 10 l 1
EndSplineSet
EndChar

StartChar: uniE00D
Encoding: 57357 57357 22
Width: 400
Flags: MW
HStem: 0 10<10 190 10 200> 390 10<10 190 10 10>
VStem: 0 10<10 10 10 390> 190 10<10 390 390 390>
LayerCount: 2
Fore
SplineSet
0 0 m 1
 0 400 l 1
 200 400 l 1
 200 0 l 1
 0 0 l 1
10 10 m 1
 190 10 l 1
 190 390 l 1
 10 390 l 1
 10 10 l 1
EndSplineSet
EndChar

StartChar: uniE010
Encoding: 57360 57360 23
Width: 400
Flags: MW
HStem: 0 10<10 190 10 200> 390 10<10 190 10 10>
VStem: 0 10<10 10 10 390> 190 10<10 390 390 390>
LayerCount: 2
Fore
SplineSet
0 0 m 1
 0 400 l 1
 200 400 l 1
 200 0 l 1
 0 0 l 1
10 10 m 1
 190 10 l 1
 190 390 l 1
 10 390 l 1
 10 10 l 1
EndSplineSet
EndChar

StartChar: uniE011
Encoding: 57361 57361 24
Width: 400
Flags: MW
HStem: 0 10<10 190 10 200> 390 10<10 190 10 10>
VStem: 0 10<10 10 10 390> 190 10<10 390 390 390>
LayerCount: 2
Fore
SplineSet
0 0 m 1
 0 400 l 1
 200 400 l 1
 200 0 l 1
 0 0 l 1
10 10 m 1
 190 10 l 1
 190 390 l 1
 10 390 l 1
 10 10 l 1
EndSplineSet
EndChar

StartChar: uniE012
Encoding: 57362 57362 25
Width: 400
Flags: MW
HStem: 0 10<10 190 10 200> 390 10<10 190 10 10>
VStem: 0 10<10 10 10 390> 190 10<10 390 390 390>
LayerCount: 2
Fore
SplineSet
0 0 m 1
 0 400 l 1
 200 400 l 1
 200 0 l 1
 0 0 l 1
10 10 m 1
 190 10 l 1
 190 390 l 1
 10 390 l 1
 10 10 l 1
EndSplineSet
EndChar

StartChar: uniE013
Encoding: 57363 57363 26
Width: 400
Flags: MW
HStem: 0 10<10 190 10 200> 390 10<10 190 10 10>
VStem: 0 10<10 10 10 390> 190 10<10 390 390 390>
LayerCount: 2
Fore
SplineSet
0 0 m 1
 0 400 l 1
 200 400 l 1
 200 0 l 1
 0 0 l 1
10 10 m 1
 190 10 l 1
 190 390 l 1
 10 390 l 1
 10 10 l 1
EndSplineSet
EndChar

StartChar: uniE014
Encoding: 57364 57364 27
Width: 400
Flags: MW
HStem: 0 10<10 190 10 200> 390 10<10 190 10 10>
VStem: 0 10<10 10 10 390> 190 10<10 390 390 390>
LayerCount: 2
Fore
SplineSet
0 0 m 1
 0 400 l 1
 200 400 l 1
 200 0 l 1
 0 0 l 1
10 10 m 1
 190 10 l 1
 190 390 l 1
 10 390 l 1
 10 10 l 1
EndSplineSet
EndChar

StartChar: uniE015
Encoding: 57365 57365 28
Width: 400
Flags: MW
HStem: 0 10<10 190 10 200> 390 10<10 190 10 10>
VStem: 0 10<10 10 10 390> 190 10<10 390 390 390>
LayerCount: 2
Fore
SplineSet
0 0 m 1
 0 400 l 1
 200 400 l 1
 200 0 l 1
 0 0 l 1
10 10 m 1
 190 10 l 1
 190 390 l 1
 10 390 l 1
 10 10 l 1
EndSplineSet
EndChar

StartChar: uniE016
Encoding: 57366 57366 29
Width: 400
Flags: MW
HStem: 0 10<10 190 10 200> 390 10<10 190 10 10>
VStem: 0 10<10 10 10 390> 190 10<10 390 390 390>
LayerCount: 2
Fore
SplineSet
0 0 m 1
 0 400 l 1
 200 400 l 1
 200 0 l 1
 0 0 l 1
10 10 m 1
 190 10 l 1
 190 390 l 1
 10 390 l 1
 10 10 l 1
EndSplineSet
EndChar

StartChar: uniE017
Encoding: 57367 57367 30
Width: 400
Flags: MW
HStem: 0 10<10 190 10 200> 390 10<10 190 10 10>
VStem: 0 10<10 10 10 390> 190 10<10 390 390 390>
LayerCount: 2
Fore
SplineSet
0 0 m 1
 0 400 l 1
 200 400 l 1
 200 0 l 1
 0 0 l 1
10 10 m 1
 190 10 l 1
 190 390 l 1
 10 390 l 1
 10 10 l 1
EndSplineSet
EndChar

StartChar: uniE018
Encoding: 57368 57368 31
Width: 400
Flags: MW
HStem: 0 10<10 190 10 200> 390 10<10 190 10 10>
VStem: 0 10<10 10 10 390> 190 10<10 390 390 390>
LayerCount: 2
Fore
SplineSet
0 0 m 1
 0 400 l 1
 200 400 l 1
 200 0 l 1
 0 0 l 1
10 10 m 1
 190 10 l 1
 190 390 l 1
 10 390 l 1
 10 10 l 1
EndSplineSet
EndChar

StartChar: uniE019
Encoding: 57369 57369 32
Width: 400
Flags: MW
HStem: 0 10<10 190 10 200> 390 10<10 190 10 10>
VStem: 0 10<10 10 10 390> 190 10<10 390 390 390>
LayerCount: 2
Fore
SplineSet
0 0 m 1
 0 400 l 1
 200 400 l 1
 200 0 l 1
 0 0 l 1
10 10 m 1
 190 10 l 1
 190 390 l 1
 10 390 l 1
 10 10 l 1
EndSplineSet
EndChar

StartChar: uniE01A
Encoding: 57370 57370 33
Width: 400
Flags: MW
HStem: 0 10<10 190 10 200> 390 10<10 190 10 10>
VStem: 0 10<10 10 10 390> 190 10<10 390 390 390>
LayerCount: 2
Fore
SplineSet
0 0 m 1
 0 400 l 1
 200 400 l 1
 200 0 l 1
 0 0 l 1
10 10 m 1
 190 10 l 1
 190 390 l 1
 10 390 l 1
 10 10 l 1
EndSplineSet
EndChar

StartChar: uniE01B
Encoding: 57371 57371 34
Width: 400
Flags: MW
HStem: 0 10<10 190 10 200> 390 10<10 190 10 10>
VStem: 0 10<10 10 10 390> 190 10<10 390 390 390>
LayerCount: 2
Fore
SplineSet
0 0 m 1
 0 400 l 1
 200 400 l 1
 200 0 l 1
 0 0 l 1
10 10 m 1
 190 10 l 1
 190 390 l 1
 10 390 l 1
 10 10 l 1
EndSplineSet
EndChar

StartChar: uniE01C
Encoding: 57372 57372 35
Width: 400
Flags: MW
HStem: 0 10<10 190 10 200> 390 10<10 190 10 10>
VStem: 0 10<10 10 10 390> 190 10<10 390 390 390>
LayerCount: 2
Fore
SplineSet
0 0 m 1
 0 400 l 1
 200 400 l 1
 200 0 l 1
 0 0 l 1
10 10 m 1
 190 10 l 1
 190 390 l 1
 10 390 l 1
 10 10 l 1
EndSplineSet
EndChar

StartChar: uniE01D
Encoding: 57373 57373 36
Width: 400
Flags: MW
HStem: 0 10<10 190 10 200> 390 10<10 190 10 10>
VStem: 0 10<10 10 10 390> 190 10<10 390 390 390>
LayerCount: 2
Fore
SplineSet
0 0 m 1
 0 400 l 1
 200 400 l 1
 200 0 l 1
 0 0 l 1
10 10 m 1
 190 10 l 1
 190 390 l 1
 10 390 l 1
 10 10 l 1
EndSplineSet
EndChar

StartChar: uniE01E
Encoding: 57374 57374 37
Width: 400
Flags: MW
HStem: 0 10<10 190 10 200> 390 10<10 190 10 10>
VStem: 0 10<10 10 10 390> 190 10<10 390 390 390>
LayerCount: 2
Fore
SplineSet
0 0 m 1
 0 400 l 1
 200 400 l 1
 200 0 l 1
 0 0 l 1
10 10 m 1
 190 10 l 1
 190 390 l 1
 10 390 l 1
 10 10 l 1
EndSplineSet
EndChar

StartChar: uniE01F
Encoding: 57375 57375 38
Width: 400
Flags: MW
HStem: 0 10<10 190 10 200> 390 10<10 190 10 10>
VStem: 0 10<10 10 10 390> 190 10<10 390 390 390>
LayerCount: 2
Fore
SplineSet
0 0 m 1
 0 400 l 1
 200 400 l 1
 200 0 l 1
 0 0 l 1
10 10 m 1
 190 10 l 1
 190 390 l 1
 10 390 l 1
 10 10 l 1
EndSplineSet
EndChar

StartChar: uniE020
Encoding: 57376 57376 39
Width: 400
Flags: MW
HStem: 0 10<10 190 10 200> 390 10<10 190 10 10>
VStem: 0 10<10 10 10 390> 190 10<10 390 390 390>
LayerCount: 2
Fore
SplineSet
0 0 m 1
 0 400 l 1
 200 400 l 1
 200 0 l 1
 0 0 l 1
10 10 m 1
 190 10 l 1
 190 390 l 1
 10 390 l 1
 10 10 l 1
EndSplineSet
EndChar

StartChar: uniE021
Encoding: 57377 57377 40
Width: 400
Flags: MW
HStem: 0 10<10 190 10 200> 390 10<10 190 10 10>
VStem: 0 10<10 10 10 390> 190 10<10 390 390 390>
LayerCount: 2
Fore
SplineSet
0 0 m 1
 0 400 l 1
 200 400 l 1
 200 0 l 1
 0 0 l 1
10 10 m 1
 190 10 l 1
 190 390 l 1
 10 390 l 1
 10 10 l 1
EndSplineSet
EndChar

StartChar: uniE022
Encoding: 57378 57378 41
Width: 400
Flags: MW
HStem: 0 10<10 190 10 200> 390 10<10 190 10 10>
VStem: 0 10<10 10 10 390> 190 10<10 390 390 390>
LayerCount: 2
Fore
SplineSet
0 0 m 1
 0 400 l 1
 200 400 l 1
 200 0 l 1
 0 0 l 1
10 10 m 1
 190 10 l 1
 190 390 l 1
 10 390 l 1
 10 10 l 1
EndSplineSet
EndChar

StartChar: uniE023
Encoding: 57379 57379 42
Width: 400
Flags: MW
HStem: 0 10<10 190 10 200> 390 10<10 190 10 10>
VStem: 0 10<10 10 10 390> 190 10<10 390 390 390>
LayerCount: 2
Fore
SplineSet
0 0 m 1
 0 400 l 1
 200 400 l 1
 200 0 l 1
 0 0 l 1
10 10 m 1
 190 10 l 1
 190 390 l 1
 10 390 l 1
 10 10 l 1
EndSplineSet
EndChar

StartChar: uniE024
Encoding: 57380 57380 43
Width: 400
Flags: MW
HStem: 0 10<10 190 10 200> 390 10<10 190 10 10>
VStem: 0 10<10 10 10 390> 190 10<10 390 390 390>
LayerCount: 2
Fore
SplineSet
0 0 m 1
 0 400 l 1
 200 400 l 1
 200 0 l 1
 0 0 l 1
10 10 m 1
 190 10 l 1
 190 390 l 1
 10 390 l 1
 10 10 l 1
EndSplineSet
EndChar

StartChar: uniE030
Encoding: 57392 57392 44
Width: 400
Flags: MW
HStem: 0 10<10 190 10 200> 390 10<10 190 10 10>
VStem: 0 10<10 10 10 390> 190 10<10 390 390 390>
LayerCount: 2
Fore
SplineSet
0 0 m 1
 0 400 l 1
 200 400 l 1
 200 0 l 1
 0 0 l 1
10 10 m 1
 190 10 l 1
 190 390 l 1
 10 390 l 1
 10 10 l 1
EndSplineSet
EndChar

StartChar: uniE031
Encoding: 57393 57393 45
Width: 400
Flags: MW
HStem: 0 10<10 190 10 200> 390 10<10 190 10 10>
VStem: 0 10<10 10 10 390> 190 10<10 390 390 390>
LayerCount: 2
Fore
SplineSet
0 0 m 1
 0 400 l 1
 200 400 l 1
 200 0 l 1
 0 0 l 1
10 10 m 1
 190 10 l 1
 190 390 l 1
 10 390 l 1
 10 10 l 1
EndSplineSet
EndChar

StartChar: uniE032
Encoding: 57394 57394 46
Width: 400
Flags: MW
HStem: 0 10<10 190 10 200> 390 10<10 190 10 10>
VStem: 0 10<10 10 10 390> 190 10<10 390 390 390>
LayerCount: 2
Fore
SplineSet
0 0 m 1
 0 400 l 1
 200 400 l 1
 200 0 l 1
 0 0 l 1
10 10 m 1
 190 10 l 1
 190 390 l 1
 10 390 l 1
 10 10 l 1
EndSplineSet
EndChar

StartChar: uniE033
Encoding: 57395 57395 47
Width: 400
Flags: MW
HStem: 0 10<10 190 10 200> 390 10<10 190 10 10>
VStem: 0 10<10 10 10 390> 190 10<10 390 390 390>
LayerCount: 2
Fore
SplineSet
0 0 m 1
 0 400 l 1
 200 400 l 1
 200 0 l 1
 0 0 l 1
10 10 m 1
 190 10 l 1
 190 390 l 1
 10 390 l 1
 10 10 l 1
EndSplineSet
EndChar

StartChar: uniE034
Encoding: 57396 57396 48
Width: 400
Flags: MW
HStem: 0 10<10 190 10 200> 390 10<10 190 10 10>
VStem: 0 10<10 10 10 390> 190 10<10 390 390 390>
LayerCount: 2
Fore
SplineSet
0 0 m 1
 0 400 l 1
 200 400 l 1
 200 0 l 1
 0 0 l 1
10 10 m 1
 190 10 l 1
 190 390 l 1
 10 390 l 1
 10 10 l 1
EndSplineSet
EndChar

StartChar: uniE035
Encoding: 57397 57397 49
Width: 400
Flags: MW
HStem: 0 10<10 190 10 200> 390 10<10 190 10 10>
VStem: 0 10<10 10 10 390> 190 10<10 390 390 390>
LayerCount: 2
Fore
SplineSet
0 0 m 1
 0 400 l 1
 200 400 l 1
 200 0 l 1
 0 0 l 1
10 10 m 1
 190 10 l 1
 190 390 l 1
 10 390 l 1
 10 10 l 1
EndSplineSet
EndChar

StartChar: uniE036
Encoding: 57398 57398 50
Width: 400
Flags: MW
HStem: 0 10<10 190 10 200> 390 10<10 190 10 10>
VStem: 0 10<10 10 10 390> 190 10<10 390 390 390>
LayerCount: 2
Fore
SplineSet
0 0 m 1
 0 400 l 1
 200 400 l 1
 200 0 l 1
 0 0 l 1
10 10 m 1
 190 10 l 1
 190 390 l 1
 10 390 l 1
 10 10 l 1
EndSplineSet
EndChar

StartChar: uniE037
Encoding: 57399 57399 51
Width: 400
Flags: MW
HStem: 0 10<10 190 10 200> 390 10<10 190 10 10>
VStem: 0 10<10 10 10 390> 190 10<10 390 390 390>
LayerCount: 2
Fore
SplineSet
0 0 m 1
 0 400 l 1
 200 400 l 1
 200 0 l 1
 0 0 l 1
10 10 m 1
 190 10 l 1
 190 390 l 1
 10 390 l 1
 10 10 l 1
EndSplineSet
EndChar

StartChar: uniE038
Encoding: 57400 57400 52
Width: 400
Flags: MW
HStem: 0 10<10 190 10 200> 390 10<10 190 10 10>
VStem: 0 10<10 10 10 390> 190 10<10 390 390 390>
LayerCount: 2
Fore
SplineSet
0 0 m 1
 0 400 l 1
 200 400 l 1
 200 0 l 1
 0 0 l 1
10 10 m 1
 190 10 l 1
 190 390 l 1
 10 390 l 1
 10 10 l 1
EndSplineSet
EndChar

StartChar: uniE039
Encoding: 57401 57401 53
Width: 400
Flags: MW
HStem: 0 10<10 190 10 200> 390 10<10 190 10 10>
VStem: 0 10<10 10 10 390> 190 10<10 390 390 390>
LayerCount: 2
Fore
SplineSet
0 0 m 1
 0 400 l 1
 200 400 l 1
 200 0 l 1
 0 0 l 1
10 10 m 1
 190 10 l 1
 190 390 l 1
 10 390 l 1
 10 10 l 1
EndSplineSet
EndChar

StartChar: uniE040
Encoding: 57408 57408 54
Width: 400
Flags: MW
HStem: 0 10<10 190 10 200> 390 10<10 190 10 10>
VStem: 0 10<10 10 10 390> 190 10<10 390 390 390>
LayerCount: 2
Fore
SplineSet
0 0 m 1
 0 400 l 1
 200 400 l 1
 200 0 l 1
 0 0 l 1
10 10 m 1
 190 10 l 1
 190 390 l 1
 10 390 l 1
 10 10 l 1
EndSplineSet
EndChar

StartChar: uniE041
Encoding: 57409 57409 55
Width: 400
Flags: MW
HStem: 0 10<10 190 10 200> 390 10<10 190 10 10>
VStem: 0 10<10 10 10 390> 190 10<10 390 390 390>
LayerCount: 2
Fore
SplineSet
0 0 m 1
 0 400 l 1
 200 400 l 1
 200 0 l 1
 0 0 l 1
10 10 m 1
 190 10 l 1
 190 390 l 1
 10 390 l 1
 10 10 l 1
EndSplineSet
EndChar

StartChar: uniE042
Encoding: 57410 57410 56
Width: 400
Flags: MW
HStem: 0 10<10 190 10 200> 390 10<10 190 10 10>
VStem: 0 10<10 10 10 390> 190 10<10 390 390 390>
LayerCount: 2
Fore
SplineSet
0 0 m 1
 0 400 l 1
 200 400 l 1
 200 0 l 1
 0 0 l 1
10 10 m 1
 190 10 l 1
 190 390 l 1
 10 390 l 1
 10 10 l 1
EndSplineSet
EndChar

StartChar: uniE043
Encoding: 57411 57411 57
Width: 100
Flags: MW
HStem: 320 100<36 64> 570 100<36 64>
VStem: 0 100<356 384 606 634>
LayerCount: 2
Fore
SplineSet
0 370 m 0
 0 398 22 420 50 420 c 0
 78 420 100 398 100 370 c 0
 100 342 78 320 50 320 c 0
 22 320 0 342 0 370 c 0
0 620 m 0
 0 648 22 670 50 670 c 0
 78 670 100 648 100 620 c 0
 100 592 78 570 50 570 c 0
 22 570 0 592 0 620 c 0
EndSplineSet
EndChar

StartChar: uniE044
Encoding: 57412 57412 58
Width: 100
Flags: MW
HStem: 75 100<36 64>
VStem: 0 100<111 139>
LayerCount: 2
Fore
SplineSet
0 125 m 0
 0 153 22 175 50 175 c 0
 78 175 100 153 100 125 c 0
 100 97 78 75 50 75 c 0
 22 75 0 97 0 125 c 0
EndSplineSet
EndChar

StartChar: uniE045
Encoding: 57413 57413 59
Width: 400
Flags: MW
HStem: 0 10<10 190 10 200> 390 10<10 190 10 10>
VStem: 0 10<10 10 10 390> 190 10<10 390 390 390>
LayerCount: 2
Fore
SplineSet
0 0 m 1
 0 400 l 1
 200 400 l 1
 200 0 l 1
 0 0 l 1
10 10 m 1
 190 10 l 1
 190 390 l 1
 10 390 l 1
 10 10 l 1
EndSplineSet
EndChar

StartChar: uniE046
Encoding: 57414 57414 60
Width: 400
Flags: MW
HStem: 0 10<10 190 10 200> 390 10<10 190 10 10>
VStem: 0 10<10 10 10 390> 190 10<10 390 390 390>
LayerCount: 2
Fore
SplineSet
0 0 m 1
 0 400 l 1
 200 400 l 1
 200 0 l 1
 0 0 l 1
10 10 m 1
 190 10 l 1
 190 390 l 1
 10 390 l 1
 10 10 l 1
EndSplineSet
EndChar

StartChar: uniE047
Encoding: 57415 57415 61
Width: 486
Flags: MW
HStem: -348 57<354 368.5> -130 92<33.5 58.5> 38 92<427.5 452.5> 291 57<117.5 132>
VStem: 0 92<-96.5 -71.5> 36 40<206.5 242.5> 178 91 217 91 394 92<71.5 96.5> 410 40<-242.5 -206.5>
LayerCount: 2
Fore
SplineSet
0 -84 m 0xf8
 0 -59 21 -38 46 -38 c 0
 71 -38 92 -59 92 -84 c 0
 92 -109 71 -130 46 -130 c 0
 21 -130 0 -109 0 -84 c 0xf8
25 -330 m 0
 25 -323 29 -316 33 -310 c 2
 201 -31 l 1
 121 15 36 100 36 205 c 0
 36 280 78 348 157 348 c 0
 204 348 269 312 269 252 c 0
 269 226 251 207 224 207 c 0
 202 207 187 218 178 245 c 0xf640
 169 272 144 291 120 291 c 0
 94 291 76 272 76 246 c 0
 76 167 167 93 250 50 c 1
 419 330 l 2
 427 343 432 348 441 348 c 0
 453 348 461 341 461 330 c 0
 461 323 457 316 453 310 c 2
 285 31 l 1
 365 -15 450 -100 450 -205 c 0
 450 -280 408 -348 329 -348 c 0
 282 -348 217 -312 217 -252 c 0
 217 -226 235 -207 262 -207 c 0
 284 -207 299 -218 308 -245 c 0
 317 -272 342 -291 366 -291 c 0
 392 -291 410 -272 410 -246 c 0xf540
 410 -167 319 -93 236 -50 c 1
 67 -330 l 2
 59 -343 54 -348 45 -348 c 0
 33 -348 25 -341 25 -330 c 0
394 84 m 0xf080
 394 109 415 130 440 130 c 0
 465 130 486 109 486 84 c 0
 486 59 465 38 440 38 c 0
 415 38 394 59 394 84 c 0xf080
EndSplineSet
EndChar

StartChar: uniE048
Encoding: 57416 57416 62
Width: 464
Flags: MW
HStem: -19 38<143 212 143 212 252 321>
VStem: 66 77<-74 -19 -19 74> 212 40<-262 -216 -262 -216 -180 -19 19 180 216 262> 321 77<-74 -19 -74 19>
CounterMasks: 1 70
LayerCount: 2
Fore
SplineSet
0 0 m 0
 0 20 20 20 20 20 c 1
 66 20 l 1
 66 128 140 209 212 216 c 1
 212 262 l 1
 212 262 212 282 232 282 c 0
 252 282 252 262 252 262 c 1
 252 216 l 1
 324 209 398 128 398 20 c 1
 444 20 l 1
 444 20 464 20 464 0 c 0
 464 -20 444 -20 444 -20 c 1
 398 -20 l 1
 398 -128 324 -209 252 -216 c 1
 252 -262 l 1
 252 -262 252 -282 232 -282 c 0
 212 -282 212 -262 212 -262 c 1
 212 -216 l 1
 140 -209 66 -128 66 -20 c 1
 20 -20 l 1
 20 -20 0 -20 0 0 c 0
143 19 m 1
 212 19 l 1
 212 180 l 1
 172 156 147 84 143 19 c 1
143 -19 m 1
 147 -84 172 -156 212 -180 c 1
 212 -19 l 1
 143 -19 l 1
252 19 m 1
 321 19 l 1
 317 84 292 156 252 180 c 1
 252 19 l 1
252 -19 m 1
 252 -180 l 1
 292 -156 317 -84 321 -19 c 1
 252 -19 l 1
EndSplineSet
EndChar

StartChar: uniE049
Encoding: 57417 57417 63
Width: 464
Flags: MW
HStem: -216 32<196.5 212 196.5 212 252 267.5> -20 40<20 66 20 66 142 212 252 322 398 444> 184 32<196.5 212 252 267.5>
VStem: 66 76<-40.5 -20 20 40.5> 212 40<-262 -216 -262 -216 -184 -20 20 184 216 262> 322 76<-40.5 -20 -40.5 -20 20 40.5 -40.5 52.5>
CounterMasks: 1 fc
LayerCount: 2
Fore
SplineSet
0 0 m 0
 0 20 20 20 20 20 c 1
 66 20 l 1
 66 61 71 154 74 176 c 0
 77 198 81 201 106 206 c 0
 131 211 174 216 212 216 c 1
 212 262 l 1
 212 262 212 282 232 282 c 0
 252 282 252 262 252 262 c 1
 252 216 l 1
 290 216 333 211 358 206 c 0
 383 201 387 198 390 176 c 0
 393 154 398 61 398 20 c 1
 444 20 l 1
 444 20 464 20 464 0 c 0
 464 -20 444 -20 444 -20 c 1
 398 -20 l 1
 398 -61 393 -154 390 -176 c 0
 387 -198 383 -201 358 -206 c 0
 333 -211 290 -216 252 -216 c 1
 252 -262 l 1
 252 -262 252 -282 232 -282 c 0
 212 -282 212 -262 212 -262 c 1
 212 -216 l 1
 174 -216 131 -211 106 -206 c 0
 81 -201 77 -198 74 -176 c 0
 71 -154 66 -61 66 -20 c 1
 20 -20 l 1
 20 -20 0 -20 0 0 c 0
142 -20 m 1
 142 -85 143 -133 148 -158 c 0
 153 -183 181 -184 212 -184 c 1
 212 -20 l 1
 142 -20 l 1
142 20 m 1
 212 20 l 1
 212 184 l 1
 181 184 153 183 148 158 c 0
 143 133 142 85 142 20 c 1
252 -20 m 1
 252 -184 l 1
 283 -184 311 -183 316 -158 c 0
 321 -133 322 -85 322 -20 c 1
 252 -20 l 1
252 20 m 1
 322 20 l 1
 322 85 321 133 316 158 c 0
 311 183 283 184 252 184 c 1
 252 20 l 1
EndSplineSet
EndChar

StartChar: uniE04A
Encoding: 57418 57418 64
Width: 157
Flags: MW
HStem: -302 26<-1.5 45.5> 676 26<-45.5 1.5>
VStem: -157 21<97 101 264 267 431 434> -154 36<595 597> -144 71<-199 -190.5 -225 -187> 73 71<590.5 599 587 625> 118 36<-197 -195> 136 21<-34 -31 133 136 299 303>
LayerCount: 2
Fore
SplineSet
-157 84 m 0xe2
 -157 118 -136 146 -112 159 c 1
 -140 185 -157 218 -157 250 c 0
 -157 284 -136 313 -112 326 c 1
 -140 352 -157 385 -157 417 c 0xe2
 -157 451 -136 480 -112 492 c 1
 -138 518 -154 552 -154 586 c 0
 -154 608 -148 630 -134 650 c 0
 -110 686 -67 702 -24 702 c 0
 48 702 102 666 138 614 c 0
 142 608 144 602 144 596 c 0
 144 578 130 562 110 562 c 0
 86 562 73 581 73 600 c 0xd4
 73 650 37 676 -34 676 c 0
 -75 676 -118 656 -118 611 c 0
 -118 579 -89 551 -59 530 c 2
 94 422 l 2
 132 396 157 355 157 316 c 0
 157 282 136 254 112 241 c 1
 140 215 157 182 157 150 c 0
 157 116 136 87 112 74 c 1
 140 48 157 15 157 -17 c 0xd1
 157 -51 136 -80 112 -92 c 1
 138 -118 154 -152 154 -186 c 0
 154 -208 148 -230 134 -250 c 0
 110 -286 67 -302 24 -302 c 0
 -48 -302 -102 -266 -138 -214 c 0
 -142 -208 -144 -202 -144 -196 c 0
 -144 -178 -130 -162 -110 -162 c 0
 -86 -162 -73 -181 -73 -200 c 0xca
 -73 -250 -37 -276 34 -276 c 0
 75 -276 118 -256 118 -211 c 0
 118 -179 89 -151 59 -130 c 2
 -94 -22 l 2
 -132 4 -157 45 -157 84 c 0xe2
-136 110 m 0
 -136 84 -95 55 -59 30 c 2
 19 -25 l 2
 49 -46 84 -70 108 -70 c 0
 122 -70 136 -60 136 -44 c 0xe1
 136 -18 95 13 59 38 c 2
 -18 91 l 1
 -48 113 -83 137 -108 137 c 0
 -122 137 -136 126 -136 110 c 0
-136 277 m 0
 -136 251 -95 221 -59 196 c 2
 24 138 l 2
 53 118 84 96 108 96 c 0
 122 96 136 107 136 123 c 0
 136 149 95 179 59 204 c 2
 -24 262 l 2
 -53 282 -84 304 -108 304 c 0
 -122 304 -136 293 -136 277 c 0
-136 444 m 0
 -136 418 -95 387 -59 362 c 2
 18 309 l 1
 48 287 83 263 108 263 c 0
 122 263 136 274 136 290 c 0
 136 316 95 345 59 370 c 2
 -19 425 l 2
 -49 446 -84 470 -108 470 c 0
 -122 470 -136 460 -136 444 c 0
EndSplineSet
EndChar

StartChar: uniE04B
Encoding: 57419 57419 65
Width: 400
Flags: MW
HStem: 0 10<10 190 10 200> 390 10<10 190 10 10>
VStem: 0 10<10 10 10 390> 190 10<10 390 390 390>
LayerCount: 2
Fore
SplineSet
0 0 m 1
 0 400 l 1
 200 400 l 1
 200 0 l 1
 0 0 l 1
10 10 m 1
 190 10 l 1
 190 390 l 1
 10 390 l 1
 10 10 l 1
EndSplineSet
EndChar

StartChar: uniE04C
Encoding: 57420 57420 66
Width: 400
Flags: MW
HStem: 0 10<10 190 10 200> 390 10<10 190 10 10>
VStem: 0 10<10 10 10 390> 190 10<10 390 390 390>
LayerCount: 2
Fore
SplineSet
0 0 m 1
 0 400 l 1
 200 400 l 1
 200 0 l 1
 0 0 l 1
10 10 m 1
 190 10 l 1
 190 390 l 1
 10 390 l 1
 10 10 l 1
EndSplineSet
EndChar

StartChar: uniE04D
Encoding: 57421 57421 67
Width: 400
Flags: MW
HStem: 0 10<10 190 10 200> 390 10<10 190 10 10>
VStem: 0 10<10 10 10 390> 190 10<10 390 390 390>
LayerCount: 2
Fore
SplineSet
0 0 m 1
 0 400 l 1
 200 400 l 1
 200 0 l 1
 0 0 l 1
10 10 m 1
 190 10 l 1
 190 390 l 1
 10 390 l 1
 10 10 l 1
EndSplineSet
EndChar

StartChar: uniE050
Encoding: 57424 57424 68
Width: 626
Flags: MW
HStem: -633 33<272.5 332.5 272.5 345> -246 26<279.5 357 279.5 358> 150 105<393.5 448.5> 936 144<358.5 368.5 358 419.5>
VStem: 0 94<9 88 -29.5 190.5> 102 202<-508.5 -454 -508.5 -454> 178 70<10 43 -3.5 93.5> 217 45<748 768 701 826> 448 51<806 823 700 880.5> 455 33<-471 -393.5 -476.5 -391.5> 562 64<-37.5 30>
LayerCount: 2
Fore
SplineSet
0 102 m 0xfc60
 0 279 136 426 260 536 c 1
 260 536 217 714 217 782 c 0
 217 870 250 954 286 1002 c 0
 322 1050 352 1080 364 1080 c 0
 373 1080 386 1072 401 1054 c 0
 466 976 499 871 499 775 c 0xf9a0
 499 625 416 521 318 427 c 1
 355 253 l 1
 366 255 377 255 388 255 c 0
 526 255 626 141 626 15 c 0
 626 -90 558 -184 456 -225 c 1
 456 -225 488 -371 488 -416 c 0
 488 -537 406 -633 284 -633 c 0
 211 -633 102 -592 102 -482 c 0
 102 -426 147 -381 203 -381 c 0
 259 -381 304 -426 304 -482 c 0
 304 -535 264 -579 212 -583 c 1
 226 -595 261 -600 284 -600 c 0
 381 -600 455 -526 455 -416 c 0
 455 -367 424 -236 424 -236 c 1
 399 -243 372 -246 344 -246 c 0
 157 -246 0 -84 0 102 c 0xfc60
94 49 m 0
 94 -108 215 -220 344 -220 c 0
 370 -220 395 -217 418 -210 c 1
 344 141 l 1
 286 121 248 69 248 17 c 0
 248 -24 267 -70 305 -93 c 0
 310 -96 314 -101 314 -107 c 0
 314 -115 307 -122 299 -122 c 0
 296 -122 291 -120 291 -120 c 1
 225 -91 178 -33 178 53 c 0xfa20
 178 134 233 217 322 245 c 1
 289 400 l 1
 136 252 94 127 94 49 c 0
262 723 m 0xf9a0
 262 679 289 563 289 563 c 1
 369 641 448 753 448 859 c 0
 448 902 440 936 399 936 c 0
 318 936 262 813 262 723 c 0xf9a0
377 149 m 1
 450 -197 l 1
 513 -167 562 -92 562 -15 c 0
 562 75 500 150 397 150 c 0
 390 150 384 150 377 149 c 1
EndSplineSet
EndChar

StartChar: uniE051
Encoding: 57425 57425 69
Width: 626
Flags: MW
HStem: -877 16<366 384 365 409> -737 20<372 378> -691 47<382 400 382 408> -663 25 -633 33<208 332.5 272.5 332.5 272.5 345 259 332.5 323 327.5> -246 26<279.5 357 279.5 358> 150 105<393.5 448.5> 936 144<358.5 368.5 358 419.5>
VStem: 0 94<9 88 -29.5 190.5> 102 202<-508.5 -454> 178 70<10 43 -3.5 93.5> 202 60<-829 -687 -687 -687> 217 45<748 768> 304 63<-831 -816 -831 -816> 414 59<-814 -778> 448 51<806 823 700 880.5> 455 33<-471 -393.5 -476.5 -391.5> 562 64<-37.5 30>
LayerCount: 2
Fore
SplineSet
0 102 m 0xcfc0c0
 0 279 136 426 260 536 c 1
 260 536 217 714 217 782 c 0
 217 870 250 954 286 1002 c 0
 322 1050 352 1080 364 1080 c 0
 373 1080 386 1072 401 1054 c 0
 466 976 499 871 499 775 c 0xcf8940
 499 625 416 521 318 427 c 1
 355 253 l 1
 366 255 377 255 388 255 c 0
 526 255 626 141 626 15 c 0
 626 -90 558 -184 456 -225 c 1
 456 -225 488 -371 488 -416 c 0
 488 -537 406 -633 284 -633 c 0
 211 -633 102 -592 102 -482 c 0
 102 -426 147 -381 203 -381 c 0
 259 -381 304 -426 304 -482 c 0
 304 -535 264 -579 212 -583 c 1
 226 -595 261 -600 284 -600 c 0
 381 -600 455 -526 455 -416 c 0
 455 -367 424 -236 424 -236 c 1
 399 -243 372 -246 344 -246 c 0
 157 -246 0 -84 0 102 c 0xcfc0c0
94 49 m 0
 94 -108 215 -220 344 -220 c 0
 370 -220 395 -217 418 -210 c 1
 344 141 l 1
 286 121 248 69 248 17 c 0
 248 -24 267 -70 305 -93 c 0
 310 -96 314 -101 314 -107 c 0
 314 -115 307 -122 299 -122 c 0
 296 -122 291 -120 291 -120 c 1
 225 -91 178 -33 178 53 c 0xcfa040
 178 134 233 217 322 245 c 1
 289 400 l 1
 136 252 94 127 94 49 c 0
153 -737 m 0
 153 -735 154 -734 154 -734 c 1
 203 -638 l 1
 203 -638 206 -633 208 -633 c 2
 259 -633 l 2
 261 -633 262 -635 262 -637 c 2
 262 -829 l 2
 262 -847 273 -859 283 -859 c 0
 287 -859 295 -859 295 -867 c 0
 295 -874 289 -877 283 -877 c 2
 182 -877 l 2
 176 -877 170 -874 170 -867 c 0
 170 -859 178 -859 182 -859 c 0
 192 -859 202 -847 202 -829 c 2
 202 -687 l 1xdf9040
 168 -741 l 2
 166 -745 165 -745 162 -745 c 0
 158 -745 153 -741 153 -737 c 0
262 723 m 0xcf8940
 262 679 289 563 289 563 c 1
 369 641 448 753 448 859 c 0
 448 902 440 936 399 936 c 0
 318 936 262 813 262 723 c 0xcf8940
304 -825 m 0xef8640
 304 -807 318 -793 336 -793 c 0
 354 -793 367 -807 367 -825 c 0
 367 -837 360 -848 349 -853 c 1
 351 -855 359 -861 371 -861 c 0
 397 -861 414 -832 414 -796 c 0
 414 -760 391 -737 365 -737 c 0
 345 -737 338 -740 330 -746 c 0
 324 -750 322 -751 320 -751 c 0
 313 -751 313 -749 313 -743 c 0
 313 -742 314 -718 316 -697 c 0
 318 -676 319 -646 319 -645 c 0
 319 -638 321 -633 325 -633 c 0
 330 -633 337 -635 347 -638 c 0xdf8640
 357 -641 373 -644 391 -644 c 0xef8640
 409 -644 430 -641 440 -638 c 0
 450 -635 458 -633 464 -633 c 0
 467 -633 469 -636 469 -640 c 0
 469 -644 469 -652 460 -663 c 0xdf8640
 451 -674 425 -691 391 -691 c 0
 370 -691 348 -687 330 -681 c 1
 327 -731 l 1
 347 -718 364 -717 380 -717 c 0
 428 -717 473 -748 473 -796 c 0
 473 -844 431 -877 387 -877 c 0
 345 -877 304 -860 304 -825 c 0xef8640
377 149 m 1
 450 -197 l 1
 513 -167 562 -92 562 -15 c 0
 562 75 500 150 397 150 c 0
 390 150 384 150 377 149 c 1
EndSplineSet
EndChar

StartChar: uniE052
Encoding: 57426 57426 70
Width: 626
Flags: MW
HStem: -877 18<294 325 294 336> -651 18<301.5 328> -633 33<272.5 332.5 272.5 345 287 332.5 272.5 339> -246 26<279.5 357 279.5 358> 150 105<393.5 448.5> 936 144<358.5 368.5 358 419.5>
VStem: 0 94<9 88 -29.5 190.5> 102 202<-508.5 -454 -508.5 -454> 178 70<10 43> 213 35<-816 -793 -816 -791> 217 45<748 768 701 826> 225 53<-684.5 -681.5> 355 58<-826 -818> 359 42<-707 -690> 448 51<806 823 700 880.5> 455 33<-471 -393.5 -476.5 -391.5> 562 64<-37.5 30>
LayerCount: 2
Fore
SplineSet
0 102 m 0xbf0980
 0 279 136 426 260 536 c 1
 260 536 217 714 217 782 c 0
 217 870 250 954 286 1002 c 0
 322 1050 352 1080 364 1080 c 0
 373 1080 386 1072 401 1054 c 0
 466 976 499 871 499 775 c 0xbe2680
 499 625 416 521 318 427 c 1
 355 253 l 1
 366 255 377 255 388 255 c 0
 526 255 626 141 626 15 c 0
 626 -90 558 -184 456 -225 c 1
 456 -225 488 -371 488 -416 c 0
 488 -537 406 -633 284 -633 c 0
 211 -633 102 -592 102 -482 c 0
 102 -426 147 -381 203 -381 c 0
 259 -381 304 -426 304 -482 c 0
 304 -535 264 -579 212 -583 c 1
 226 -595 261 -600 284 -600 c 0
 381 -600 455 -526 455 -416 c 0
 455 -367 424 -236 424 -236 c 1
 399 -243 372 -246 344 -246 c 0
 157 -246 0 -84 0 102 c 0xbf0980
94 49 m 0
 94 -108 215 -220 344 -220 c 0
 370 -220 395 -217 418 -210 c 1
 344 141 l 1
 286 121 248 69 248 17 c 0
 248 -24 267 -70 305 -93 c 0
 310 -96 314 -101 314 -107 c 0
 314 -115 307 -122 299 -122 c 0
 296 -122 291 -120 291 -120 c 1
 225 -91 178 -33 178 53 c 0x9e8080
 178 134 233 217 322 245 c 1
 289 400 l 1
 136 252 94 127 94 49 c 0
213 -801 m 0xde4880
 213 -781 223 -757 245 -746 c 1
 231 -737 225 -721 225 -703 c 0
 225 -660 261 -633 313 -633 c 0
 365 -633 401 -660 401 -703 c 0xde1480
 401 -721 391 -734 381 -746 c 1
 403 -762 413 -777 413 -801 c 0
 413 -851 359 -877 313 -877 c 0
 267 -877 213 -846 213 -801 c 0xde4880
248 -801 m 0x9e4880
 248 -831 275 -859 313 -859 c 0
 337 -859 355 -847 355 -831 c 0
 355 -805 311 -783 267 -761 c 1
 259 -771 248 -785 248 -801 c 0x9e4880
262 723 m 0x9e2280
 262 679 289 563 289 563 c 1
 369 641 448 753 448 859 c 0
 448 902 440 936 399 936 c 0
 318 936 262 813 262 723 c 0x9e2280
278 -672 m 0xde1480
 278 -697 320 -717 351 -731 c 1
 357 -725 359 -711 359 -703 c 0
 359 -677 343 -651 313 -651 c 0
 290 -651 278 -661 278 -672 c 0xde1480
377 149 m 1
 450 -197 l 1
 513 -167 562 -92 562 -15 c 0
 562 75 500 150 397 150 c 0
 390 150 384 150 377 149 c 1
EndSplineSet
EndChar

StartChar: uniE053
Encoding: 57427 57427 71
Width: 626
Flags: MW
HStem: -633 33<272.5 332.5 272.5 345> -246 26<279.5 357 279.5 358> 150 105<393.5 448.5> 936 144<358.5 368.5 290 419.5> 1080 18<294 325 294 336> 1306 18<301.5 328>
VStem: 0 94<9 88 -29.5 190.5> 102 202<-508.5 -454 -508.5 -454> 178 70<10 43 -3.5 93.5> 213 35<1141 1164> 217 45<748 768 701 826> 225 53<1272.5 1275.5> 355 58<1131 1139> 359 42<1250 1267> 448 51<806 823 700 880.5> 455 33<-471 -393.5 -476.5 -391.5> 562 64<-37.5 30>
LayerCount: 2
Fore
SplineSet
0 102 m 0xf70980
 0 279 136 426 260 536 c 1
 260 536 217 714 217 782 c 0
 217 870 250 954 286 1002 c 0
 322 1050 352 1080 364 1080 c 0
 373 1080 386 1072 401 1054 c 0
 466 976 499 871 499 775 c 0xf62680
 499 625 416 521 318 427 c 1
 355 253 l 1
 366 255 377 255 388 255 c 0
 526 255 626 141 626 15 c 0
 626 -90 558 -184 456 -225 c 1
 456 -225 488 -371 488 -416 c 0
 488 -537 406 -633 284 -633 c 0
 211 -633 102 -592 102 -482 c 0
 102 -426 147 -381 203 -381 c 0
 259 -381 304 -426 304 -482 c 0
 304 -535 264 -579 212 -583 c 1
 226 -595 261 -600 284 -600 c 0
 381 -600 455 -526 455 -416 c 0
 455 -367 424 -236 424 -236 c 1
 399 -243 372 -246 344 -246 c 0
 157 -246 0 -84 0 102 c 0xf70980
94 49 m 0
 94 -108 215 -220 344 -220 c 0
 370 -220 395 -217 418 -210 c 1
 344 141 l 1
 286 121 248 69 248 17 c 0
 248 -24 267 -70 305 -93 c 0
 310 -96 314 -101 314 -107 c 0
 314 -115 307 -122 299 -122 c 0
 296 -122 291 -120 291 -120 c 1
 225 -91 178 -33 178 53 c 0xe68080
 178 134 233 217 322 245 c 1
 289 400 l 1
 136 252 94 127 94 49 c 0
213 1156 m 0xee4880
 213 1176 223 1200 245 1211 c 1
 231 1220 225 1236 225 1254 c 0
 225 1297 261 1324 313 1324 c 0
 365 1324 401 1297 401 1254 c 0xee1480
 401 1236 391 1223 381 1211 c 1
 403 1195 413 1180 413 1156 c 0
 413 1106 359 1080 313 1080 c 0
 267 1080 213 1111 213 1156 c 0xee4880
248 1156 m 0xee4880
 248 1126 275 1098 313 1098 c 0
 337 1098 355 1110 355 1126 c 0
 355 1152 311 1174 267 1196 c 1
 259 1186 248 1172 248 1156 c 0xee4880
262 723 m 0xf62280
 262 679 289 563 289 563 c 1
 369 641 448 753 448 859 c 0
 448 902 440 936 399 936 c 0
 318 936 262 813 262 723 c 0xf62280
278 1285 m 0xe61480
 278 1260 320 1240 351 1226 c 1
 357 1232 359 1246 359 1254 c 0
 359 1280 343 1306 313 1306 c 0
 290 1306 278 1296 278 1285 c 0xe61480
377 149 m 1
 450 -197 l 1
 513 -167 562 -92 562 -15 c 0
 562 75 500 150 397 150 c 0
 390 150 384 150 377 149 c 1
EndSplineSet
EndChar

StartChar: uniE054
Encoding: 57428 57428 72
Width: 626
Flags: MW
HStem: -633 33<272.5 332.5 272.5 345> -246 26<279.5 357 279.5 358> 150 105<393.5 448.5> 936 144<358.5 368.5 368.5 409> 1080 16<365 368.5 366 384 365 409> 1220 20<372 378> 1266 47<382 400 382 408> 1294 25
VStem: 0 94<9 88 -29.5 190.5> 102 202<-508.5 -454 -508.5 -454> 178 70<10 43 -3.5 93.5> 202 60<1128 1270 1270 1270> 217 45<748 768 701 826> 304 63<1126 1141 1126 1141> 414 59<1143 1179> 448 51<806 823 700 880.5> 455 33<-471 -393.5 -476.5 -391.5> 562 64<-37.5 30>
LayerCount: 2
Fore
SplineSet
0 102 m 0xf4c0c0
 0 279 136 426 260 536 c 1
 260 536 217 714 217 782 c 0
 217 870 250 954 286 1002 c 0
 322 1050 352 1080 364 1080 c 0
 373 1080 386 1072 401 1054 c 0
 466 976 499 871 499 775 c 0xf48940
 499 625 416 521 318 427 c 1
 355 253 l 1
 366 255 377 255 388 255 c 0
 526 255 626 141 626 15 c 0
 626 -90 558 -184 456 -225 c 1
 456 -225 488 -371 488 -416 c 0
 488 -537 406 -633 284 -633 c 0
 211 -633 102 -592 102 -482 c 0
 102 -426 147 -381 203 -381 c 0
 259 -381 304 -426 304 -482 c 0
 304 -535 264 -579 212 -583 c 1
 226 -595 261 -600 284 -600 c 0
 381 -600 455 -526 455 -416 c 0
 455 -367 424 -236 424 -236 c 1
 399 -243 372 -246 344 -246 c 0
 157 -246 0 -84 0 102 c 0xf4c0c0
94 49 m 0
 94 -108 215 -220 344 -220 c 0
 370 -220 395 -217 418 -210 c 1
 344 141 l 1
 286 121 248 69 248 17 c 0
 248 -24 267 -70 305 -93 c 0
 310 -96 314 -101 314 -107 c 0
 314 -115 307 -122 299 -122 c 0
 296 -122 291 -120 291 -120 c 1
 225 -91 178 -33 178 53 c 0xe4a040
 178 134 233 217 322 245 c 1
 289 400 l 1
 136 252 94 127 94 49 c 0
153 1220 m 0
 153 1222 154 1223 154 1223 c 1
 203 1319 l 1
 203 1319 206 1324 208 1324 c 2
 259 1324 l 2
 261 1324 262 1322 262 1320 c 2
 262 1128 l 2
 262 1110 273 1098 283 1098 c 0
 287 1098 295 1098 295 1090 c 0
 295 1083 289 1080 283 1080 c 2
 182 1080 l 2
 176 1080 170 1083 170 1090 c 0
 170 1098 178 1098 182 1098 c 0
 192 1098 202 1110 202 1128 c 2
 202 1270 l 1xed9040
 168 1216 l 2
 166 1212 165 1212 162 1212 c 0
 158 1212 153 1216 153 1220 c 0
262 723 m 0xf48940
 262 679 289 563 289 563 c 1
 369 641 448 753 448 859 c 0
 448 902 440 936 399 936 c 0
 318 936 262 813 262 723 c 0xf48940
304 1132 m 0xf68640
 304 1150 318 1164 336 1164 c 0
 354 1164 367 1150 367 1132 c 0
 367 1120 360 1109 349 1104 c 1
 351 1102 359 1096 371 1096 c 0
 397 1096 414 1125 414 1161 c 0
 414 1197 391 1220 365 1220 c 0
 345 1220 338 1217 330 1211 c 0
 324 1207 322 1206 320 1206 c 0
 313 1206 313 1208 313 1214 c 0
 313 1215 314 1239 316 1260 c 0
 318 1281 319 1311 319 1312 c 0
 319 1319 321 1324 325 1324 c 0
 330 1324 337 1322 347 1319 c 0xed8640
 357 1316 373 1313 391 1313 c 0xe68640
 409 1313 430 1316 440 1319 c 0
 450 1322 458 1324 464 1324 c 0
 467 1324 469 1321 469 1317 c 0
 469 1313 469 1305 460 1294 c 0xe58640
 451 1283 425 1266 391 1266 c 0
 370 1266 348 1270 330 1276 c 1
 327 1226 l 1
 347 1239 364 1240 380 1240 c 0
 428 1240 473 1209 473 1161 c 0
 473 1113 431 1080 387 1080 c 0
 345 1080 304 1097 304 1132 c 0xf68640
377 149 m 1
 450 -197 l 1
 513 -167 562 -92 562 -15 c 0
 562 75 500 150 397 150 c 0
 390 150 384 150 377 149 c 1
EndSplineSet
EndChar

StartChar: uniE055
Encoding: 57429 57429 73
Width: 400
Flags: MW
HStem: 0 10<10 190 10 200> 390 10<10 190 10 10>
VStem: 0 10<10 10 10 390> 190 10<10 390 390 390>
LayerCount: 2
Fore
SplineSet
0 0 m 1
 0 400 l 1
 200 400 l 1
 200 0 l 1
 0 0 l 1
10 10 m 1
 190 10 l 1
 190 390 l 1
 10 390 l 1
 10 10 l 1
EndSplineSet
EndChar

StartChar: uniE056
Encoding: 57430 57430 74
Width: 400
Flags: MW
HStem: 0 10<10 190 10 200> 390 10<10 190 10 10>
VStem: 0 10<10 10 10 390> 190 10<10 390 390 390>
LayerCount: 2
Fore
SplineSet
0 0 m 1
 0 400 l 1
 200 400 l 1
 200 0 l 1
 0 0 l 1
10 10 m 1
 190 10 l 1
 190 390 l 1
 10 390 l 1
 10 10 l 1
EndSplineSet
EndChar

StartChar: uniE057
Encoding: 57431 57431 75
Width: 400
Flags: MW
HStem: 0 10<10 190 10 200> 390 10<10 190 10 10>
VStem: 0 10<10 10 10 390> 190 10<10 390 390 390>
LayerCount: 2
Fore
SplineSet
0 0 m 1
 0 400 l 1
 200 400 l 1
 200 0 l 1
 0 0 l 1
10 10 m 1
 190 10 l 1
 190 390 l 1
 10 390 l 1
 10 10 l 1
EndSplineSet
EndChar

StartChar: uniE058
Encoding: 57432 57432 76
Width: 400
Flags: MW
HStem: 0 10<10 190 10 200> 390 10<10 190 10 10>
VStem: 0 10<10 10 10 390> 190 10<10 390 390 390>
LayerCount: 2
Fore
SplineSet
0 0 m 1
 0 400 l 1
 200 400 l 1
 200 0 l 1
 0 0 l 1
10 10 m 1
 190 10 l 1
 190 390 l 1
 10 390 l 1
 10 10 l 1
EndSplineSet
EndChar

StartChar: uniE059
Encoding: 57433 57433 77
Width: 400
Flags: MW
HStem: 0 10<10 190 10 200> 390 10<10 190 10 10>
VStem: 0 10<10 10 10 390> 190 10<10 390 390 390>
LayerCount: 2
Fore
SplineSet
0 0 m 1
 0 400 l 1
 200 400 l 1
 200 0 l 1
 0 0 l 1
10 10 m 1
 190 10 l 1
 190 390 l 1
 10 390 l 1
 10 10 l 1
EndSplineSet
EndChar

StartChar: uniE05A
Encoding: 57434 57434 78
Width: 400
Flags: MW
HStem: 0 10<10 190 10 200> 390 10<10 190 10 10>
VStem: 0 10<10 10 10 390> 190 10<10 390 390 390>
LayerCount: 2
Fore
SplineSet
0 0 m 1
 0 400 l 1
 200 400 l 1
 200 0 l 1
 0 0 l 1
10 10 m 1
 190 10 l 1
 190 390 l 1
 10 390 l 1
 10 10 l 1
EndSplineSet
EndChar

StartChar: uniE05B
Encoding: 57435 57435 79
Width: 400
Flags: MW
HStem: 0 10<10 190 10 200> 390 10<10 190 10 10>
VStem: 0 10<10 10 10 390> 190 10<10 390 390 390>
LayerCount: 2
Fore
SplineSet
0 0 m 1
 0 400 l 1
 200 400 l 1
 200 0 l 1
 0 0 l 1
10 10 m 1
 190 10 l 1
 190 390 l 1
 10 390 l 1
 10 10 l 1
EndSplineSet
EndChar

StartChar: uniE05C
Encoding: 57436 57436 80
Width: 642
Flags: MW
HStem: -500 23<416 476.5 416 483.5> -84 24<434.5 491.5> 60 24<434.5 491.5 420 504> 477 23<416 476.5>
VStem: 0 121<-490 490> 167 30<-490 -22 22 490> 280 120<-418 -387.5 -418 -387.5 387.5 418> 305 26<-225.5 -179 179 225.5> 536 106<-347.5 -225 225 347.5>
LayerCount: 2
Fore
SplineSet
0 -490 m 2xfc80
 0 490 l 2
 0 496 4 500 10 500 c 2
 111 500 l 2
 117 500 121 496 121 490 c 2
 121 -490 l 2
 121 -496 117 -500 111 -500 c 2
 10 -500 l 2
 4 -500 0 -496 0 -490 c 2xfc80
167 -490 m 2
 167 490 l 2
 167 496 171 500 177 500 c 2
 187 500 l 2
 193 500 197 496 197 490 c 2
 197 22 l 1
 251 65 305 138 305 220 c 0
 305 231 310 237 318 237 c 0
 326 237 331 231 331 220 c 0xfd80
 331 138 390 84 450 84 c 0
 533 84 536 168 536 282 c 0
 536 416 525 477 428 477 c 0
 404 477 375 471 355 462 c 1
 381 455 400 432 400 404 c 0
 400 371 373 344 340 344 c 0
 307 344 280 371 280 404 c 0
 280 464 361 500 428 500 c 0
 539 500 642 413 642 282 c 0
 642 160 558 60 450 60 c 0
 419 60 397 73 372 88 c 1
 319 0 l 1
 372 -88 l 1
 397 -73 419 -60 450 -60 c 0
 558 -60 642 -160 642 -282 c 0
 642 -413 539 -500 428 -500 c 0
 361 -500 280 -464 280 -404 c 0
 280 -371 307 -344 340 -344 c 0
 373 -344 400 -371 400 -404 c 0xfe80
 400 -432 381 -455 355 -462 c 1
 375 -471 404 -477 428 -477 c 0
 525 -477 536 -416 536 -282 c 0
 536 -168 533 -84 450 -84 c 0
 390 -84 331 -138 331 -220 c 0
 331 -231 326 -237 318 -237 c 0
 310 -237 305 -231 305 -220 c 0xfd80
 305 -138 251 -65 197 -22 c 1
 197 -490 l 2
 197 -496 193 -500 187 -500 c 2
 177 -500 l 2
 171 -500 167 -496 167 -490 c 2
EndSplineSet
EndChar

StartChar: uniE05D
Encoding: 57437 57437 81
Width: 642
Flags: MW
HStem: -744 18<302 333 302 344> -518 18<309.5 336> -500 23<416 476.5 416 483.5> -84 24<434.5 491.5> 60 24<434.5 491.5 420 504> 477 23<416 476.5>
VStem: 0 121<-490 490> 167 30<-490 -22 22 490> 221 35<-683 -660 -683 -658> 233 53<-551.5 -548.5> 280 120<-418 -387.5 -418 -387.5 387.5 418> 305 26<-225.5 -179 179 225.5> 363 58<-693 -685> 367 42<-574 -557> 536 106<-347.5 -225 225 347.5>
LayerCount: 2
Fore
SplineSet
0 -490 m 2xbf02
 0 490 l 2
 0 496 4 500 10 500 c 2
 111 500 l 2
 117 500 121 496 121 490 c 2
 121 -490 l 2
 121 -496 117 -500 111 -500 c 2
 10 -500 l 2
 4 -500 0 -496 0 -490 c 2xbf02
167 -490 m 2
 167 490 l 2
 167 496 171 500 177 500 c 2
 187 500 l 2
 193 500 197 496 197 490 c 2
 197 22 l 1
 251 65 305 138 305 220 c 0
 305 231 310 237 318 237 c 0
 326 237 331 231 331 220 c 0xbf12
 331 138 390 84 450 84 c 0
 533 84 536 168 536 282 c 0
 536 416 525 477 428 477 c 0
 404 477 375 471 355 462 c 1
 381 455 400 432 400 404 c 0
 400 371 373 344 340 344 c 0
 307 344 280 371 280 404 c 0
 280 464 361 500 428 500 c 0
 539 500 642 413 642 282 c 0
 642 160 558 60 450 60 c 0
 419 60 397 73 372 88 c 1
 319 0 l 1
 372 -88 l 1
 397 -73 419 -60 450 -60 c 0
 558 -60 642 -160 642 -282 c 0
 642 -413 539 -500 428 -500 c 0
 361 -500 280 -464 280 -404 c 0
 280 -371 307 -344 340 -344 c 0
 373 -344 400 -371 400 -404 c 0xbf22
 400 -432 381 -455 355 -462 c 1
 375 -471 404 -477 428 -477 c 0
 525 -477 536 -416 536 -282 c 0
 536 -168 533 -84 450 -84 c 0
 390 -84 331 -138 331 -220 c 0
 331 -231 326 -237 318 -237 c 0
 310 -237 305 -231 305 -220 c 0xbf12
 305 -138 251 -65 197 -22 c 1
 197 -490 l 2
 197 -496 193 -500 187 -500 c 2
 177 -500 l 2
 171 -500 167 -496 167 -490 c 2
221 -668 m 0xdf8a
 221 -648 231 -624 253 -613 c 1
 239 -604 233 -588 233 -570 c 0
 233 -527 269 -500 321 -500 c 0
 373 -500 409 -527 409 -570 c 0xdf46
 409 -588 399 -601 389 -613 c 1
 411 -629 421 -644 421 -668 c 0
 421 -718 367 -744 321 -744 c 0
 275 -744 221 -713 221 -668 c 0xdf8a
256 -668 m 0x9f8a
 256 -698 283 -726 321 -726 c 0
 345 -726 363 -714 363 -698 c 0
 363 -672 319 -650 275 -628 c 1
 267 -638 256 -652 256 -668 c 0x9f8a
286 -539 m 0xdf46
 286 -564 328 -584 359 -598 c 1
 365 -592 367 -578 367 -570 c 0
 367 -544 351 -518 321 -518 c 0
 298 -518 286 -528 286 -539 c 0xdf46
EndSplineSet
EndChar

StartChar: uniE05E
Encoding: 57438 57438 82
Width: 400
Flags: MW
HStem: 0 10<10 190 10 200> 390 10<10 190 10 10>
VStem: 0 10<10 10 10 390> 190 10<10 390 390 390>
LayerCount: 2
Fore
SplineSet
0 0 m 1
 0 400 l 1
 200 400 l 1
 200 0 l 1
 0 0 l 1
10 10 m 1
 190 10 l 1
 190 390 l 1
 10 390 l 1
 10 10 l 1
EndSplineSet
EndChar

StartChar: uniE05F
Encoding: 57439 57439 83
Width: 400
Flags: MW
HStem: 0 10<10 190 10 200> 390 10<10 190 10 10>
VStem: 0 10<10 10 10 390> 190 10<10 390 390 390>
LayerCount: 2
Fore
SplineSet
0 0 m 1
 0 400 l 1
 200 400 l 1
 200 0 l 1
 0 0 l 1
10 10 m 1
 190 10 l 1
 190 390 l 1
 10 390 l 1
 10 10 l 1
EndSplineSet
EndChar

StartChar: uniE060
Encoding: 57440 57440 84
Width: 400
Flags: MW
HStem: 0 10<10 190 10 200> 390 10<10 190 10 10>
VStem: 0 10<10 10 10 390> 190 10<10 390 390 390>
LayerCount: 2
Fore
SplineSet
0 0 m 1
 0 400 l 1
 200 400 l 1
 200 0 l 1
 0 0 l 1
10 10 m 1
 190 10 l 1
 190 390 l 1
 10 390 l 1
 10 10 l 1
EndSplineSet
EndChar

StartChar: uniE061
Encoding: 57441 57441 85
Width: 400
Flags: MW
HStem: 0 10<10 190 10 200> 390 10<10 190 10 10>
VStem: 0 10<10 10 10 390> 190 10<10 390 390 390>
LayerCount: 2
Fore
SplineSet
0 0 m 1
 0 400 l 1
 200 400 l 1
 200 0 l 1
 0 0 l 1
10 10 m 1
 190 10 l 1
 190 390 l 1
 10 390 l 1
 10 10 l 1
EndSplineSet
EndChar

StartChar: uniE062
Encoding: 57442 57442 86
Width: 664
Flags: MW
HStem: -546 28 -157 76<615.5 636.5> -47 202<101 135 101 135> 81 76<615.5 636.5> 223 31<208.5 304>
VStem: 6 202<26 82 26 109> 419 129<-119 62> 588 76<-129.5 -108.5 108.5 129.5>
LayerCount: 2
Fore
SplineSet
0 -531 m 0xef
 0 -525 3 -521 9 -518 c 0
 245 -417 419 -236 419 -2 c 0
 419 126 366 223 242 223 c 0
 175 223 112 200 73 149 c 1
 84 153 95 155 107 155 c 0
 163 155 208 110 208 54 c 0
 208 -2 163 -47 107 -47 c 0
 51 -47 6 -2 6 54 c 0
 6 164 109 254 242 254 c 0
 415 254 548 153 548 -2 c 0
 548 -299 274 -493 23 -545 c 1
 23 -545 18 -546 15 -546 c 0
 7 -546 0 -539 0 -531 c 0xef
588 119 m 0
 588 140 605 157 626 157 c 0
 647 157 664 140 664 119 c 0
 664 98 647 81 626 81 c 0xdf
 605 81 588 98 588 119 c 0
588 -119 m 0
 588 -98 605 -81 626 -81 c 0
 647 -81 664 -98 664 -119 c 0
 664 -140 647 -157 626 -157 c 0
 605 -157 588 -140 588 -119 c 0
EndSplineSet
EndChar

StartChar: uniE063
Encoding: 57443 57443 87
Width: 664
Flags: MW
HStem: -790 16<385 403 384 428> -650 20<391 397> -604 47<401 419 401 427> -576 25 -546 28 -157 76<615.5 636.5> -47 202<101 135 101 135> 81 76<615.5 636.5> 223 31<208.5 304>
VStem: 6 202<26 82 26 109> 221 60<-742 -600 -600 -600> 323 63<-744 -729 -744 -729> 419 129<-119 62> 433 59<-727 -691> 588 76<-129.5 -108.5 108.5 129.5>
LayerCount: 2
Fore
SplineSet
0 -531 m 0xcefa
 0 -525 3 -521 9 -518 c 0
 245 -417 419 -236 419 -2 c 0
 419 126 366 223 242 223 c 0
 175 223 112 200 73 149 c 1
 84 153 95 155 107 155 c 0
 163 155 208 110 208 54 c 0
 208 -2 163 -47 107 -47 c 0
 51 -47 6 -2 6 54 c 0
 6 164 109 254 242 254 c 0
 415 254 548 153 548 -2 c 0
 548 -299 274 -493 23 -545 c 1
 23 -545 18 -546 15 -546 c 0
 7 -546 0 -539 0 -531 c 0xcefa
172 -650 m 0
 172 -648 173 -647 173 -647 c 1
 222 -551 l 1xdcf2
 222 -551 225 -546 227 -546 c 2
 278 -546 l 2
 280 -546 281 -548 281 -550 c 2
 281 -742 l 2
 281 -760 292 -772 302 -772 c 0
 306 -772 314 -772 314 -780 c 0
 314 -787 308 -790 302 -790 c 2
 201 -790 l 2
 195 -790 189 -787 189 -780 c 0
 189 -772 197 -772 201 -772 c 0
 211 -772 221 -760 221 -742 c 2
 221 -600 l 1
 187 -654 l 2
 185 -658 184 -658 181 -658 c 0
 177 -658 172 -654 172 -650 c 0
323 -738 m 0
 323 -720 337 -706 355 -706 c 0
 373 -706 386 -720 386 -738 c 0
 386 -750 379 -761 368 -766 c 1
 370 -768 378 -774 390 -774 c 0
 416 -774 433 -745 433 -709 c 0
 433 -673 410 -650 384 -650 c 0
 364 -650 357 -653 349 -659 c 0
 343 -663 341 -664 339 -664 c 0
 332 -664 332 -662 332 -656 c 0
 332 -655 333 -631 335 -610 c 0
 337 -589 338 -559 338 -558 c 0
 338 -551 340 -546 344 -546 c 0
 349 -546 356 -548 366 -551 c 0xdcf6
 376 -554 392 -557 410 -557 c 0xecf6
 428 -557 449 -554 459 -551 c 0
 469 -548 477 -546 483 -546 c 0
 486 -546 488 -549 488 -553 c 0
 488 -557 488 -565 479 -576 c 0xdcf6
 470 -587 444 -604 410 -604 c 0
 389 -604 367 -600 349 -594 c 1
 346 -644 l 1
 366 -631 383 -630 399 -630 c 0
 447 -630 492 -661 492 -709 c 0xecf6
 492 -757 450 -790 406 -790 c 0
 364 -790 323 -773 323 -738 c 0
588 119 m 0
 588 140 605 157 626 157 c 0
 647 157 664 140 664 119 c 0
 664 98 647 81 626 81 c 0xcdf2
 605 81 588 98 588 119 c 0
588 -119 m 0
 588 -98 605 -81 626 -81 c 0
 647 -81 664 -98 664 -119 c 0
 664 -140 647 -157 626 -157 c 0
 605 -157 588 -140 588 -119 c 0
EndSplineSet
EndChar

StartChar: uniE064
Encoding: 57444 57444 88
Width: 664
Flags: MW
HStem: -790 18<313 344 313 355> -564 18<320.5 347> -546 28 -157 76<615.5 636.5> -47 202<101 135 101 135> 81 76<615.5 636.5> 223 31<208.5 304>
VStem: 6 202<26 82 26 109> 232 35<-729 -706 -729 -704> 244 53<-597.5 -594.5> 374 58<-739 -731> 378 42<-620 -603> 419 129<-119 62> 588 76<-129.5 -108.5 108.5 129.5>
LayerCount: 2
Fore
SplineSet
0 -531 m 0xbb0c
 0 -525 3 -521 9 -518 c 0
 245 -417 419 -236 419 -2 c 0
 419 126 366 223 242 223 c 0
 175 223 112 200 73 149 c 1
 84 153 95 155 107 155 c 0
 163 155 208 110 208 54 c 0
 208 -2 163 -47 107 -47 c 0
 51 -47 6 -2 6 54 c 0
 6 164 109 254 242 254 c 0
 415 254 548 153 548 -2 c 0
 548 -299 274 -493 23 -545 c 1
 23 -545 18 -546 15 -546 c 0
 7 -546 0 -539 0 -531 c 0xbb0c
232 -714 m 0xd3a4
 232 -694 242 -670 264 -659 c 1
 250 -650 244 -634 244 -616 c 0
 244 -573 280 -546 332 -546 c 0
 384 -546 420 -573 420 -616 c 0xd354
 420 -634 410 -647 400 -659 c 1
 422 -675 432 -690 432 -714 c 0
 432 -764 378 -790 332 -790 c 0
 286 -790 232 -759 232 -714 c 0xd3a4
267 -714 m 0x93a4
 267 -744 294 -772 332 -772 c 0
 356 -772 374 -760 374 -744 c 0
 374 -718 330 -696 286 -674 c 1
 278 -684 267 -698 267 -714 c 0x93a4
297 -585 m 0xd354
 297 -610 339 -630 370 -644 c 1
 376 -638 378 -624 378 -616 c 0
 378 -590 362 -564 332 -564 c 0
 309 -564 297 -574 297 -585 c 0xd354
588 119 m 0
 588 140 605 157 626 157 c 0
 647 157 664 140 664 119 c 0
 664 98 647 81 626 81 c 0x9704
 605 81 588 98 588 119 c 0
588 -119 m 0
 588 -98 605 -81 626 -81 c 0
 647 -81 664 -98 664 -119 c 0
 664 -140 647 -157 626 -157 c 0
 605 -157 588 -140 588 -119 c 0
EndSplineSet
EndChar

StartChar: uniE065
Encoding: 57445 57445 89
Width: 664
Flags: MW
HStem: -546 28 -157 76<615.5 636.5> -47 202<101 135 101 135> 81 76<615.5 636.5> 223 31<208.5 304> 254 18<313 328.5 313 344 313 355> 480 18<320.5 347>
VStem: 6 202<26 82 26 109> 232 35<315 338 315 340> 244 53<446.5 449.5> 374 58<305 313> 378 42<424 441> 419 129<-119 62> 588 76<-129.5 -108.5 108.5 129.5>
LayerCount: 2
Fore
SplineSet
0 -531 m 0xeb0c
 0 -525 3 -521 9 -518 c 0
 245 -417 419 -236 419 -2 c 0
 419 126 366 223 242 223 c 0
 175 223 112 200 73 149 c 1
 84 153 95 155 107 155 c 0
 163 155 208 110 208 54 c 0
 208 -2 163 -47 107 -47 c 0
 51 -47 6 -2 6 54 c 0
 6 164 109 254 242 254 c 0
 415 254 548 153 548 -2 c 0
 548 -299 274 -493 23 -545 c 1
 23 -545 18 -546 15 -546 c 0
 7 -546 0 -539 0 -531 c 0xeb0c
232 330 m 0xc7a4
 232 350 242 374 264 385 c 1
 250 394 244 410 244 428 c 0
 244 471 280 498 332 498 c 0
 384 498 420 471 420 428 c 0xc754
 420 410 410 397 400 385 c 1
 422 369 432 354 432 330 c 0
 432 280 378 254 332 254 c 0
 286 254 232 285 232 330 c 0xc7a4
267 330 m 0xc7a4
 267 300 294 272 332 272 c 0
 356 272 374 284 374 300 c 0
 374 326 330 348 286 370 c 1
 278 360 267 346 267 330 c 0xc7a4
297 459 m 0xc354
 297 434 339 414 370 400 c 1
 376 406 378 420 378 428 c 0
 378 454 362 480 332 480 c 0
 309 480 297 470 297 459 c 0xc354
588 119 m 0
 588 140 605 157 626 157 c 0
 647 157 664 140 664 119 c 0
 664 98 647 81 626 81 c 0xd304
 605 81 588 98 588 119 c 0
588 -119 m 0
 588 -98 605 -81 626 -81 c 0
 647 -81 664 -98 664 -119 c 0
 664 -140 647 -157 626 -157 c 0
 605 -157 588 -140 588 -119 c 0
EndSplineSet
EndChar

StartChar: uniE066
Encoding: 57446 57446 90
Width: 664
Flags: MW
HStem: -546 28 -157 76<615.5 636.5> -47 202<101 135 101 135> 81 76<615.5 636.5> 223 31<208.5 242 242 304> 254 16<385 403 384 428> 394 20<391 397> 440 47<401 419 401 427> 468 25
VStem: 6 202<26 82 26 109> 221 60<302 444 444 444> 323 63<300 315 300 315> 419 129<-119 62> 433 59<317 353> 588 76<-129.5 -108.5 108.5 129.5>
LayerCount: 2
Fore
SplineSet
0 -531 m 0xeafa
 0 -525 3 -521 9 -518 c 0
 245 -417 419 -236 419 -2 c 0
 419 126 366 223 242 223 c 0
 175 223 112 200 73 149 c 1
 84 153 95 155 107 155 c 0
 163 155 208 110 208 54 c 0
 208 -2 163 -47 107 -47 c 0
 51 -47 6 -2 6 54 c 0
 6 164 109 254 242 254 c 2
 201 254 l 2
 195 254 189 257 189 264 c 0
 189 272 197 272 201 272 c 0
 211 272 221 284 221 302 c 2
 221 444 l 1
 187 390 l 2
 185 386 184 386 181 386 c 0
 177 386 172 390 172 394 c 0
 172 396 173 397 173 397 c 1
 222 493 l 1
 222 493 225 498 227 498 c 2
 278 498 l 2
 280 498 281 496 281 494 c 2
 281 302 l 2
 281 284 292 272 302 272 c 0
 306 272 314 272 314 264 c 0
 314 257 308 254 302 254 c 2
 242 254 l 2
 415 254 548 153 548 -2 c 0
 548 -299 274 -493 23 -545 c 1
 23 -545 18 -546 15 -546 c 0
 7 -546 0 -539 0 -531 c 0xeafa
323 306 m 0
 323 324 337 338 355 338 c 0
 373 338 386 324 386 306 c 0
 386 294 379 283 368 278 c 1
 370 276 378 270 390 270 c 0
 416 270 433 299 433 335 c 0
 433 371 410 394 384 394 c 0
 364 394 357 391 349 385 c 0
 343 381 341 380 339 380 c 0
 332 380 332 382 332 388 c 0
 332 389 333 413 335 434 c 0
 337 455 338 485 338 486 c 0
 338 493 340 498 344 498 c 0
 349 498 356 496 366 493 c 0xc6f6
 376 490 392 487 410 487 c 0xc376
 428 487 449 490 459 493 c 0
 469 496 477 498 483 498 c 0
 486 498 488 495 488 491 c 0
 488 487 488 479 479 468 c 0xc2f6
 470 457 444 440 410 440 c 0
 389 440 367 444 349 450 c 1
 346 400 l 1
 366 413 383 414 399 414 c 0
 447 414 492 383 492 335 c 0
 492 287 450 254 406 254 c 0xc776
 364 254 323 271 323 306 c 0
588 119 m 0
 588 140 605 157 626 157 c 0
 647 157 664 140 664 119 c 0
 664 98 647 81 626 81 c 0xd272
 605 81 588 98 588 119 c 0
588 -119 m 0
 588 -98 605 -81 626 -81 c 0
 647 -81 664 -98 664 -119 c 0
 664 -140 647 -157 626 -157 c 0
 605 -157 588 -140 588 -119 c 0
EndSplineSet
EndChar

StartChar: uniE067
Encoding: 57447 57447 91
Width: 400
Flags: MW
HStem: 0 10<10 190 10 200> 390 10<10 190 10 10>
VStem: 0 10<10 10 10 390> 190 10<10 390 390 390>
LayerCount: 2
Fore
SplineSet
0 0 m 1
 0 400 l 1
 200 400 l 1
 200 0 l 1
 0 0 l 1
10 10 m 1
 190 10 l 1
 190 390 l 1
 10 390 l 1
 10 10 l 1
EndSplineSet
EndChar

StartChar: uniE068
Encoding: 57448 57448 92
Width: 400
Flags: MW
HStem: 0 10<10 190 10 200> 390 10<10 190 10 10>
VStem: 0 10<10 10 10 390> 190 10<10 390 390 390>
LayerCount: 2
Fore
SplineSet
0 0 m 1
 0 400 l 1
 200 400 l 1
 200 0 l 1
 0 0 l 1
10 10 m 1
 190 10 l 1
 190 390 l 1
 10 390 l 1
 10 10 l 1
EndSplineSet
EndChar

StartChar: uniE069
Encoding: 57449 57449 93
Width: 340
Flags: MW
VStem: 0 114<-240 240> 226 114<-240 240>
LayerCount: 2
Fore
SplineSet
0 240 m 2
 0 246 4 250 10 250 c 2
 104 250 l 2
 110 250 114 246 114 240 c 2
 114 -240 l 2
 114 -246 110 -250 104 -250 c 2
 10 -250 l 2
 4 -250 0 -246 0 -240 c 2
 0 240 l 2
226 240 m 2
 226 246 230 250 236 250 c 2
 330 250 l 2
 336 250 340 246 340 240 c 2
 340 -240 l 2
 340 -246 336 -250 330 -250 c 2
 236 -250 l 2
 230 -250 226 -246 226 -240 c 2
 226 240 l 2
EndSplineSet
EndChar

StartChar: uniE06A
Encoding: 57450 57450 94
Width: 270
Flags: MW
HStem: -420 90<7 225 45 225 45 260> 330 90<45 45 45 225>
VStem: 0 45<-330 330 -330 410> 225 45<-330 330 330 330>
LayerCount: 2
Fore
SplineSet
0 410 m 2
 0 416 4 420 10 420 c 2
 260 420 l 2
 266 420 270 416 270 410 c 2
 270 -410 l 2
 270 -416 266 -420 260 -420 c 2
 10 -420 l 2
 4 -420 0 -416 0 -410 c 2
 0 410 l 2
45 330 m 1
 45 -330 l 1
 225 -330 l 1
 225 330 l 1
 45 330 l 1
EndSplineSet
EndChar

StartChar: uniE06B
Encoding: 57451 57451 95
Width: 400
Flags: MW
HStem: 0 10<10 190 10 200> 390 10<10 190 10 10>
VStem: 0 10<10 10 10 390> 190 10<10 390 390 390>
LayerCount: 2
Fore
SplineSet
0 0 m 1
 0 400 l 1
 200 400 l 1
 200 0 l 1
 0 0 l 1
10 10 m 1
 190 10 l 1
 190 390 l 1
 10 390 l 1
 10 10 l 1
EndSplineSet
EndChar

StartChar: uniE06C
Encoding: 57452 57452 96
Width: 400
Flags: MW
HStem: 0 10<10 190 10 200> 390 10<10 190 10 10>
VStem: 0 10<10 10 10 390> 190 10<10 390 390 390>
LayerCount: 2
Fore
SplineSet
0 0 m 1
 0 400 l 1
 200 400 l 1
 200 0 l 1
 0 0 l 1
10 10 m 1
 190 10 l 1
 190 390 l 1
 10 390 l 1
 10 10 l 1
EndSplineSet
EndChar

StartChar: uniE06D
Encoding: 57453 57453 97
Width: 410
Flags: MW
HStem: -750 60<85 225 85 225> -540 60<85 225 85 225> -330 60<85 85 85 225> -100 60<129 281 129 302 108 281> 690 60<20 390 20 175 235 235 235 390>
VStem: 25 60<-690 -540 -480 -330> 175 60<270 690 270 690> 305 60<-432.5 -377.5> 325 60<-647.5 -582.5>
LayerCount: 2
Fore
SplineSet
0 -240 m 1xfe
 165 240 l 1
 245 240 l 1
 410 -240 l 1
 350 -240 l 1
 302 -100 l 1
 108 -100 l 1
 60 -240 l 1
 0 -240 l 1xfe
20 690 m 1
 20 750 l 1
 390 750 l 1
 390 690 l 1
 235 690 l 1
 235 270 l 1
 175 270 l 1
 175 690 l 1
 20 690 l 1
25 -270 m 1
 225 -270 l 2
 310 -270 365 -300 365 -405 c 0xff
 365 -490 295 -510 295 -510 c 1
 295 -510 385 -530 385 -615 c 0xfe80
 385 -720 310 -750 225 -750 c 2
 25 -750 l 1
 25 -270 l 1
85 -330 m 1
 85 -480 l 1
 225 -480 l 2
 280 -480 305 -460 305 -405 c 0
 305 -350 280 -330 225 -330 c 2
 85 -330 l 1
85 -540 m 1
 85 -690 l 1
 225 -690 l 2
 280 -690 325 -680 325 -615 c 0xfe80
 325 -550 280 -540 225 -540 c 2
 85 -540 l 1
129 -40 m 1
 281 -40 l 1
 210 168 l 1
 200 168 l 1
 129 -40 l 1
EndSplineSet
EndChar

StartChar: uniE06E
Encoding: 57454 57454 98
Width: 400
Flags: MW
HStem: 0 10<10 190 10 200> 390 10<10 190 10 10>
VStem: 0 10<10 10 10 390> 190 10<10 390 390 390>
LayerCount: 2
Fore
SplineSet
0 0 m 1
 0 400 l 1
 200 400 l 1
 200 0 l 1
 0 0 l 1
10 10 m 1
 190 10 l 1
 190 390 l 1
 10 390 l 1
 10 10 l 1
EndSplineSet
EndChar

StartChar: uniE06F
Encoding: 57455 57455 99
Width: 400
Flags: MW
HStem: 0 10<10 190 10 200> 390 10<10 190 10 10>
VStem: 0 10<10 10 10 390> 190 10<10 390 390 390>
LayerCount: 2
Fore
SplineSet
0 0 m 1
 0 400 l 1
 200 400 l 1
 200 0 l 1
 0 0 l 1
10 10 m 1
 190 10 l 1
 190 390 l 1
 10 390 l 1
 10 10 l 1
EndSplineSet
EndChar

StartChar: uniE070
Encoding: 57456 57456 100
Width: 400
Flags: MW
HStem: 0 10<10 190 10 200> 390 10<10 190 10 10>
VStem: 0 10<10 10 10 390> 190 10<10 390 390 390>
LayerCount: 2
Fore
SplineSet
0 0 m 1
 0 400 l 1
 200 400 l 1
 200 0 l 1
 0 0 l 1
10 10 m 1
 190 10 l 1
 190 390 l 1
 10 390 l 1
 10 10 l 1
EndSplineSet
EndChar

StartChar: uniE071
Encoding: 57457 57457 101
Width: 400
Flags: MW
HStem: 0 10<10 190 10 200> 390 10<10 190 10 10>
VStem: 0 10<10 10 10 390> 190 10<10 390 390 390>
LayerCount: 2
Fore
SplineSet
0 0 m 1
 0 400 l 1
 200 400 l 1
 200 0 l 1
 0 0 l 1
10 10 m 1
 190 10 l 1
 190 390 l 1
 10 390 l 1
 10 10 l 1
EndSplineSet
EndChar

StartChar: uniE072
Encoding: 57458 57458 102
Width: 400
Flags: MW
HStem: 0 10<10 190 10 200> 390 10<10 190 10 10>
VStem: 0 10<10 10 10 390> 190 10<10 390 390 390>
LayerCount: 2
Fore
SplineSet
0 0 m 1
 0 400 l 1
 200 400 l 1
 200 0 l 1
 0 0 l 1
10 10 m 1
 190 10 l 1
 190 390 l 1
 10 390 l 1
 10 10 l 1
EndSplineSet
EndChar

StartChar: uniE073
Encoding: 57459 57459 103
Width: 626
Flags: MW
HStem: -633 33<293.5 353.5 293.5 378.5> -246 26<269 346.5 269 375.5> 150 105<177.5 232.5> 936 144<257.5 267.5>
VStem: 0 64<-37.5 30 -53.5 78> 127 51<806 823> 138 33<-471 -393.5> 322 202<-508.5 -454> 364 45<748 768> 378 70<10 43> 532 94<9 88>
LayerCount: 2
Fore
SplineSet
0 15 m 0xfb20
 0 141 100 255 238 255 c 0
 249 255 260 255 271 253 c 1
 308 427 l 1
 210 521 127 625 127 775 c 0
 127 871 160 976 225 1054 c 0
 240 1072 253 1080 262 1080 c 0
 274 1080 304 1050 340 1002 c 0
 376 954 409 870 409 782 c 0xfca0
 409 714 366 536 366 536 c 1
 490 426 626 279 626 102 c 0
 626 -84 469 -246 282 -246 c 0
 254 -246 227 -243 202 -236 c 1
 202 -236 171 -367 171 -416 c 0
 171 -526 245 -600 342 -600 c 0
 365 -600 400 -595 414 -583 c 1
 362 -579 322 -535 322 -482 c 0
 322 -426 367 -381 423 -381 c 0
 479 -381 524 -426 524 -482 c 0
 524 -592 415 -633 342 -633 c 0
 220 -633 138 -537 138 -416 c 0
 138 -371 170 -225 170 -225 c 1
 68 -184 0 -90 0 15 c 0xfb20
64 -15 m 0
 64 -92 113 -167 176 -197 c 1
 249 149 l 1
 242 150 236 150 229 150 c 0
 126 150 64 75 64 -15 c 0
178 859 m 0
 178 753 257 641 337 563 c 1
 337 563 364 679 364 723 c 0
 364 813 308 936 227 936 c 0
 186 936 178 902 178 859 c 0
208 -210 m 1
 231 -217 256 -220 282 -220 c 0
 411 -220 532 -108 532 49 c 0
 532 127 490 252 337 400 c 1
 304 245 l 1
 393 217 448 134 448 53 c 0
 448 -33 401 -91 335 -120 c 1
 335 -120 330 -122 327 -122 c 0
 319 -122 312 -115 312 -107 c 0
 312 -101 316 -96 321 -93 c 0
 359 -70 378 -24 378 17 c 0xf860
 378 69 340 121 282 141 c 1
 208 -210 l 1
EndSplineSet
EndChar

StartChar: uniE074
Encoding: 57460 57460 104
Width: 626
Flags: MW
HStem: -633 144<257.5 267.5 206.5 268> 192 105<177.5 232.5 177.5 243.5> 667 26<269 346.5> 1047 33<293.5 353.5>
VStem: 0 64<417 484.5> 127 51<-376 -359 -433.5 -253> 138 33<840.5 918 838.5 923.5> 322 202<901 955.5> 364 45<-321 -301 -379 -254> 378 70<404 437 353.5 450.5> 532 94<359 438 256.5 476.5>
LayerCount: 2
Fore
SplineSet
0 432 m 0xfca0
 0 537 68 631 170 672 c 1
 170 672 138 818 138 863 c 0
 138 984 220 1080 342 1080 c 0
 415 1080 524 1039 524 929 c 0
 524 873 479 828 423 828 c 0
 367 828 322 873 322 929 c 0
 322 982 362 1026 414 1030 c 1
 400 1042 365 1047 342 1047 c 0
 245 1047 171 973 171 863 c 0xfb20
 171 814 202 683 202 683 c 1
 227 690 254 693 282 693 c 0
 469 693 626 531 626 345 c 0
 626 168 490 21 366 -89 c 1
 366 -89 409 -267 409 -335 c 0
 409 -423 376 -507 340 -555 c 0
 304 -603 274 -633 262 -633 c 0
 253 -633 240 -625 225 -607 c 0
 160 -529 127 -424 127 -328 c 0
 127 -178 210 -74 308 20 c 1
 271 194 l 1
 260 192 249 192 238 192 c 0
 100 192 0 306 0 432 c 0xfca0
64 462 m 0
 64 372 126 297 229 297 c 0
 236 297 242 297 249 298 c 1
 176 644 l 1
 113 614 64 539 64 462 c 0
178 -412 m 0xfca0
 178 -455 186 -489 227 -489 c 0
 308 -489 364 -366 364 -276 c 0
 364 -232 337 -116 337 -116 c 1
 257 -194 178 -306 178 -412 c 0xfca0
208 657 m 1
 282 306 l 1
 340 326 378 378 378 430 c 0
 378 471 359 517 321 540 c 0
 316 543 312 548 312 554 c 0
 312 562 319 569 327 569 c 0
 330 569 335 567 335 567 c 1
 401 538 448 480 448 394 c 0xf860
 448 313 393 230 304 202 c 1
 337 47 l 1
 490 195 532 320 532 398 c 0
 532 555 411 667 282 667 c 0
 256 667 231 664 208 657 c 1
EndSplineSet
EndChar

StartChar: uniE075
Encoding: 57461 57461 105
Width: 642
Flags: MW
HStem: -500 23<165.5 226 165.5 247.5> -84 24<150.5 207.5 138 222> 60 24<150.5 207.5> 477 23<165.5 226>
VStem: 0 106<-347.5 -225 -349 -221 225 347.5> 242 120<-418 -387.5 387.5 418> 311 26<-225.5 -179 179 225.5> 445 30<-490 -22 -22 -22 22 490> 521 121<-490 490>
LayerCount: 2
Fore
SplineSet
0 -282 m 0xfd80
 0 -160 84 -60 192 -60 c 0
 223 -60 245 -73 270 -88 c 1
 323 0 l 1
 270 88 l 1
 245 73 223 60 192 60 c 0
 84 60 0 160 0 282 c 0
 0 413 103 500 214 500 c 0
 281 500 362 464 362 404 c 0
 362 371 335 344 302 344 c 0
 269 344 242 371 242 404 c 0xfd80
 242 432 261 455 287 462 c 1
 267 471 238 477 214 477 c 0
 117 477 106 416 106 282 c 0
 106 168 109 84 192 84 c 0
 252 84 311 138 311 220 c 0
 311 231 316 237 324 237 c 0
 332 237 337 231 337 220 c 0
 337 138 391 65 445 22 c 1
 445 490 l 2
 445 496 449 500 455 500 c 2
 465 500 l 2
 471 500 475 496 475 490 c 2
 475 -490 l 2
 475 -496 471 -500 465 -500 c 2
 455 -500 l 2
 449 -500 445 -496 445 -490 c 2
 445 -22 l 1
 391 -65 337 -138 337 -220 c 0
 337 -231 332 -237 324 -237 c 0
 316 -237 311 -231 311 -220 c 0xfb80
 311 -138 252 -84 192 -84 c 0
 109 -84 106 -168 106 -282 c 0
 106 -416 117 -477 214 -477 c 0
 238 -477 267 -471 287 -462 c 1
 261 -455 242 -432 242 -404 c 0
 242 -371 269 -344 302 -344 c 0
 335 -344 362 -371 362 -404 c 0
 362 -464 281 -500 214 -500 c 0
 103 -500 0 -413 0 -282 c 0xfd80
521 -490 m 2
 521 490 l 2
 521 496 525 500 531 500 c 2
 632 500 l 2
 638 500 642 496 642 490 c 2
 642 -490 l 2
 642 -496 638 -500 632 -500 c 2
 531 -500 l 2
 525 -500 521 -496 521 -490 c 2
EndSplineSet
EndChar

StartChar: uniE076
Encoding: 57462 57462 106
Width: 664
Flags: MW
HStem: -546 28 -157 76<27.5 48.5> -47 202<529 563 529 585> 81 76<27.5 48.5> 223 31<360 455.5>
VStem: 0 76<-129.5 -108.5 108.5 129.5> 116 129<-119 62 -119 75.5> 456 202<26 82>
LayerCount: 2
Fore
SplineSet
0 119 m 0xdf
 0 140 17 157 38 157 c 0
 59 157 76 140 76 119 c 0
 76 98 59 81 38 81 c 0
 17 81 0 98 0 119 c 0xdf
0 -119 m 0
 0 -98 17 -81 38 -81 c 0
 59 -81 76 -98 76 -119 c 0
 76 -140 59 -157 38 -157 c 0
 17 -157 0 -140 0 -119 c 0
116 -2 m 0
 116 153 249 254 422 254 c 0
 555 254 658 164 658 54 c 0
 658 -2 613 -47 557 -47 c 0
 501 -47 456 -2 456 54 c 0
 456 110 501 155 557 155 c 0xef
 569 155 580 153 591 149 c 1
 552 200 489 223 422 223 c 0
 298 223 245 126 245 -2 c 0
 245 -236 419 -417 655 -518 c 0
 661 -521 664 -525 664 -531 c 0
 664 -539 657 -546 649 -546 c 0
 646 -546 641 -545 641 -545 c 1
 390 -493 116 -299 116 -2 c 0
EndSplineSet
EndChar

StartChar: uniE077
Encoding: 57463 57463 107
Width: 664
Flags: MW
HStem: -546 31<360 455.5 360 488.5> -449 76<27.5 48.5> -447 202<529 563> -211 76<27.5 48.5> 226 28
VStem: 0 76<-421.5 -400.5 -183.5 -162.5> 116 129<-354 -173 -354 -141.5> 456 202<-374 -318>
LayerCount: 2
Fore
SplineSet
0 -173 m 0x9f
 0 -152 17 -135 38 -135 c 0
 59 -135 76 -152 76 -173 c 0
 76 -194 59 -211 38 -211 c 0
 17 -211 0 -194 0 -173 c 0x9f
0 -411 m 0
 0 -390 17 -373 38 -373 c 0
 59 -373 76 -390 76 -411 c 0
 76 -432 59 -449 38 -449 c 0xdf
 17 -449 0 -432 0 -411 c 0
116 -290 m 0
 116 7 390 201 641 253 c 1
 641 253 646 254 649 254 c 0
 657 254 664 247 664 239 c 0
 664 233 661 229 655 226 c 0
 419 125 245 -56 245 -290 c 0
 245 -418 298 -515 422 -515 c 0
 489 -515 552 -492 591 -441 c 1
 580 -445 569 -447 557 -447 c 0
 501 -447 456 -402 456 -346 c 0
 456 -290 501 -245 557 -245 c 0xbf
 613 -245 658 -290 658 -346 c 0
 658 -456 555 -546 422 -546 c 0
 249 -546 116 -445 116 -290 c 0
EndSplineSet
EndChar

StartChar: uniE078
Encoding: 57464 57464 108
Width: 400
Flags: MW
HStem: 0 10<10 190 10 200> 390 10<10 190 10 10>
VStem: 0 10<10 10 10 390> 190 10<10 390 390 390>
LayerCount: 2
Fore
SplineSet
0 0 m 1
 0 400 l 1
 200 400 l 1
 200 0 l 1
 0 0 l 1
10 10 m 1
 190 10 l 1
 190 390 l 1
 10 390 l 1
 10 10 l 1
EndSplineSet
EndChar

StartChar: uniE079
Encoding: 57465 57465 109
Width: 400
Flags: MW
HStem: 0 10<10 190 10 200> 390 10<10 190 10 10>
VStem: 0 10<10 10 10 390> 190 10<10 390 390 390>
LayerCount: 2
Fore
SplineSet
0 0 m 1
 0 400 l 1
 200 400 l 1
 200 0 l 1
 0 0 l 1
10 10 m 1
 190 10 l 1
 190 390 l 1
 10 390 l 1
 10 10 l 1
EndSplineSet
EndChar

StartChar: uniE07A
Encoding: 57466 57466 110
Width: 400
Flags: MW
HStem: 0 10<10 190 10 200> 390 10<10 190 10 10>
VStem: 0 10<10 10 10 390> 190 10<10 390 390 390>
LayerCount: 2
Fore
SplineSet
0 0 m 1
 0 400 l 1
 200 400 l 1
 200 0 l 1
 0 0 l 1
10 10 m 1
 190 10 l 1
 190 390 l 1
 10 390 l 1
 10 10 l 1
EndSplineSet
EndChar

StartChar: uniE07B
Encoding: 57467 57467 111
Width: 400
Flags: MW
HStem: 0 10<10 190 10 200> 390 10<10 190 10 10>
VStem: 0 10<10 10 10 390> 190 10<10 390 390 390>
LayerCount: 2
Fore
SplineSet
0 0 m 1
 0 400 l 1
 200 400 l 1
 200 0 l 1
 0 0 l 1
10 10 m 1
 190 10 l 1
 190 390 l 1
 10 390 l 1
 10 10 l 1
EndSplineSet
EndChar

StartChar: uniE07C
Encoding: 57468 57468 112
Width: 400
Flags: MW
HStem: 0 10<10 190 10 200> 390 10<10 190 10 10>
VStem: 0 10<10 10 10 390> 190 10<10 390 390 390>
LayerCount: 2
Fore
SplineSet
0 0 m 1
 0 400 l 1
 200 400 l 1
 200 0 l 1
 0 0 l 1
10 10 m 1
 190 10 l 1
 190 390 l 1
 10 390 l 1
 10 10 l 1
EndSplineSet
EndChar

StartChar: uniE07D
Encoding: 57469 57469 113
Width: 400
Flags: MW
HStem: 0 10<10 190 10 200> 390 10<10 190 10 10>
VStem: 0 10<10 10 10 390> 190 10<10 390 390 390>
LayerCount: 2
Fore
SplineSet
0 0 m 1
 0 400 l 1
 200 400 l 1
 200 0 l 1
 0 0 l 1
10 10 m 1
 190 10 l 1
 190 390 l 1
 10 390 l 1
 10 10 l 1
EndSplineSet
EndChar

StartChar: uniE07E
Encoding: 57470 57470 114
Width: 400
Flags: MW
HStem: 0 10<10 190 10 200> 390 10<10 190 10 10>
VStem: 0 10<10 10 10 390> 190 10<10 390 390 390>
LayerCount: 2
Fore
SplineSet
0 0 m 1
 0 400 l 1
 200 400 l 1
 200 0 l 1
 0 0 l 1
10 10 m 1
 190 10 l 1
 190 390 l 1
 10 390 l 1
 10 10 l 1
EndSplineSet
EndChar

StartChar: uniE07F
Encoding: 57471 57471 115
Width: 400
Flags: MW
HStem: 0 10<10 190 10 200> 390 10<10 190 10 10>
VStem: 0 10<10 10 10 390> 190 10<10 390 390 390>
LayerCount: 2
Fore
SplineSet
0 0 m 1
 0 400 l 1
 200 400 l 1
 200 0 l 1
 0 0 l 1
10 10 m 1
 190 10 l 1
 190 390 l 1
 10 390 l 1
 10 10 l 1
EndSplineSet
EndChar

StartChar: uniE080
Encoding: 57472 57472 116
Width: 422
Flags: MW
HStem: -243 26<171.5 250.5 171.5 267> 217 26<171.5 250.5>
VStem: 0 132<-48.5 43.5 -48.5 65.5> 290 132<-48.5 43.5>
LayerCount: 2
Fore
SplineSet
0 0 m 0
 0 131 99 243 211 243 c 0
 323 243 422 131 422 0 c 0
 422 -132 323 -243 211 -243 c 0
 99 -243 0 -132 0 0 c 0
132 0 m 0
 132 -97 132 -217 211 -217 c 0
 290 -217 290 -97 290 0 c 0
 290 87 290 217 211 217 c 0
 132 217 132 87 132 0 c 0
EndSplineSet
EndChar

StartChar: uniE081
Encoding: 57473 57473 117
Width: 284
Flags: MW
HStem: -243 36<54 58 58 67.5 250.5 260>
VStem: 99 120<-149 136 136 136>
LayerCount: 2
Fore
SplineSet
0 35 m 0
 0 39 2 42 2 42 c 1
 100 234 l 1
 100 234 105 243 109 243 c 2
 212 243 l 2
 216 243 219 239 219 235 c 2
 219 -149 l 2
 219 -184 241 -207 260 -207 c 0
 268 -207 284 -208 284 -225 c 0
 284 -239 273 -243 260 -243 c 2
 58 -243 l 2
 45 -243 34 -239 34 -225 c 0
 34 -208 50 -207 58 -207 c 0
 77 -207 99 -184 99 -149 c 2
 99 136 l 1
 31 29 l 2
 27 22 24 19 18 19 c 0
 9 19 0 26 0 35 c 0
EndSplineSet
EndChar

StartChar: uniE082
Encoding: 57474 57474 118
Width: 377
Flags: MW
HStem: -243 106<243 316> -195 96<93 188.5> 212 31<141.5 186>
VStem: 13 126<123.5 153.5 123.5 176> 236 119<81 144.5>
LayerCount: 2
Fore
SplineSet
0 -214 m 0x78
 0 -131 70 -72 126 -33 c 0
 182 6 236 48 236 114 c 0
 236 175 214 212 158 212 c 0
 125 212 110 203 103 198 c 1
 124 188 139 166 139 141 c 0
 139 106 111 78 76 78 c 0
 41 78 13 106 13 141 c 0
 13 211 93 243 178 243 c 0
 269 243 355 203 355 114 c 0
 355 21 260 -36 196 -57 c 0
 132 -78 85 -107 54 -145 c 1
 87 -119 130 -99 173 -99 c 0x78
 204 -99 226 -105 249 -117 c 0
 272 -129 290 -137 306 -137 c 0
 326 -137 339 -127 345 -121 c 0
 351 -115 359 -108 365 -108 c 0
 371 -108 377 -112 377 -120 c 0
 377 -170 310 -243 259 -243 c 0xb8
 227 -243 205 -237 180 -221 c 0
 155 -205 138 -195 108 -195 c 0
 78 -195 68 -199 51 -213 c 0
 34 -227 28 -231 20 -231 c 0
 12 -231 0 -227 0 -214 c 0x78
EndSplineSet
EndChar

StartChar: uniE083
Encoding: 57475 57475 119
Width: 337
Flags: MW
HStem: -243 31<122.5 161 122 208.5> 7 26<114 145> 212 31<128.5 167.5>
VStem: 0 126<-152.5 -122.5 -152.5 -122.5 123.5 153.5> 217 120<-139.5 -80.5>
LayerCount: 2
Fore
SplineSet
0 -140 m 0
 0 -105 28 -77 63 -77 c 0
 98 -77 126 -105 126 -140 c 0
 126 -165 111 -187 89 -197 c 1
 95 -202 110 -212 134 -212 c 0
 188 -212 217 -165 217 -114 c 0
 217 -47 170 7 120 7 c 0
 108 7 104 14 104 20 c 0
 104 26 108 33 120 33 c 0
 170 33 221 71 221 125 c 0
 221 181 190 212 145 212 c 0
 112 212 97 203 90 198 c 1
 111 188 126 166 126 141 c 0
 126 106 98 78 63 78 c 0
 28 78 0 106 0 141 c 0
 0 211 80 243 165 243 c 0
 256 243 332 213 332 125 c 0
 332 66 272 42 212 20 c 1
 297 2 337 -31 337 -114 c 0
 337 -184 252 -243 165 -243 c 0
 80 -243 0 -210 0 -140 c 0
EndSplineSet
EndChar

StartChar: uniE084
Encoding: 57476 57476 120
Width: 384
Flags: MW
HStem: -243 36<154 158 158 167.5 350.5 360> -121 34<14.5 199 50 199 50 199 319 358>
VStem: 199 120<-149 -121 -166.5 -121 -87 17 17 23>
LayerCount: 2
Fore
SplineSet
0 -106 m 0
 0 -103 0 -97 9 -87 c 0
 81 -9 135 127 135 221 c 0
 135 235 136 243 144 243 c 2
 318 243 l 2
 325 243 327 237 327 231 c 0
 327 228 325 223 322 220 c 2
 50 -87 l 1
 199 -87 l 1
 199 17 l 2
 199 29 211 42 235 68 c 2
 294 134 l 1
 294 134 302 144 310 144 c 0
 313 144 319 143 319 134 c 2
 319 -87 l 1
 358 -87 l 1
 358 -87 371 -88 371 -104 c 0
 371 -120 358 -121 358 -121 c 1
 319 -121 l 1
 319 -149 l 2
 319 -184 341 -207 360 -207 c 0
 368 -207 384 -208 384 -225 c 0
 384 -239 373 -243 360 -243 c 2
 158 -243 l 2
 145 -243 134 -239 134 -225 c 0
 134 -208 150 -207 158 -207 c 0
 177 -207 199 -184 199 -149 c 2
 199 -121 l 1
 19 -121 l 2
 10 -121 0 -115 0 -106 c 0
EndSplineSet
EndChar

StartChar: uniE085
Encoding: 57477 57477 121
Width: 337
Flags: MW
HStem: -243 31<122.5 159.5 122 209> 36 40<136 148> 128 94<156 192 156 208>
VStem: 0 126<-152.5 -122.5 -152.5 -122.5> 219 118<-118 -46>
LayerCount: 2
Fore
SplineSet
0 -140 m 0
 0 -105 28 -77 63 -77 c 0
 98 -77 126 -105 126 -140 c 0
 126 -165 111 -187 89 -197 c 1
 95 -202 110 -212 134 -212 c 0
 185 -212 219 -154 219 -82 c 0
 219 -10 174 36 122 36 c 0
 82 36 68 29 52 18 c 0
 36 7 34 7 27 7 c 0
 17 7 17 17 17 25 c 0
 17 27 20 75 23 117 c 0
 26 159 30 219 30 221 c 0
 30 235 33 243 41 243 c 0
 53 243 66 240 86 234 c 0
 106 228 138 222 174 222 c 0
 210 222 251 228 271 234 c 0
 291 240 308 243 320 243 c 0
 326 243 330 237 330 230 c 0
 330 223 330 205 312 183 c 0
 294 161 242 128 174 128 c 0
 132 128 86 137 51 148 c 1
 45 49 l 1
 84 75 120 76 152 76 c 0
 247 76 337 13 337 -82 c 0
 337 -177 253 -243 165 -243 c 0
 80 -243 0 -210 0 -140 c 0
EndSplineSet
EndChar

StartChar: uniE086
Encoding: 57478 57478 122
Width: 389
Flags: MW
HStem: -243 26<187.5 236.5 187.5 257> 15 25<199 236.5> 217 26<196.5 251.5>
VStem: 0 132<18 68 18 70> 0 153<-131 70> 246 126<127.5 159> 271 118<-131 -71>
LayerCount: 2
Fore
SplineSet
0 2 m 0xea
 0 138 102 243 225 243 c 0
 299 243 372 205 372 145 c 0
 372 110 344 82 309 82 c 0
 274 82 246 110 246 145 c 0
 246 173 263 196 288 205 c 1
 281 210 266 217 237 217 c 0
 156 217 132 118 132 18 c 1xf4
 163 36 186 40 212 40 c 0
 301 40 389 13 389 -101 c 0
 389 -176 302 -243 212 -243 c 0
 85 -243 0 -116 0 2 c 0xea
153 -101 m 0xea
 153 -161 163 -217 212 -217 c 0
 261 -217 271 -161 271 -101 c 0
 271 -41 261 15 212 15 c 0
 163 15 153 -41 153 -101 c 0xea
EndSplineSet
EndChar

StartChar: uniE087
Encoding: 57479 57479 123
Width: 363
Flags: MW
HStem: 120 73<180.5 297.5> 172 52
VStem: 72 152<-228 -172 -228 -169>
LayerCount: 2
Fore
SplineSet
0 109 m 2x60
 0 224 l 2
 0 232 7 234 13 234 c 0
 19 234 24 232 28 229 c 0
 32 226 35 224 41 224 c 0x60
 53 224 70 229 86 234 c 0
 102 239 119 243 137 243 c 0
 179 243 224 228 245 211 c 0
 266 194 276 193 287 193 c 0
 308 193 321 204 338 226 c 0
 342 232 345 234 351 234 c 0
 357 234 363 230 363 223 c 0
 363 162 309 50 280 2 c 0
 251 -46 224 -126 224 -218 c 0
 224 -238 224 -243 214 -243 c 2
 82 -243 l 2
 73 -243 72 -238 72 -218 c 0
 72 -120 154 -12 206 36 c 0
 258 84 287 119 313 162 c 1
 278 136 237 120 197 120 c 0xa0
 164 120 132 131 107 152 c 0
 90 166 79 172 69 172 c 0
 48 172 40 150 30 114 c 0
 27 102 20 99 13 99 c 0
 6 99 0 102 0 109 c 2x60
EndSplineSet
EndChar

StartChar: uniE088
Encoding: 57480 57480 124
Width: 400
Flags: MW
HStem: -243 34<162 223.5 162 245.5> 209 34<177 229.5>
VStem: 0 70<-121.5 -74.5 -121.5 -71.5> 25 105<141 148> 283 117<-141.5 -126.5> 293 82<96.5 131>
LayerCount: 2
Fore
SplineSet
0 -91 m 0xe8
 0 -52 22 -4 65 18 c 1
 37 36 25 69 25 105 c 0
 25 191 95 243 200 243 c 0
 305 243 375 191 375 105 c 0xd4
 375 69 355 41 335 18 c 1
 380 -13 400 -43 400 -91 c 0
 400 -192 291 -243 200 -243 c 0
 109 -243 0 -181 0 -91 c 0xe8
70 -91 m 0xe8
 70 -152 124 -209 200 -209 c 0
 247 -209 283 -183 283 -152 c 0
 283 -101 196 -54 107 -11 c 1
 90 -31 70 -58 70 -91 c 0xe8
130 166 m 0xd4
 130 116 214 76 276 47 c 1
 289 60 293 88 293 105 c 0
 293 157 259 209 200 209 c 0
 154 209 130 188 130 166 c 0xd4
EndSplineSet
EndChar

StartChar: uniE089
Encoding: 57481 57481 125
Width: 389
Flags: MW
HStem: -243 26<137.5 192.5 137.5 225.5> -40 25<152.5 190> 217 26<152.5 201.5>
VStem: 0 118<71 131 71 138.5> 17 126<-159 -127.5 -159 -127.5> 236 153<-70 131> 257 132<-68 -18>
LayerCount: 2
Fore
SplineSet
0 101 m 0xf2
 0 176 87 243 177 243 c 0
 304 243 389 116 389 -2 c 0
 389 -138 287 -243 164 -243 c 0
 90 -243 17 -205 17 -145 c 0
 17 -110 45 -82 80 -82 c 0
 115 -82 143 -110 143 -145 c 0xec
 143 -173 126 -196 101 -205 c 1
 108 -210 123 -217 152 -217 c 0
 233 -217 257 -118 257 -18 c 1
 226 -36 203 -40 177 -40 c 0
 88 -40 0 -13 0 101 c 0xf2
118 101 m 0xf4
 118 41 128 -15 177 -15 c 0
 226 -15 236 41 236 101 c 0
 236 161 226 217 177 217 c 0
 128 217 118 161 118 101 c 0xf4
EndSplineSet
EndChar

StartChar: uniE08A
Encoding: 57482 57482 126
Width: 426
Flags: MW
HStem: -243 24<195.5 290.5> 219 24<190 268>
VStem: 0 112<-62 62> 275 142<103.5 141.5> 402 24<-106.5 -71>
LayerCount: 2
Fore
SplineSet
0 0 m 0xe8
 0 124 97 243 244 243 c 0
 319 243 417 202 417 123 c 0
 417 84 385 52 346 52 c 0
 307 52 275 84 275 123 c 0xf0
 275 160 303 191 339 194 c 1
 322 204 292 219 244 219 c 0
 136 219 112 160 112 0 c 0
 112 -160 147 -219 244 -219 c 0
 352 -219 402 -136 402 -77 c 0
 402 -65 410 -63 414 -63 c 0
 418 -63 426 -65 426 -77 c 0
 426 -175 337 -243 244 -243 c 0
 97 -243 0 -124 0 0 c 0xe8
EndSplineSet
EndChar

StartChar: uniE08B
Encoding: 57483 57483 127
Width: 426
Flags: MW
HStem: -243 24<244 290.5> 219 24<244 268>
VStem: 0 112<-57.5 57.5> 214 30<-398 -243 -398 -241 -398 -241 -217 217 217 217 243 398> 275 142<103.5 141.5> 402 24<-106.5 -71>
LayerCount: 2
Fore
SplineSet
0 0 m 0xf4
 0 115 84 226 214 241 c 1
 214 398 l 1
 214 398 214 412 229 412 c 0
 244 412 244 398 244 398 c 1
 244 243 l 1
 319 243 417 202 417 123 c 0
 417 84 385 52 346 52 c 0
 307 52 275 84 275 123 c 0xf8
 275 160 303 191 339 194 c 1
 322 204 292 219 244 219 c 1
 244 -219 l 1
 352 -219 402 -136 402 -77 c 0
 402 -65 410 -63 414 -63 c 0
 418 -63 426 -65 426 -77 c 0
 426 -175 337 -243 244 -243 c 1
 244 -398 l 1
 244 -398 244 -412 229 -412 c 0
 214 -412 214 -398 214 -398 c 1
 214 -241 l 1
 84 -226 0 -115 0 0 c 0xf4
112 0 m 0
 112 -142 140 -205 214 -217 c 1
 214 217 l 1
 131 206 112 144 112 0 c 0
EndSplineSet
EndChar

StartChar: uniE08C
Encoding: 57484 57484 128
Width: 400
Flags: MW
HStem: 0 10<10 190 10 200> 390 10<10 190 10 10>
VStem: 0 10<10 10 10 390> 190 10<10 390 390 390>
LayerCount: 2
Fore
SplineSet
0 0 m 1
 0 400 l 1
 200 400 l 1
 200 0 l 1
 0 0 l 1
10 10 m 1
 190 10 l 1
 190 390 l 1
 10 390 l 1
 10 10 l 1
EndSplineSet
EndChar

StartChar: uniE08D
Encoding: 57485 57485 129
Width: 400
Flags: MW
HStem: 0 10<10 190 10 200> 390 10<10 190 10 10>
VStem: 0 10<10 10 10 390> 190 10<10 390 390 390>
LayerCount: 2
Fore
SplineSet
0 0 m 1
 0 400 l 1
 200 400 l 1
 200 0 l 1
 0 0 l 1
10 10 m 1
 190 10 l 1
 190 390 l 1
 10 390 l 1
 10 10 l 1
EndSplineSet
EndChar

StartChar: uniE08E
Encoding: 57486 57486 130
Width: 400
Flags: MW
HStem: 0 10<10 190 10 200> 390 10<10 190 10 10>
VStem: 0 10<10 10 10 390> 190 10<10 390 390 390>
LayerCount: 2
Fore
SplineSet
0 0 m 1
 0 400 l 1
 200 400 l 1
 200 0 l 1
 0 0 l 1
10 10 m 1
 190 10 l 1
 190 390 l 1
 10 390 l 1
 10 10 l 1
EndSplineSet
EndChar

StartChar: uniE08F
Encoding: 57487 57487 131
Width: 400
Flags: MW
HStem: 0 10<10 190 10 200> 390 10<10 190 10 10>
VStem: 0 10<10 10 10 390> 190 10<10 390 390 390>
LayerCount: 2
Fore
SplineSet
0 0 m 1
 0 400 l 1
 200 400 l 1
 200 0 l 1
 0 0 l 1
10 10 m 1
 190 10 l 1
 190 390 l 1
 10 390 l 1
 10 10 l 1
EndSplineSet
EndChar

StartChar: uniE090
Encoding: 57488 57488 132
Width: 400
Flags: MW
HStem: 0 10<10 190 10 200> 390 10<10 190 10 10>
VStem: 0 10<10 10 10 390> 190 10<10 390 390 390>
LayerCount: 2
Fore
SplineSet
0 0 m 1
 0 400 l 1
 200 400 l 1
 200 0 l 1
 0 0 l 1
10 10 m 1
 190 10 l 1
 190 390 l 1
 10 390 l 1
 10 10 l 1
EndSplineSet
EndChar

StartChar: uniE091
Encoding: 57489 57489 133
Width: 400
Flags: MW
HStem: 0 10<10 190 10 200> 390 10<10 190 10 10>
VStem: 0 10<10 10 10 390> 190 10<10 390 390 390>
LayerCount: 2
Fore
SplineSet
0 0 m 1
 0 400 l 1
 200 400 l 1
 200 0 l 1
 0 0 l 1
10 10 m 1
 190 10 l 1
 190 390 l 1
 10 390 l 1
 10 10 l 1
EndSplineSet
EndChar

StartChar: uniE092
Encoding: 57490 57490 134
Width: 120
Flags: MW
VStem: 0 54<-49 49 -49 51>
LayerCount: 2
Fore
SplineSet
0 0 m 0
 0 102 27 175 77 255 c 0
 84 266 89 267 92 267 c 0
 99 267 104 263 104 258 c 0
 104 255 103 252 99 243 c 0
 69 170 54 98 54 0 c 0
 54 -98 69 -170 99 -243 c 0
 103 -252 104 -255 104 -258 c 0
 104 -263 99 -267 92 -267 c 0
 89 -267 84 -266 77 -255 c 0
 27 -175 0 -102 0 0 c 0
EndSplineSet
EndChar

StartChar: uniE093
Encoding: 57491 57491 135
Width: 120
Flags: MW
VStem: 66 54<-49 49>
LayerCount: 2
Fore
SplineSet
16 -258 m 0
 16 -255 17 -252 21 -243 c 0
 51 -170 66 -98 66 0 c 0
 66 98 51 170 21 243 c 0
 17 252 16 255 16 258 c 0
 16 263 21 267 28 267 c 0
 31 267 36 266 43 255 c 0
 93 175 120 102 120 0 c 0
 120 -102 93 -175 43 -255 c 0
 36 -266 31 -267 28 -267 c 0
 21 -267 16 -263 16 -258 c 0
EndSplineSet
EndChar

StartChar: uniE094
Encoding: 57492 57492 136
Width: 104
Flags: MW
VStem: 0 54<-49 49 -49 51>
LayerCount: 2
Fore
SplineSet
0 0 m 0
 0 102 27 175 77 255 c 0
 84 266 89 267 92 267 c 0
 99 267 104 263 104 258 c 0
 104 255 103 252 99 243 c 0
 69 170 54 98 54 0 c 0
 54 -98 69 -170 99 -243 c 0
 103 -252 104 -255 104 -258 c 0
 104 -263 99 -267 92 -267 c 0
 89 -267 84 -266 77 -255 c 0
 27 -175 0 -102 0 0 c 0
EndSplineSet
EndChar

StartChar: uniE095
Encoding: 57493 57493 137
Width: 104
Flags: MW
VStem: 50 54<-49 49>
LayerCount: 2
Fore
SplineSet
0 -258 m 0
 0 -255 1 -252 5 -243 c 0
 35 -170 50 -98 50 0 c 0
 50 98 35 170 5 243 c 0
 1 252 0 255 0 258 c 0
 0 263 5 267 12 267 c 0
 15 267 20 266 27 255 c 0
 77 175 104 102 104 0 c 0
 104 -102 77 -175 27 -255 c 0
 20 -266 15 -267 12 -267 c 0
 5 -267 0 -263 0 -258 c 0
EndSplineSet
EndChar

StartChar: uniE096
Encoding: 57494 57494 138
Width: 400
Flags: MW
HStem: 0 10<10 190 10 200> 390 10<10 190 10 10>
VStem: 0 10<10 10 10 390> 190 10<10 390 390 390>
LayerCount: 2
Fore
SplineSet
0 0 m 1
 0 400 l 1
 200 400 l 1
 200 0 l 1
 0 0 l 1
10 10 m 1
 190 10 l 1
 190 390 l 1
 10 390 l 1
 10 10 l 1
EndSplineSet
EndChar

StartChar: uniE097
Encoding: 57495 57495 139
Width: 400
Flags: MW
HStem: 0 10<10 190 10 200> 390 10<10 190 10 10>
VStem: 0 10<10 10 10 390> 190 10<10 390 390 390>
LayerCount: 2
Fore
SplineSet
0 0 m 1
 0 400 l 1
 200 400 l 1
 200 0 l 1
 0 0 l 1
10 10 m 1
 190 10 l 1
 190 390 l 1
 10 390 l 1
 10 10 l 1
EndSplineSet
EndChar

StartChar: uniE098
Encoding: 57496 57496 140
Width: 400
Flags: MW
HStem: 0 10<10 190 10 200> 390 10<10 190 10 10>
VStem: 0 10<10 10 10 390> 190 10<10 390 390 390>
LayerCount: 2
Fore
SplineSet
0 0 m 1
 0 400 l 1
 200 400 l 1
 200 0 l 1
 0 0 l 1
10 10 m 1
 190 10 l 1
 190 390 l 1
 10 390 l 1
 10 10 l 1
EndSplineSet
EndChar

StartChar: uniE099
Encoding: 57497 57497 141
Width: 400
Flags: MW
HStem: 0 10<10 190 10 200> 390 10<10 190 10 10>
VStem: 0 10<10 10 10 390> 190 10<10 390 390 390>
LayerCount: 2
Fore
SplineSet
0 0 m 1
 0 400 l 1
 200 400 l 1
 200 0 l 1
 0 0 l 1
10 10 m 1
 190 10 l 1
 190 390 l 1
 10 390 l 1
 10 10 l 1
EndSplineSet
EndChar

StartChar: uniE09A
Encoding: 57498 57498 142
Width: 400
Flags: MW
HStem: 0 10<10 190 10 200> 390 10<10 190 10 10>
VStem: 0 10<10 10 10 390> 190 10<10 390 390 390>
LayerCount: 2
Fore
SplineSet
0 0 m 1
 0 400 l 1
 200 400 l 1
 200 0 l 1
 0 0 l 1
10 10 m 1
 190 10 l 1
 190 390 l 1
 10 390 l 1
 10 10 l 1
EndSplineSet
EndChar

StartChar: uniE09B
Encoding: 57499 57499 143
Width: 400
Flags: MW
HStem: 0 10<10 190 10 200> 390 10<10 190 10 10>
VStem: 0 10<10 10 10 390> 190 10<10 390 390 390>
LayerCount: 2
Fore
SplineSet
0 0 m 1
 0 400 l 1
 200 400 l 1
 200 0 l 1
 0 0 l 1
10 10 m 1
 190 10 l 1
 190 390 l 1
 10 390 l 1
 10 10 l 1
EndSplineSet
EndChar

StartChar: uniE09C
Encoding: 57500 57500 144
Width: 400
Flags: MW
HStem: 0 10<10 190 10 200> 390 10<10 190 10 10>
VStem: 0 10<10 10 10 390> 190 10<10 390 390 390>
LayerCount: 2
Fore
SplineSet
0 0 m 1
 0 400 l 1
 200 400 l 1
 200 0 l 1
 0 0 l 1
10 10 m 1
 190 10 l 1
 190 390 l 1
 10 390 l 1
 10 10 l 1
EndSplineSet
EndChar

StartChar: uniE09D
Encoding: 57501 57501 145
Width: 400
Flags: MW
HStem: 0 10<10 190 10 200> 390 10<10 190 10 10>
VStem: 0 10<10 10 10 390> 190 10<10 390 390 390>
LayerCount: 2
Fore
SplineSet
0 0 m 1
 0 400 l 1
 200 400 l 1
 200 0 l 1
 0 0 l 1
10 10 m 1
 190 10 l 1
 190 390 l 1
 10 390 l 1
 10 10 l 1
EndSplineSet
EndChar

StartChar: uniE09E
Encoding: 57502 57502 146
Width: 400
Flags: MW
HStem: 0 10<10 190 10 200> 390 10<10 190 10 10>
VStem: 0 10<10 10 10 390> 190 10<10 390 390 390>
LayerCount: 2
Fore
SplineSet
0 0 m 1
 0 400 l 1
 200 400 l 1
 200 0 l 1
 0 0 l 1
10 10 m 1
 190 10 l 1
 190 390 l 1
 10 390 l 1
 10 10 l 1
EndSplineSet
EndChar

StartChar: uniE09F
Encoding: 57503 57503 147
Width: 400
Flags: MW
HStem: 0 10<10 190 10 200> 390 10<10 190 10 10>
VStem: 0 10<10 10 10 390> 190 10<10 390 390 390>
LayerCount: 2
Fore
SplineSet
0 0 m 1
 0 400 l 1
 200 400 l 1
 200 0 l 1
 0 0 l 1
10 10 m 1
 190 10 l 1
 190 390 l 1
 10 390 l 1
 10 10 l 1
EndSplineSet
EndChar

StartChar: uniE0A0
Encoding: 57504 57504 148
Width: 666
Flags: MW
HStem: -135 17<329.5 379.5 329.5 389> 118 17<286.5 336.5>
VStem: 0 40<-157 157 -157 157> 68 40<-157 -18 18 157> 558 40<-157 -18 -18 -18 18 157 -157 157> 626 40<-157 157 -157 157>
LayerCount: 2
Fore
SplineSet
0 -157 m 1
 0 157 l 1
 0 157 0 177 20 177 c 0
 40 177 40 157 40 157 c 1
 40 -157 l 1
 40 -157 40 -177 20 -177 c 0
 0 -177 0 -157 0 -157 c 1
68 -157 m 1
 68 157 l 1
 68 157 68 177 88 177 c 0
 108 177 108 157 108 157 c 1
 108 18 l 1
 123 84 218 135 332 135 c 0
 446 135 543 84 558 18 c 1
 558 157 l 1
 558 157 558 177 578 177 c 0
 598 177 598 157 598 157 c 1
 598 -157 l 1
 598 -157 598 -177 578 -177 c 0
 558 -177 558 -157 558 -157 c 1
 558 -18 l 1
 543 -84 446 -135 332 -135 c 0
 218 -135 123 -84 108 -18 c 1
 108 -157 l 1
 108 -157 108 -177 88 -177 c 0
 68 -177 68 -157 68 -157 c 1
231 30 m 0
 231 -43 300 -118 359 -118 c 0
 400 -118 435 -79 435 -30 c 0
 435 43 366 118 307 118 c 0
 266 118 231 79 231 30 c 0
626 -157 m 1
 626 157 l 1
 626 157 626 177 646 177 c 0
 666 177 666 157 666 157 c 1
 666 -157 l 1
 666 -157 666 -177 646 -177 c 0
 626 -177 626 -157 626 -157 c 1
EndSplineSet
EndChar

StartChar: uniE0A1
Encoding: 57505 57505 149
Width: 524
Flags: MW
HStem: -140 80<55 424 100 424 424 454> 60 80<70 100 100 424>
VStem: 0 40<-210 -180 -22.5 -10 -10 10 180 210> 484 40<-210 -180 -180 -180 -10 10 10 22.5 180 210 -210 210>
LayerCount: 2
Fore
SplineSet
0 -210 m 1
 0 210 l 1
 0 210 0 230 20 230 c 0
 40 230 40 210 40 210 c 1
 40 180 l 1
 40 180 40 140 70 140 c 2
 454 140 l 2
 484 140 484 180 484 180 c 1
 484 210 l 1
 484 210 484 230 504 230 c 0
 524 230 524 210 524 210 c 1
 524 -210 l 1
 524 -210 524 -230 504 -230 c 0
 484 -230 484 -210 484 -210 c 1
 484 -180 l 1
 484 -180 484 -140 454 -140 c 2
 70 -140 l 2
 40 -140 40 -180 40 -180 c 1
 40 -210 l 1
 40 -210 40 -230 20 -230 c 0
 0 -230 0 -210 0 -210 c 1
40 10 m 2
 40 -10 l 2
 40 -35 40 -60 100 -60 c 2
 424 -60 l 2
 484 -60 484 -35 484 -10 c 2
 484 10 l 2
 484 35 484 60 424 60 c 2
 100 60 l 2
 40 60 40 35 40 10 c 2
EndSplineSet
EndChar

StartChar: uniE0A2
Encoding: 57506 57506 150
Width: 454
Flags: MW
HStem: -135 17<223.5 273.5 223.5 288> 118 17<180.5 230.5>
VStem: 0 125<-6.5 37.5> 329 125<-37.5 6.5>
LayerCount: 2
Fore
SplineSet
0 0 m 0
 0 75 102 135 226 135 c 0
 350 135 454 75 454 0 c 0
 454 -75 350 -135 226 -135 c 0
 102 -135 0 -75 0 0 c 0
125 30 m 0
 125 -43 194 -118 253 -118 c 0
 294 -118 329 -79 329 -30 c 0
 329 43 260 118 201 118 c 0
 160 118 125 79 125 30 c 0
EndSplineSet
EndChar

StartChar: uniE0A3
Encoding: 57507 57507 151
Width: 316
Flags: MW
HStem: -135 37<81.5 88 50 167> 98 37<228 234.5 149 266>
VStem: 0 35<-66 -55.5 -85.5 9> 281 35<55.5 66 -9 85.5>
LayerCount: 2
Fore
SplineSet
0 -37 m 0
 0 55 97 135 201 135 c 0
 268 135 316 95 316 37 c 0
 316 -55 219 -135 115 -135 c 0
 48 -135 0 -95 0 -37 c 0
35 -80 m 0
 35 -91 43 -98 57 -98 c 0
 119 -98 281 31 281 80 c 0
 281 91 273 98 259 98 c 0
 197 98 35 -31 35 -80 c 0
EndSplineSet
EndChar

StartChar: uniE0A4
Encoding: 57508 57508 152
Width: 316
Flags: MW
HStem: -135 270<149 167>
VStem: 0 316<-9 9>
LayerCount: 2
Fore
SplineSet
0 -37 m 0
 0 55 97 135 201 135 c 0
 268 135 316 95 316 37 c 0
 316 -55 219 -135 115 -135 c 0
 48 -135 0 -95 0 -37 c 0
EndSplineSet
EndChar

StartChar: uniE0A5
Encoding: 57509 57509 153
Width: 400
Flags: MW
HStem: 0 10<10 190 10 200> 390 10<10 190 10 10>
VStem: 0 10<10 10 10 390> 190 10<10 390 390 390>
LayerCount: 2
Fore
SplineSet
0 0 m 1
 0 400 l 1
 200 400 l 1
 200 0 l 1
 0 0 l 1
10 10 m 1
 190 10 l 1
 190 390 l 1
 10 390 l 1
 10 10 l 1
EndSplineSet
EndChar

StartChar: uniE0A6
Encoding: 57510 57510 154
Width: 400
Flags: MW
HStem: 0 10<10 190 10 200> 390 10<10 190 10 10>
VStem: 0 10<10 10 10 390> 190 10<10 390 390 390>
LayerCount: 2
Fore
SplineSet
0 0 m 1
 0 400 l 1
 200 400 l 1
 200 0 l 1
 0 0 l 1
10 10 m 1
 190 10 l 1
 190 390 l 1
 10 390 l 1
 10 10 l 1
EndSplineSet
EndChar

StartChar: uniE0A7
Encoding: 57511 57511 155
Width: 440
Flags: MW
HStem: -134 30<45 51.5 45 53.5 388.5 395> -56 34<220 220> 22 34<220 220> 104 30<45 51.5 388.5 395>
VStem: 0 30<-90 -80.5 -90 -74.5 80.5 90> 107 68<0 0> 265 68<0 0> 410 30<-90 -80.5 80.5 90>
LayerCount: 2
Fore
SplineSet
0 84 m 0
 0 114 25 134 50 134 c 0
 57 134 65 132 72 129 c 2
 220 56 l 1
 368 129 l 2
 375 132 383 134 390 134 c 0
 415 134 440 114 440 84 c 0
 440 65 429 48 412 39 c 2
 333 0 l 1
 412 -39 l 2
 429 -48 440 -65 440 -84 c 0
 440 -114 415 -134 390 -134 c 0
 383 -134 375 -132 368 -129 c 2
 220 -56 l 1
 72 -129 l 2
 65 -132 57 -134 50 -134 c 0
 25 -134 0 -114 0 -84 c 0
 0 -65 11 -48 28 -39 c 2
 107 0 l 1
 28 39 l 2
 11 48 0 65 0 84 c 0
30 -84 m 0
 30 -96 40 -104 50 -104 c 0
 53 -104 56 -103 59 -102 c 2
 220 -22 l 1
 381 -102 l 2
 384 -103 387 -104 390 -104 c 0
 400 -104 410 -96 410 -84 c 0
 410 -77 406 -69 399 -66 c 2
 265 0 l 1
 399 66 l 2
 406 69 410 77 410 84 c 0
 410 96 400 104 390 104 c 0
 387 104 384 103 381 102 c 2
 220 22 l 1
 59 102 l 2
 56 103 53 104 50 104 c 0
 40 104 30 96 30 84 c 0
 30 77 34 69 41 66 c 2
 175 0 l 1
 41 -66 l 2
 34 -69 30 -77 30 -84 c 0
EndSplineSet
EndChar

StartChar: uniE0A8
Encoding: 57512 57512 156
Width: 300
Flags: MW
HStem: -134 30<44.5 52.5 44.5 55.5 247.5 255.5> -65 39<150 150> 26 39<150 150> 104 30<44.5 52.5 247.5 255.5>
VStem: 0 30<-89.5 -81 -89.5 -77 81 89.5> 72 47<0 0> 181 47<0 0> 270 30<-89.5 -81 81 89.5>
LayerCount: 2
Fore
SplineSet
0 84 m 0
 0 112 24 134 50 134 c 0
 61 134 73 130 82 122 c 2
 150 65 l 1
 218 122 l 2
 227 130 239 134 250 134 c 0
 276 134 300 112 300 84 c 0
 300 70 294 56 282 46 c 2
 228 0 l 1
 282 -46 l 2
 294 -56 300 -70 300 -84 c 0
 300 -112 276 -134 250 -134 c 0
 239 -134 227 -130 218 -122 c 2
 150 -65 l 1
 82 -122 l 2
 73 -130 61 -134 50 -134 c 0
 24 -134 0 -112 0 -84 c 0
 0 -70 6 -56 18 -46 c 2
 72 0 l 1
 18 46 l 2
 6 56 0 70 0 84 c 0
30 -84 m 0
 30 -95 39 -104 50 -104 c 0
 55 -104 59 -102 63 -99 c 2
 150 -26 l 1
 237 -99 l 2
 241 -102 245 -104 250 -104 c 0
 261 -104 270 -95 270 -84 c 0
 270 -78 268 -73 263 -69 c 2
 181 0 l 1
 263 69 l 2
 268 73 270 78 270 84 c 0
 270 95 261 104 250 104 c 0
 245 104 241 102 237 99 c 2
 150 26 l 1
 63 99 l 2
 59 102 55 104 50 104 c 0
 39 104 30 95 30 84 c 0
 30 78 32 73 37 69 c 2
 119 0 l 1
 37 -69 l 2
 32 -73 30 -78 30 -84 c 0
EndSplineSet
EndChar

StartChar: uniE0A9
Encoding: 57513 57513 157
Width: 300
Flags: MW
HStem: -29 58<150 150>
VStem: 118 64<0 0>
LayerCount: 2
Fore
SplineSet
0 -116 m 0
 0 -110 4 -103 9 -99 c 2
 118 0 l 1
 9 99 l 2
 4 103 0 110 0 116 c 0
 0 128 10 138 22 138 c 0
 27 138 33 136 37 132 c 2
 150 29 l 1
 263 132 l 2
 267 136 273 138 278 138 c 0
 290 138 300 128 300 116 c 0
 300 110 296 103 291 99 c 2
 182 0 l 1
 291 -99 l 2
 296 -103 300 -110 300 -116 c 0
 300 -128 290 -138 278 -138 c 0
 273 -138 267 -136 263 -132 c 2
 150 -29 l 1
 37 -132 l 2
 33 -136 27 -138 22 -138 c 0
 10 -138 0 -128 0 -116 c 0
EndSplineSet
EndChar

StartChar: uniE0AA
Encoding: 57514 57514 158
Width: 400
Flags: MW
HStem: 0 10<10 190 10 200> 390 10<10 190 10 10>
VStem: 0 10<10 10 10 390> 190 10<10 390 390 390>
LayerCount: 2
Fore
SplineSet
0 0 m 1
 0 400 l 1
 200 400 l 1
 200 0 l 1
 0 0 l 1
10 10 m 1
 190 10 l 1
 190 390 l 1
 10 390 l 1
 10 10 l 1
EndSplineSet
EndChar

StartChar: uniE0AB
Encoding: 57515 57515 159
Width: 400
Flags: MW
HStem: 0 10<10 190 10 200> 390 10<10 190 10 10>
VStem: 0 10<10 10 10 390> 190 10<10 390 390 390>
LayerCount: 2
Fore
SplineSet
0 0 m 1
 0 400 l 1
 200 400 l 1
 200 0 l 1
 0 0 l 1
10 10 m 1
 190 10 l 1
 190 390 l 1
 10 390 l 1
 10 10 l 1
EndSplineSet
EndChar

StartChar: uniE0AC
Encoding: 57516 57516 160
Width: 400
Flags: MW
HStem: 0 10<10 190 10 200> 390 10<10 190 10 10>
VStem: 0 10<10 10 10 390> 190 10<10 390 390 390>
LayerCount: 2
Fore
SplineSet
0 0 m 1
 0 400 l 1
 200 400 l 1
 200 0 l 1
 0 0 l 1
10 10 m 1
 190 10 l 1
 190 390 l 1
 10 390 l 1
 10 10 l 1
EndSplineSet
EndChar

StartChar: uniE0AD
Encoding: 57517 57517 161
Width: 400
Flags: MW
HStem: 0 10<10 190 10 200> 390 10<10 190 10 10>
VStem: 0 10<10 10 10 390> 190 10<10 390 390 390>
LayerCount: 2
Fore
SplineSet
0 0 m 1
 0 400 l 1
 200 400 l 1
 200 0 l 1
 0 0 l 1
10 10 m 1
 190 10 l 1
 190 390 l 1
 10 390 l 1
 10 10 l 1
EndSplineSet
EndChar

StartChar: uniE0AE
Encoding: 57518 57518 162
Width: 400
Flags: MW
HStem: 0 10<10 190 10 200> 390 10<10 190 10 10>
VStem: 0 10<10 10 10 390> 190 10<10 390 390 390>
LayerCount: 2
Fore
SplineSet
0 0 m 1
 0 400 l 1
 200 400 l 1
 200 0 l 1
 0 0 l 1
10 10 m 1
 190 10 l 1
 190 390 l 1
 10 390 l 1
 10 10 l 1
EndSplineSet
EndChar

StartChar: uniE0AF
Encoding: 57519 57519 163
Width: 400
Flags: MW
HStem: 0 10<10 190 10 200> 390 10<10 190 10 10>
VStem: 0 10<10 10 10 390> 190 10<10 390 390 390>
LayerCount: 2
Fore
SplineSet
0 0 m 1
 0 400 l 1
 200 400 l 1
 200 0 l 1
 0 0 l 1
10 10 m 1
 190 10 l 1
 190 390 l 1
 10 390 l 1
 10 10 l 1
EndSplineSet
EndChar

StartChar: uniE0B0
Encoding: 57520 57520 164
Width: 572
Flags: MW
HStem: -180 46<262 310 262 331> -33 66<286 286> 134 46<262 310>
VStem: 0 40<-157 157 -157 157> 68 40<-157 -27 27 157> 68 124<-24 24 -24 157> 253 66<0 0> 380 124<-24 24> 464 40<-157 -27 -27 -27 27 157 -157 157> 532 40<-157 157 -157 157>
CounterMasks: 1 e0
LayerCount: 2
Fore
SplineSet
0 -157 m 1xf240
 0 157 l 1
 0 157 0 177 20 177 c 0
 40 177 40 157 40 157 c 1
 40 -157 l 1
 40 -157 40 -177 20 -177 c 0
 0 -177 0 -157 0 -157 c 1xf240
68 -157 m 1xfac0
 68 157 l 1
 68 157 68 177 88 177 c 0
 108 177 108 157 108 157 c 1
 108 27 l 1
 121 113 196 180 286 180 c 0
 376 180 451 113 464 27 c 1
 464 157 l 1
 464 157 464 177 484 177 c 0
 504 177 504 157 504 157 c 1
 504 -157 l 1
 504 -157 504 -177 484 -177 c 0
 464 -177 464 -157 464 -157 c 1
 464 -27 l 1
 451 -113 376 -180 286 -180 c 0
 196 -180 121 -113 108 -27 c 1
 108 -157 l 1
 108 -157 108 -177 88 -177 c 0
 68 -177 68 -157 68 -157 c 1xfac0
177 -75 m 1
 253 0 l 1
 177 75 l 1
 177 75 192 48 192 0 c 0
 192 -48 177 -75 177 -75 c 1
210 -108 m 1
 210 -108 238 -134 286 -134 c 0
 334 -134 362 -108 362 -108 c 1
 286 -33 l 1
 210 -108 l 1
210 108 m 1
 286 33 l 1
 362 108 l 1
 362 108 334 134 286 134 c 0
 238 134 210 108 210 108 c 1
319 0 m 1
 395 -75 l 1
 395 -75 380 -48 380 0 c 0
 380 48 395 75 395 75 c 1
 319 0 l 1
532 -157 m 1
 532 157 l 1
 532 157 532 177 552 177 c 0
 572 177 572 157 572 157 c 1
 572 -157 l 1
 572 -157 572 -177 552 -177 c 0
 532 -177 532 -157 532 -157 c 1
EndSplineSet
EndChar

StartChar: uniE0B1
Encoding: 57521 57521 165
Width: 360
Flags: MW
HStem: -180 46<156 204 156 229.5> -33 66<180 180> 134 46<156 204>
VStem: 0 86<-24 24 -24 49.5> 147 66<0 0> 274 86<-24 24>
CounterMasks: 1 fc
LayerCount: 2
Fore
SplineSet
0 0 m 0
 0 99 81 180 180 180 c 0
 279 180 360 99 360 0 c 0
 360 -99 279 -180 180 -180 c 0
 81 -180 0 -99 0 0 c 0
71 -75 m 1
 147 0 l 1
 71 75 l 1
 71 75 86 48 86 0 c 0
 86 -48 71 -75 71 -75 c 1
104 -108 m 1
 104 -108 132 -134 180 -134 c 0
 228 -134 256 -108 256 -108 c 1
 180 -33 l 1
 104 -108 l 1
104 108 m 1
 180 33 l 1
 256 108 l 1
 256 108 228 134 180 134 c 0
 132 134 104 108 104 108 c 1
213 0 m 1
 289 -75 l 1
 289 -75 274 -48 274 0 c 0
 274 48 289 75 289 75 c 1
 213 0 l 1
EndSplineSet
EndChar

StartChar: uniE0B2
Encoding: 57522 57522 166
Width: 360
Flags: MW
HStem: -180 73<156 204 156 229.5> -26 52<180 180> 107 73<156 204>
VStem: 0 46<-19 19 -19 49.5> 147 66<0 0> 314 46<-19 19>
CounterMasks: 1 fc
LayerCount: 2
Fore
SplineSet
0 0 m 0
 0 99 81 180 180 180 c 0
 279 180 360 99 360 0 c 0
 360 -99 279 -180 180 -180 c 0
 81 -180 0 -99 0 0 c 0
46 0 m 0
 46 -38 71 -60 71 -60 c 1
 147 0 l 1
 71 60 l 1
 71 60 46 38 46 0 c 0
104 -86 m 1
 104 -86 132 -107 180 -107 c 0
 228 -107 256 -86 256 -86 c 1
 180 -26 l 1
 104 -86 l 1
104 86 m 1
 180 26 l 1
 256 86 l 1
 256 86 228 107 180 107 c 0
 132 107 104 86 104 86 c 1
213 0 m 1
 289 -60 l 1
 289 -60 314 -38 314 0 c 0
 314 38 289 60 289 60 c 1
 213 0 l 1
EndSplineSet
EndChar

StartChar: uniE0B3
Encoding: 57523 57523 167
Width: 360
Flags: MW
HStem: -180 46<156 204 156 229.5> -33 66<180 180> 134 46<156 204>
VStem: 0 46<-24 24 -24 49.5> 147 66<0 0> 314 46<-24 24>
CounterMasks: 1 fc
LayerCount: 2
Fore
SplineSet
0 0 m 0
 0 99 81 180 180 180 c 0
 279 180 360 99 360 0 c 0
 360 -99 279 -180 180 -180 c 0
 81 -180 0 -99 0 0 c 0
46 0 m 0
 46 -48 71 -75 71 -75 c 1
 147 0 l 1
 71 75 l 1
 71 75 46 48 46 0 c 0
104 -108 m 1
 104 -108 132 -134 180 -134 c 0
 228 -134 256 -108 256 -108 c 1
 180 -33 l 1
 104 -108 l 1
104 108 m 1
 180 33 l 1
 256 108 l 1
 256 108 228 134 180 134 c 0
 132 134 104 108 104 108 c 1
213 0 m 1
 289 -75 l 1
 289 -75 314 -48 314 0 c 0
 314 48 289 75 289 75 c 1
 213 0 l 1
EndSplineSet
EndChar

StartChar: uniE0B4
Encoding: 57524 57524 168
Width: 400
Flags: MW
HStem: 0 10<10 190 10 200> 390 10<10 190 10 10>
VStem: 0 10<10 10 10 390> 190 10<10 390 390 390>
LayerCount: 2
Fore
SplineSet
0 0 m 1
 0 400 l 1
 200 400 l 1
 200 0 l 1
 0 0 l 1
10 10 m 1
 190 10 l 1
 190 390 l 1
 10 390 l 1
 10 10 l 1
EndSplineSet
EndChar

StartChar: uniE0B5
Encoding: 57525 57525 169
Width: 400
Flags: MW
HStem: 0 10<10 190 10 200> 390 10<10 190 10 10>
VStem: 0 10<10 10 10 390> 190 10<10 390 390 390>
LayerCount: 2
Fore
SplineSet
0 0 m 1
 0 400 l 1
 200 400 l 1
 200 0 l 1
 0 0 l 1
10 10 m 1
 190 10 l 1
 190 390 l 1
 10 390 l 1
 10 10 l 1
EndSplineSet
EndChar

StartChar: uniE0B6
Encoding: 57526 57526 170
Width: 400
Flags: MW
HStem: 0 10<10 190 10 200> 390 10<10 190 10 10>
VStem: 0 10<10 10 10 390> 190 10<10 390 390 390>
LayerCount: 2
Fore
SplineSet
0 0 m 1
 0 400 l 1
 200 400 l 1
 200 0 l 1
 0 0 l 1
10 10 m 1
 190 10 l 1
 190 390 l 1
 10 390 l 1
 10 10 l 1
EndSplineSet
EndChar

StartChar: uniE0B7
Encoding: 57527 57527 171
Width: 400
Flags: MW
HStem: 0 10<10 190 10 200> 390 10<10 190 10 10>
VStem: 0 10<10 10 10 390> 190 10<10 390 390 390>
LayerCount: 2
Fore
SplineSet
0 0 m 1
 0 400 l 1
 200 400 l 1
 200 0 l 1
 0 0 l 1
10 10 m 1
 190 10 l 1
 190 390 l 1
 10 390 l 1
 10 10 l 1
EndSplineSet
EndChar

StartChar: uniE0B8
Encoding: 57528 57528 172
Width: 400
Flags: MW
HStem: 0 10<10 190 10 200> 390 10<10 190 10 10>
VStem: 0 10<10 10 10 390> 190 10<10 390 390 390>
LayerCount: 2
Fore
SplineSet
0 0 m 1
 0 400 l 1
 200 400 l 1
 200 0 l 1
 0 0 l 1
10 10 m 1
 190 10 l 1
 190 390 l 1
 10 390 l 1
 10 10 l 1
EndSplineSet
EndChar

StartChar: uniE0B9
Encoding: 57529 57529 173
Width: 400
Flags: MW
HStem: 0 10<10 190 10 200> 390 10<10 190 10 10>
VStem: 0 10<10 10 10 390> 190 10<10 390 390 390>
LayerCount: 2
Fore
SplineSet
0 0 m 1
 0 400 l 1
 200 400 l 1
 200 0 l 1
 0 0 l 1
10 10 m 1
 190 10 l 1
 190 390 l 1
 10 390 l 1
 10 10 l 1
EndSplineSet
EndChar

StartChar: uniE0BA
Encoding: 57530 57530 174
Width: 676
Flags: MW
HStem: -113 25<303.5 372.5> 106 42<338 338>
VStem: 0 40<-157 157 -157 157> 68 40<-157 -143 -131 157> 568 40<-157 -143 -143 -143 -131 157 -157 157> 636 40<-157 157 -157 157>
LayerCount: 2
Fore
SplineSet
0 -157 m 1
 0 157 l 1
 0 157 0 177 20 177 c 0
 40 177 40 157 40 157 c 1
 40 -157 l 1
 40 -157 40 -177 20 -177 c 0
 0 -177 0 -157 0 -157 c 1
68 -157 m 1
 68 157 l 1
 68 157 68 177 88 177 c 0
 108 177 108 157 108 157 c 1
 108 -131 l 1
 111 -127 119 -120 139 -101 c 0
 172 -70 295 72 319 135 c 1
 319 135 324 148 338 148 c 0
 352 148 357 135 357 135 c 1
 381 72 504 -70 537 -101 c 0
 557 -120 565 -127 568 -131 c 1
 568 157 l 1
 568 157 568 177 588 177 c 0
 608 177 608 157 608 157 c 1
 608 -157 l 1
 608 -157 608 -177 588 -177 c 0
 568 -177 568 -157 568 -157 c 1
 568 -143 l 1
 565 -146 561 -148 554 -148 c 0
 540 -148 524 -144 502 -137 c 0
 480 -130 407 -113 338 -113 c 0
 269 -113 196 -130 174 -137 c 0
 152 -144 136 -148 122 -148 c 0
 115 -148 111 -146 108 -143 c 1
 108 -157 l 1
 108 -157 108 -177 88 -177 c 0
 68 -177 68 -157 68 -157 c 1
235 -96 m 1
 235 -96 262 -88 338 -88 c 0
 414 -88 441 -96 441 -96 c 1
 388 -6 365 37 338 106 c 1
 311 37 288 -6 235 -96 c 1
636 -157 m 1
 636 157 l 1
 636 157 636 177 656 177 c 0
 676 177 676 157 676 157 c 1
 676 -157 l 1
 676 -157 676 -177 656 -177 c 0
 636 -177 636 -157 636 -157 c 1
EndSplineSet
EndChar

StartChar: uniE0BB
Encoding: 57531 57531 175
Width: 464
Flags: MW
HStem: -113 25<197.5 266.5> 106 42<232 232>
LayerCount: 2
Fore
SplineSet
0 -137 m 0
 0 -132 0 -132 33 -101 c 0
 66 -70 189 72 213 135 c 1
 213 135 218 148 232 148 c 0
 246 148 251 135 251 135 c 1
 275 72 398 -70 431 -101 c 0
 464 -132 464 -132 464 -137 c 0
 464 -144 458 -148 448 -148 c 0
 434 -148 418 -144 396 -137 c 0
 374 -130 301 -113 232 -113 c 0
 163 -113 90 -130 68 -137 c 0
 46 -144 30 -148 16 -148 c 0
 6 -148 0 -144 0 -137 c 0
129 -96 m 1
 129 -96 156 -88 232 -88 c 0
 308 -88 335 -96 335 -96 c 1
 282 -6 259 37 232 106 c 1
 205 37 182 -6 129 -96 c 1
EndSplineSet
EndChar

StartChar: uniE0BC
Encoding: 57532 57532 176
Width: 322
Flags: MW
HStem: -113 45<166 185>
VStem: 0 322<-140.5 -134.5>
LayerCount: 2
Fore
SplineSet
0 -137 m 0
 0 -132 0 -132 23 -101 c 0
 46 -70 131 72 148 135 c 1
 148 135 151 148 161 148 c 0
 171 148 174 135 174 135 c 1
 191 72 276 -70 299 -101 c 0
 322 -132 322 -132 322 -137 c 0
 322 -144 318 -148 311 -148 c 0
 301 -148 290 -144 275 -137 c 0
 260 -130 209 -113 161 -113 c 0
 113 -113 62 -130 47 -137 c 0
 32 -144 21 -148 11 -148 c 0
 4 -148 0 -144 0 -137 c 0
60 -100 m 1
 60 -100 125 -68 207 -68 c 0
 229 -68 252 -72 252 -72 c 1
 229 -35 199 22 179 68 c 1
 166 43 91 -69 60 -100 c 1
EndSplineSet
EndChar

StartChar: uniE0BD
Encoding: 57533 57533 177
Width: 322
Flags: MW
HStem: -113 45<166 185>
VStem: 0 322<-140.5 -134.5>
LayerCount: 2
Fore
SplineSet
0 -137 m 0
 0 -132 0 -132 23 -101 c 0
 46 -70 131 72 148 135 c 1
 148 135 151 148 161 148 c 0
 171 148 174 135 174 135 c 1
 191 72 276 -70 299 -101 c 0
 322 -132 322 -132 322 -137 c 0
 322 -144 318 -148 311 -148 c 0
 301 -148 290 -144 275 -137 c 0
 260 -130 209 -113 161 -113 c 0
 113 -113 62 -130 47 -137 c 0
 32 -144 21 -148 11 -148 c 0
 4 -148 0 -144 0 -137 c 0
60 -100 m 1
 60 -100 125 -68 207 -68 c 0
 229 -68 252 -72 252 -72 c 1
 229 -35 199 22 179 68 c 1
 166 43 91 -69 60 -100 c 1
EndSplineSet
EndChar

StartChar: uniE0BE
Encoding: 57534 57534 178
Width: 322
Flags: MW
HStem: -148 296<7.5 166 156 314.5>
VStem: 0 322<-140.5 -134.5>
LayerCount: 2
Fore
SplineSet
0 -137 m 0
 0 -132 0 -132 23 -101 c 0
 46 -70 131 72 148 135 c 1
 148 135 151 148 161 148 c 0
 171 148 174 135 174 135 c 1
 191 72 276 -70 299 -101 c 0
 322 -132 322 -132 322 -137 c 0
 322 -144 318 -148 311 -148 c 0
 301 -148 290 -144 275 -137 c 0
 260 -130 209 -113 161 -113 c 0
 113 -113 62 -130 47 -137 c 0
 32 -144 21 -148 11 -148 c 0
 4 -148 0 -144 0 -137 c 0
EndSplineSet
EndChar

StartChar: uniE0BF
Encoding: 57535 57535 179
Width: 400
Flags: MW
HStem: 0 10<10 190 10 200> 390 10<10 190 10 10>
VStem: 0 10<10 10 10 390> 190 10<10 390 390 390>
LayerCount: 2
Fore
SplineSet
0 0 m 1
 0 400 l 1
 200 400 l 1
 200 0 l 1
 0 0 l 1
10 10 m 1
 190 10 l 1
 190 390 l 1
 10 390 l 1
 10 10 l 1
EndSplineSet
EndChar

StartChar: uniE0C0
Encoding: 57536 57536 180
Width: 400
Flags: MW
HStem: 0 10<10 190 10 200> 390 10<10 190 10 10>
VStem: 0 10<10 10 10 390> 190 10<10 390 390 390>
LayerCount: 2
Fore
SplineSet
0 0 m 1
 0 400 l 1
 200 400 l 1
 200 0 l 1
 0 0 l 1
10 10 m 1
 190 10 l 1
 190 390 l 1
 10 390 l 1
 10 10 l 1
EndSplineSet
EndChar

StartChar: uniE0C1
Encoding: 57537 57537 181
Width: 400
Flags: MW
HStem: 0 10<10 190 10 200> 390 10<10 190 10 10>
VStem: 0 10<10 10 10 390> 190 10<10 390 390 390>
LayerCount: 2
Fore
SplineSet
0 0 m 1
 0 400 l 1
 200 400 l 1
 200 0 l 1
 0 0 l 1
10 10 m 1
 190 10 l 1
 190 390 l 1
 10 390 l 1
 10 10 l 1
EndSplineSet
EndChar

StartChar: uniE0C2
Encoding: 57538 57538 182
Width: 400
Flags: MW
HStem: 0 10<10 190 10 200> 390 10<10 190 10 10>
VStem: 0 10<10 10 10 390> 190 10<10 390 390 390>
LayerCount: 2
Fore
SplineSet
0 0 m 1
 0 400 l 1
 200 400 l 1
 200 0 l 1
 0 0 l 1
10 10 m 1
 190 10 l 1
 190 390 l 1
 10 390 l 1
 10 10 l 1
EndSplineSet
EndChar

StartChar: uniE0C3
Encoding: 57539 57539 183
Width: 676
Flags: MW
HStem: -148 42<338 338> 88 25<303.5 372.5 303.5 376>
VStem: 0 40<-157 157 -157 157> 68 40<-157 131 143 157 -157 157 -157 157> 568 40<-157 131 131 131 143 157 -157 157> 636 40<-157 157 -157 157>
LayerCount: 2
Fore
SplineSet
0 -157 m 1
 0 157 l 1
 0 157 0 177 20 177 c 0
 40 177 40 157 40 157 c 1
 40 -157 l 1
 40 -157 40 -177 20 -177 c 0
 0 -177 0 -157 0 -157 c 1
68 -157 m 1
 68 157 l 1
 68 157 68 177 88 177 c 0
 108 177 108 157 108 157 c 1
 108 143 l 1
 111 146 115 148 122 148 c 0
 136 148 152 144 174 137 c 0
 196 130 269 113 338 113 c 0
 407 113 480 130 502 137 c 0
 524 144 540 148 554 148 c 0
 561 148 565 146 568 143 c 1
 568 157 l 1
 568 157 568 177 588 177 c 0
 608 177 608 157 608 157 c 1
 608 -157 l 1
 608 -157 608 -177 588 -177 c 0
 568 -177 568 -157 568 -157 c 1
 568 131 l 1
 565 127 557 120 537 101 c 0
 504 70 381 -72 357 -135 c 1
 357 -135 352 -148 338 -148 c 0
 324 -148 319 -135 319 -135 c 1
 295 -72 172 70 139 101 c 0
 119 120 111 127 108 131 c 1
 108 -157 l 1
 108 -157 108 -177 88 -177 c 0
 68 -177 68 -157 68 -157 c 1
235 96 m 1
 288 6 311 -37 338 -106 c 1
 365 -37 388 6 441 96 c 1
 441 96 414 88 338 88 c 0
 262 88 235 96 235 96 c 1
636 -157 m 1
 636 157 l 1
 636 157 636 177 656 177 c 0
 676 177 676 157 676 157 c 1
 676 -157 l 1
 676 -157 676 -177 656 -177 c 0
 636 -177 636 -157 636 -157 c 1
EndSplineSet
EndChar

StartChar: uniE0C4
Encoding: 57540 57540 184
Width: 464
Flags: MW
HStem: -148 42<232 232> 88 25<197.5 266.5 197.5 270>
LayerCount: 2
Fore
SplineSet
0 137 m 0
 0 144 6 148 16 148 c 0
 30 148 46 144 68 137 c 0
 90 130 163 113 232 113 c 0
 301 113 374 130 396 137 c 0
 418 144 434 148 448 148 c 0
 458 148 464 144 464 137 c 0
 464 132 464 132 431 101 c 0
 398 70 275 -72 251 -135 c 1
 251 -135 246 -148 232 -148 c 0
 218 -148 213 -135 213 -135 c 1
 189 -72 66 70 33 101 c 0
 0 132 0 132 0 137 c 0
129 96 m 1
 182 6 205 -37 232 -106 c 1
 259 -37 282 6 335 96 c 1
 335 96 308 88 232 88 c 0
 156 88 129 96 129 96 c 1
EndSplineSet
EndChar

StartChar: uniE0C5
Encoding: 57541 57541 185
Width: 322
Flags: MW
HStem: 68 45<166 185 137 218>
VStem: 0 322<134.5 140.5>
LayerCount: 2
Fore
SplineSet
0 137 m 0
 0 144 4 148 11 148 c 0
 21 148 32 144 47 137 c 0
 62 130 113 113 161 113 c 0
 209 113 260 130 275 137 c 0
 290 144 301 148 311 148 c 0
 318 148 322 144 322 137 c 0
 322 132 322 132 299 101 c 0
 276 70 191 -72 174 -135 c 1
 174 -135 171 -148 161 -148 c 0
 151 -148 148 -135 148 -135 c 1
 131 -72 46 70 23 101 c 0
 0 132 0 132 0 137 c 0
60 100 m 1
 91 69 166 -43 179 -68 c 1
 199 -22 229 35 252 72 c 1
 252 72 229 68 207 68 c 0
 125 68 60 100 60 100 c 1
EndSplineSet
EndChar

StartChar: uniE0C6
Encoding: 57542 57542 186
Width: 322
Flags: MW
HStem: 68 45<166 185 137 218>
VStem: 0 322<134.5 140.5>
LayerCount: 2
Fore
SplineSet
0 137 m 0
 0 144 4 148 11 148 c 0
 21 148 32 144 47 137 c 0
 62 130 113 113 161 113 c 0
 209 113 260 130 275 137 c 0
 290 144 301 148 311 148 c 0
 318 148 322 144 322 137 c 0
 322 132 322 132 299 101 c 0
 276 70 191 -72 174 -135 c 1
 174 -135 171 -148 161 -148 c 0
 151 -148 148 -135 148 -135 c 1
 131 -72 46 70 23 101 c 0
 0 132 0 132 0 137 c 0
60 100 m 1
 91 69 166 -43 179 -68 c 1
 199 -22 229 35 252 72 c 1
 252 72 229 68 207 68 c 0
 125 68 60 100 60 100 c 1
EndSplineSet
EndChar

StartChar: uniE0C7
Encoding: 57543 57543 187
Width: 322
Flags: MW
HStem: -148 296<7.5 166>
VStem: 0 322<134.5 140.5>
LayerCount: 2
Fore
SplineSet
0 137 m 0
 0 144 4 148 11 148 c 0
 21 148 32 144 47 137 c 0
 62 130 113 113 161 113 c 0
 209 113 260 130 275 137 c 0
 290 144 301 148 311 148 c 0
 318 148 322 144 322 137 c 0
 322 132 322 132 299 101 c 0
 276 70 191 -72 174 -135 c 1
 174 -135 171 -148 161 -148 c 0
 151 -148 148 -135 148 -135 c 1
 131 -72 46 70 23 101 c 0
 0 132 0 132 0 137 c 0
EndSplineSet
EndChar

StartChar: uniE0C8
Encoding: 57544 57544 188
Width: 400
Flags: MW
HStem: 0 10<10 190 10 200> 390 10<10 190 10 10>
VStem: 0 10<10 10 10 390> 190 10<10 390 390 390>
LayerCount: 2
Fore
SplineSet
0 0 m 1
 0 400 l 1
 200 400 l 1
 200 0 l 1
 0 0 l 1
10 10 m 1
 190 10 l 1
 190 390 l 1
 10 390 l 1
 10 10 l 1
EndSplineSet
EndChar

StartChar: uniE0C9
Encoding: 57545 57545 189
Width: 400
Flags: MW
HStem: 0 10<10 190 10 200> 390 10<10 190 10 10>
VStem: 0 10<10 10 10 390> 190 10<10 390 390 390>
LayerCount: 2
Fore
SplineSet
0 0 m 1
 0 400 l 1
 200 400 l 1
 200 0 l 1
 0 0 l 1
10 10 m 1
 190 10 l 1
 190 390 l 1
 10 390 l 1
 10 10 l 1
EndSplineSet
EndChar

StartChar: uniE0CA
Encoding: 57546 57546 190
Width: 400
Flags: MW
HStem: 0 10<10 190 10 200> 390 10<10 190 10 10>
VStem: 0 10<10 10 10 390> 190 10<10 390 390 390>
LayerCount: 2
Fore
SplineSet
0 0 m 1
 0 400 l 1
 200 400 l 1
 200 0 l 1
 0 0 l 1
10 10 m 1
 190 10 l 1
 190 390 l 1
 10 390 l 1
 10 10 l 1
EndSplineSet
EndChar

StartChar: uniE0CB
Encoding: 57547 57547 191
Width: 400
Flags: MW
HStem: 0 10<10 190 10 200> 390 10<10 190 10 10>
VStem: 0 10<10 10 10 390> 190 10<10 390 390 390>
LayerCount: 2
Fore
SplineSet
0 0 m 1
 0 400 l 1
 200 400 l 1
 200 0 l 1
 0 0 l 1
10 10 m 1
 190 10 l 1
 190 390 l 1
 10 390 l 1
 10 10 l 1
EndSplineSet
EndChar

StartChar: uniE0CC
Encoding: 57548 57548 192
Width: 400
Flags: MW
HStem: 0 10<10 190 10 200> 390 10<10 190 10 10>
VStem: 0 10<10 10 10 390> 190 10<10 390 390 390>
LayerCount: 2
Fore
SplineSet
0 0 m 1
 0 400 l 1
 200 400 l 1
 200 0 l 1
 0 0 l 1
10 10 m 1
 190 10 l 1
 190 390 l 1
 10 390 l 1
 10 10 l 1
EndSplineSet
EndChar

StartChar: uniE0CD
Encoding: 57549 57549 193
Width: 400
Flags: MW
HStem: 0 10<10 190 10 200> 390 10<10 190 10 10>
VStem: 0 10<10 10 10 390> 190 10<10 390 390 390>
LayerCount: 2
Fore
SplineSet
0 0 m 1
 0 400 l 1
 200 400 l 1
 200 0 l 1
 0 0 l 1
10 10 m 1
 190 10 l 1
 190 390 l 1
 10 390 l 1
 10 10 l 1
EndSplineSet
EndChar

StartChar: uniE0CE
Encoding: 57550 57550 194
Width: 400
Flags: MW
HStem: 0 10<10 190 10 200> 390 10<10 190 10 10>
VStem: 0 10<10 10 10 390> 190 10<10 390 390 390>
LayerCount: 2
Fore
SplineSet
0 0 m 1
 0 400 l 1
 200 400 l 1
 200 0 l 1
 0 0 l 1
10 10 m 1
 190 10 l 1
 190 390 l 1
 10 390 l 1
 10 10 l 1
EndSplineSet
EndChar

StartChar: uniE0CF
Encoding: 57551 57551 195
Width: 400
Flags: MW
HStem: 0 10<10 190 10 200> 390 10<10 190 10 10>
VStem: 0 10<10 10 10 390> 190 10<10 390 390 390>
LayerCount: 2
Fore
SplineSet
0 0 m 1
 0 400 l 1
 200 400 l 1
 200 0 l 1
 0 0 l 1
10 10 m 1
 190 10 l 1
 190 390 l 1
 10 390 l 1
 10 10 l 1
EndSplineSet
EndChar

StartChar: uniE0D0
Encoding: 57552 57552 196
Width: 400
Flags: MW
HStem: 0 10<10 190 10 200> 390 10<10 190 10 10>
VStem: 0 10<10 10 10 390> 190 10<10 390 390 390>
LayerCount: 2
Fore
SplineSet
0 0 m 1
 0 400 l 1
 200 400 l 1
 200 0 l 1
 0 0 l 1
10 10 m 1
 190 10 l 1
 190 390 l 1
 10 390 l 1
 10 10 l 1
EndSplineSet
EndChar

StartChar: uniE0D1
Encoding: 57553 57553 197
Width: 400
Flags: MW
HStem: 0 10<10 190 10 200> 390 10<10 190 10 10>
VStem: 0 10<10 10 10 390> 190 10<10 390 390 390>
LayerCount: 2
Fore
SplineSet
0 0 m 1
 0 400 l 1
 200 400 l 1
 200 0 l 1
 0 0 l 1
10 10 m 1
 190 10 l 1
 190 390 l 1
 10 390 l 1
 10 10 l 1
EndSplineSet
EndChar

StartChar: uniE0D2
Encoding: 57554 57554 198
Width: 400
Flags: MW
HStem: 0 10<10 190 10 200> 390 10<10 190 10 10>
VStem: 0 10<10 10 10 390> 190 10<10 390 390 390>
LayerCount: 2
Fore
SplineSet
0 0 m 1
 0 400 l 1
 200 400 l 1
 200 0 l 1
 0 0 l 1
10 10 m 1
 190 10 l 1
 190 390 l 1
 10 390 l 1
 10 10 l 1
EndSplineSet
EndChar

StartChar: uniE0D3
Encoding: 57555 57555 199
Width: 400
Flags: MW
HStem: 0 10<10 190 10 200> 390 10<10 190 10 10>
VStem: 0 10<10 10 10 390> 190 10<10 390 390 390>
LayerCount: 2
Fore
SplineSet
0 0 m 1
 0 400 l 1
 200 400 l 1
 200 0 l 1
 0 0 l 1
10 10 m 1
 190 10 l 1
 190 390 l 1
 10 390 l 1
 10 10 l 1
EndSplineSet
EndChar

StartChar: uniE0D4
Encoding: 57556 57556 200
Width: 400
Flags: MW
HStem: 0 10<10 190 10 200> 390 10<10 190 10 10>
VStem: 0 10<10 10 10 390> 190 10<10 390 390 390>
LayerCount: 2
Fore
SplineSet
0 0 m 1
 0 400 l 1
 200 400 l 1
 200 0 l 1
 0 0 l 1
10 10 m 1
 190 10 l 1
 190 390 l 1
 10 390 l 1
 10 10 l 1
EndSplineSet
EndChar

StartChar: uniE0D5
Encoding: 57557 57557 201
Width: 400
Flags: MW
HStem: 0 10<10 190 10 200> 390 10<10 190 10 10>
VStem: 0 10<10 10 10 390> 190 10<10 390 390 390>
LayerCount: 2
Fore
SplineSet
0 0 m 1
 0 400 l 1
 200 400 l 1
 200 0 l 1
 0 0 l 1
10 10 m 1
 190 10 l 1
 190 390 l 1
 10 390 l 1
 10 10 l 1
EndSplineSet
EndChar

StartChar: uniE0D6
Encoding: 57558 57558 202
Width: 400
Flags: MW
HStem: 0 10<10 190 10 200> 390 10<10 190 10 10>
VStem: 0 10<10 10 10 390> 190 10<10 390 390 390>
LayerCount: 2
Fore
SplineSet
0 0 m 1
 0 400 l 1
 200 400 l 1
 200 0 l 1
 0 0 l 1
10 10 m 1
 190 10 l 1
 190 390 l 1
 10 390 l 1
 10 10 l 1
EndSplineSet
EndChar

StartChar: uniE0D7
Encoding: 57559 57559 203
Width: 400
Flags: MW
HStem: 0 10<10 190 10 200> 390 10<10 190 10 10>
VStem: 0 10<10 10 10 390> 190 10<10 390 390 390>
LayerCount: 2
Fore
SplineSet
0 0 m 1
 0 400 l 1
 200 400 l 1
 200 0 l 1
 0 0 l 1
10 10 m 1
 190 10 l 1
 190 390 l 1
 10 390 l 1
 10 10 l 1
EndSplineSet
EndChar

StartChar: uniE0D8
Encoding: 57560 57560 204
Width: 462
Flags: MW
HStem: -139 35<231 231> 104 35<231 231>
VStem: 0 114<0 0> 348 114<0 0>
LayerCount: 2
Fore
SplineSet
0 0 m 0
 0 7 6 11 56 25 c 0
 106 39 167 76 211 128 c 0
 218 137 222 139 231 139 c 0
 240 139 244 137 251 128 c 0
 295 76 356 39 406 25 c 0
 456 11 462 7 462 0 c 0
 462 -7 456 -11 406 -25 c 0
 356 -39 295 -76 251 -128 c 0
 244 -137 240 -139 231 -139 c 0
 222 -139 218 -137 211 -128 c 0
 167 -76 106 -39 56 -25 c 0
 6 -11 0 -7 0 0 c 0
114 0 m 1
 161 -28 199 -61 231 -104 c 1
 263 -61 301 -28 348 0 c 1
 301 28 263 61 231 104 c 1
 199 61 161 28 114 0 c 1
EndSplineSet
EndChar

StartChar: uniE0D9
Encoding: 57561 57561 205
Width: 322
Flags: MW
HStem: -139 278<158 164>
VStem: 0 322<-3.5 3.5>
LayerCount: 2
Fore
SplineSet
0 0 m 0
 0 7 4 11 39 25 c 0
 74 39 116 76 147 128 c 0
 152 137 155 139 161 139 c 0
 167 139 170 137 175 128 c 0
 206 76 248 39 283 25 c 0
 318 11 322 7 322 0 c 0
 322 -7 318 -11 283 -25 c 0
 248 -39 206 -76 175 -128 c 0
 170 -137 167 -139 161 -139 c 0
 155 -139 152 -137 147 -128 c 0
 116 -76 74 -39 39 -25 c 0
 4 -11 0 -7 0 0 c 0
66 -12 m 1
 96 -32 130 -55 150 -85 c 1
 160 -62 233 2 256 12 c 1
 226 32 192 55 172 85 c 1
 162 62 89 -2 66 -12 c 1
EndSplineSet
EndChar

StartChar: uniE0DA
Encoding: 57562 57562 206
Width: 462
Flags: MW
HStem: -139 35<231 231> 104 35<231 231>
VStem: 0 114<0 0> 348 114<0 0>
LayerCount: 2
Fore
SplineSet
0 0 m 0
 0 7 6 11 56 25 c 0
 106 39 167 76 211 128 c 0
 218 137 222 139 231 139 c 0
 240 139 244 137 251 128 c 0
 295 76 356 39 406 25 c 0
 456 11 462 7 462 0 c 0
 462 -7 456 -11 406 -25 c 0
 356 -39 295 -76 251 -128 c 0
 244 -137 240 -139 231 -139 c 0
 222 -139 218 -137 211 -128 c 0
 167 -76 106 -39 56 -25 c 0
 6 -11 0 -7 0 0 c 0
114 0 m 1
 161 -28 199 -61 231 -104 c 1
 263 -61 301 -28 348 0 c 1
 301 28 263 61 231 104 c 1
 199 61 161 28 114 0 c 1
EndSplineSet
EndChar

StartChar: uniE0DB
Encoding: 57563 57563 207
Width: 322
Flags: MW
HStem: -139 278<158 164>
VStem: 0 322<-3.5 3.5>
LayerCount: 2
Fore
SplineSet
0 0 m 0
 0 7 4 11 39 25 c 0
 74 39 116 76 147 128 c 0
 152 137 155 139 161 139 c 0
 167 139 170 137 175 128 c 0
 206 76 248 39 283 25 c 0
 318 11 322 7 322 0 c 0
 322 -7 318 -11 283 -25 c 0
 248 -39 206 -76 175 -128 c 0
 170 -137 167 -139 161 -139 c 0
 155 -139 152 -137 147 -128 c 0
 116 -76 74 -39 39 -25 c 0
 4 -11 0 -7 0 0 c 0
EndSplineSet
EndChar

StartChar: uniE0DC
Encoding: 57564 57564 208
Width: 462
Flags: MW
HStem: -139 278<226.5 235.5>
LayerCount: 2
Fore
SplineSet
0 0 m 0
 0 7 6 11 56 25 c 0
 106 39 167 76 211 128 c 0
 218 137 222 139 231 139 c 0
 240 139 244 137 251 128 c 0
 295 76 356 39 406 25 c 0
 456 11 462 7 462 0 c 0
 462 -7 456 -11 406 -25 c 0
 356 -39 295 -76 251 -128 c 0
 244 -137 240 -139 231 -139 c 0
 222 -139 218 -137 211 -128 c 0
 167 -76 106 -39 56 -25 c 0
 6 -11 0 -7 0 0 c 0
EndSplineSet
EndChar

StartChar: uniE0DD
Encoding: 57565 57565 209
Width: 322
Flags: MW
HStem: -139 278<158 164>
VStem: 0 322<-3.5 3.5>
LayerCount: 2
Fore
SplineSet
0 0 m 0
 0 7 4 11 39 25 c 0
 74 39 116 76 147 128 c 0
 152 137 155 139 161 139 c 0
 167 139 170 137 175 128 c 0
 206 76 248 39 283 25 c 0
 318 11 322 7 322 0 c 0
 322 -7 318 -11 283 -25 c 0
 248 -39 206 -76 175 -128 c 0
 170 -137 167 -139 161 -139 c 0
 155 -139 152 -137 147 -128 c 0
 116 -76 74 -39 39 -25 c 0
 4 -11 0 -7 0 0 c 0
66 -12 m 1
 96 -32 130 -55 150 -85 c 1
 160 -62 233 2 256 12 c 1
 226 32 192 55 172 85 c 1
 162 62 89 -2 66 -12 c 1
EndSplineSet
EndChar

StartChar: uniE0DE
Encoding: 57566 57566 210
Width: 462
Flags: MW
HStem: -139 35<231 231> 104 35<231 231>
VStem: 0 114<0 0> 348 114<0 0>
LayerCount: 2
Fore
SplineSet
0 0 m 0
 0 7 6 11 56 25 c 0
 106 39 167 76 211 128 c 0
 218 137 222 139 231 139 c 0
 240 139 244 137 251 128 c 0
 295 76 356 39 406 25 c 0
 456 11 462 7 462 0 c 0
 462 -7 456 -11 406 -25 c 0
 356 -39 295 -76 251 -128 c 0
 244 -137 240 -139 231 -139 c 0
 222 -139 218 -137 211 -128 c 0
 167 -76 106 -39 56 -25 c 0
 6 -11 0 -7 0 0 c 0
114 0 m 1
 161 -28 199 -61 231 -104 c 1
 263 -61 301 -28 348 0 c 1
 301 28 263 61 231 104 c 1
 199 61 161 28 114 0 c 1
EndSplineSet
EndChar

StartChar: uniE0DF
Encoding: 57567 57567 211
Width: 400
Flags: MW
HStem: 0 10<10 190 10 200> 390 10<10 190 10 10>
VStem: 0 10<10 10 10 390> 190 10<10 390 390 390>
LayerCount: 2
Fore
SplineSet
0 0 m 1
 0 400 l 1
 200 400 l 1
 200 0 l 1
 0 0 l 1
10 10 m 1
 190 10 l 1
 190 390 l 1
 10 390 l 1
 10 10 l 1
EndSplineSet
EndChar

StartChar: uniE0E0
Encoding: 57568 57568 212
Width: 462
Flags: MW
HStem: -139 35<231 231> 104 35<231 231>
VStem: 0 114<0 0> 348 114<0 0>
LayerCount: 2
Fore
SplineSet
0 0 m 0
 0 7 6 11 56 25 c 0
 106 39 167 76 211 128 c 0
 218 137 222 139 231 139 c 0
 240 139 244 137 251 128 c 0
 295 76 356 39 406 25 c 0
 456 11 462 7 462 0 c 0
 462 -7 456 -11 406 -25 c 0
 356 -39 295 -76 251 -128 c 0
 244 -137 240 -139 231 -139 c 0
 222 -139 218 -137 211 -128 c 0
 167 -76 106 -39 56 -25 c 0
 6 -11 0 -7 0 0 c 0
114 0 m 1
 161 -28 199 -61 231 -104 c 1
 263 -61 301 -28 348 0 c 1
 301 28 263 61 231 104 c 1
 199 61 161 28 114 0 c 1
EndSplineSet
EndChar

StartChar: uniE0E1
Encoding: 57569 57569 213
Width: 322
Flags: MW
HStem: -139 278<158 164>
VStem: 0 322<-3.5 3.5>
LayerCount: 2
Fore
SplineSet
0 0 m 0
 0 7 4 11 39 25 c 0
 74 39 116 76 147 128 c 0
 152 137 155 139 161 139 c 0
 167 139 170 137 175 128 c 0
 206 76 248 39 283 25 c 0
 318 11 322 7 322 0 c 0
 322 -7 318 -11 283 -25 c 0
 248 -39 206 -76 175 -128 c 0
 170 -137 167 -139 161 -139 c 0
 155 -139 152 -137 147 -128 c 0
 116 -76 74 -39 39 -25 c 0
 4 -11 0 -7 0 0 c 0
66 -12 m 1
 96 -32 130 -55 150 -85 c 1
 160 -62 233 2 256 12 c 1
 226 32 192 55 172 85 c 1
 162 62 89 -2 66 -12 c 1
EndSplineSet
EndChar

StartChar: uniE0E2
Encoding: 57570 57570 214
Width: 322
Flags: MW
HStem: -139 278<158 164>
VStem: 0 322<-3.5 3.5>
LayerCount: 2
Fore
SplineSet
0 0 m 0
 0 7 4 11 39 25 c 0
 74 39 116 76 147 128 c 0
 152 137 155 139 161 139 c 0
 167 139 170 137 175 128 c 0
 206 76 248 39 283 25 c 0
 318 11 322 7 322 0 c 0
 322 -7 318 -11 283 -25 c 0
 248 -39 206 -76 175 -128 c 0
 170 -137 167 -139 161 -139 c 0
 155 -139 152 -137 147 -128 c 0
 116 -76 74 -39 39 -25 c 0
 4 -11 0 -7 0 0 c 0
EndSplineSet
EndChar

StartChar: uniE0E3
Encoding: 57571 57571 215
Width: 400
Flags: MW
HStem: 0 10<10 190 10 200> 390 10<10 190 10 10>
VStem: 0 10<10 10 10 390> 190 10<10 390 390 390>
LayerCount: 2
Fore
SplineSet
0 0 m 1
 0 400 l 1
 200 400 l 1
 200 0 l 1
 0 0 l 1
10 10 m 1
 190 10 l 1
 190 390 l 1
 10 390 l 1
 10 10 l 1
EndSplineSet
EndChar

StartChar: uniE0E4
Encoding: 57572 57572 216
Width: 400
Flags: MW
HStem: 0 10<10 190 10 200> 390 10<10 190 10 10>
VStem: 0 10<10 10 10 390> 190 10<10 390 390 390>
LayerCount: 2
Fore
SplineSet
0 0 m 1
 0 400 l 1
 200 400 l 1
 200 0 l 1
 0 0 l 1
10 10 m 1
 190 10 l 1
 190 390 l 1
 10 390 l 1
 10 10 l 1
EndSplineSet
EndChar

StartChar: uniE0E5
Encoding: 57573 57573 217
Width: 400
Flags: MW
HStem: 0 10<10 190 10 200> 390 10<10 190 10 10>
VStem: 0 10<10 10 10 390> 190 10<10 390 390 390>
LayerCount: 2
Fore
SplineSet
0 0 m 1
 0 400 l 1
 200 400 l 1
 200 0 l 1
 0 0 l 1
10 10 m 1
 190 10 l 1
 190 390 l 1
 10 390 l 1
 10 10 l 1
EndSplineSet
EndChar

StartChar: uniE0E6
Encoding: 57574 57574 218
Width: 400
Flags: MW
HStem: 0 10<10 190 10 200> 390 10<10 190 10 10>
VStem: 0 10<10 10 10 390> 190 10<10 390 390 390>
LayerCount: 2
Fore
SplineSet
0 0 m 1
 0 400 l 1
 200 400 l 1
 200 0 l 1
 0 0 l 1
10 10 m 1
 190 10 l 1
 190 390 l 1
 10 390 l 1
 10 10 l 1
EndSplineSet
EndChar

StartChar: uniE0E7
Encoding: 57575 57575 219
Width: 400
Flags: MW
HStem: 0 10<10 190 10 200> 390 10<10 190 10 10>
VStem: 0 10<10 10 10 390> 190 10<10 390 390 390>
LayerCount: 2
Fore
SplineSet
0 0 m 1
 0 400 l 1
 200 400 l 1
 200 0 l 1
 0 0 l 1
10 10 m 1
 190 10 l 1
 190 390 l 1
 10 390 l 1
 10 10 l 1
EndSplineSet
EndChar

StartChar: uniE0E8
Encoding: 57576 57576 220
Width: 400
Flags: MW
HStem: 0 10<10 190 10 200> 390 10<10 190 10 10>
VStem: 0 10<10 10 10 390> 190 10<10 390 390 390>
LayerCount: 2
Fore
SplineSet
0 0 m 1
 0 400 l 1
 200 400 l 1
 200 0 l 1
 0 0 l 1
10 10 m 1
 190 10 l 1
 190 390 l 1
 10 390 l 1
 10 10 l 1
EndSplineSet
EndChar

StartChar: uniE0E9
Encoding: 57577 57577 221
Width: 400
Flags: MW
HStem: 0 10<10 190 10 200> 390 10<10 190 10 10>
VStem: 0 10<10 10 10 390> 190 10<10 390 390 390>
LayerCount: 2
Fore
SplineSet
0 0 m 1
 0 400 l 1
 200 400 l 1
 200 0 l 1
 0 0 l 1
10 10 m 1
 190 10 l 1
 190 390 l 1
 10 390 l 1
 10 10 l 1
EndSplineSet
EndChar

StartChar: uniE0EA
Encoding: 57578 57578 222
Width: 400
Flags: MW
HStem: 0 10<10 190 10 200> 390 10<10 190 10 10>
VStem: 0 10<10 10 10 390> 190 10<10 390 390 390>
LayerCount: 2
Fore
SplineSet
0 0 m 1
 0 400 l 1
 200 400 l 1
 200 0 l 1
 0 0 l 1
10 10 m 1
 190 10 l 1
 190 390 l 1
 10 390 l 1
 10 10 l 1
EndSplineSet
EndChar

StartChar: uniE0EB
Encoding: 57579 57579 223
Width: 400
Flags: MW
HStem: 0 10<10 190 10 200> 390 10<10 190 10 10>
VStem: 0 10<10 10 10 390> 190 10<10 390 390 390>
LayerCount: 2
Fore
SplineSet
0 0 m 1
 0 400 l 1
 200 400 l 1
 200 0 l 1
 0 0 l 1
10 10 m 1
 190 10 l 1
 190 390 l 1
 10 390 l 1
 10 10 l 1
EndSplineSet
EndChar

StartChar: uniE0EC
Encoding: 57580 57580 224
Width: 400
Flags: MW
HStem: 0 10<10 190 10 200> 390 10<10 190 10 10>
VStem: 0 10<10 10 10 390> 190 10<10 390 390 390>
LayerCount: 2
Fore
SplineSet
0 0 m 1
 0 400 l 1
 200 400 l 1
 200 0 l 1
 0 0 l 1
10 10 m 1
 190 10 l 1
 190 390 l 1
 10 390 l 1
 10 10 l 1
EndSplineSet
EndChar

StartChar: uniE0ED
Encoding: 57581 57581 225
Width: 400
Flags: MW
HStem: 0 10<10 190 10 200> 390 10<10 190 10 10>
VStem: 0 10<10 10 10 390> 190 10<10 390 390 390>
LayerCount: 2
Fore
SplineSet
0 0 m 1
 0 400 l 1
 200 400 l 1
 200 0 l 1
 0 0 l 1
10 10 m 1
 190 10 l 1
 190 390 l 1
 10 390 l 1
 10 10 l 1
EndSplineSet
EndChar

StartChar: uniE0EE
Encoding: 57582 57582 226
Width: 400
Flags: MW
HStem: 0 10<10 190 10 200> 390 10<10 190 10 10>
VStem: 0 10<10 10 10 390> 190 10<10 390 390 390>
LayerCount: 2
Fore
SplineSet
0 0 m 1
 0 400 l 1
 200 400 l 1
 200 0 l 1
 0 0 l 1
10 10 m 1
 190 10 l 1
 190 390 l 1
 10 390 l 1
 10 10 l 1
EndSplineSet
EndChar

StartChar: uniE0EF
Encoding: 57583 57583 227
Width: 400
Flags: MW
HStem: 0 10<10 190 10 200> 390 10<10 190 10 10>
VStem: 0 10<10 10 10 390> 190 10<10 390 390 390>
LayerCount: 2
Fore
SplineSet
0 0 m 1
 0 400 l 1
 200 400 l 1
 200 0 l 1
 0 0 l 1
10 10 m 1
 190 10 l 1
 190 390 l 1
 10 390 l 1
 10 10 l 1
EndSplineSet
EndChar

StartChar: uniE0F0
Encoding: 57584 57584 228
Width: 400
Flags: MW
HStem: 0 10<10 190 10 200> 390 10<10 190 10 10>
VStem: 0 10<10 10 10 390> 190 10<10 390 390 390>
LayerCount: 2
Fore
SplineSet
0 0 m 1
 0 400 l 1
 200 400 l 1
 200 0 l 1
 0 0 l 1
10 10 m 1
 190 10 l 1
 190 390 l 1
 10 390 l 1
 10 10 l 1
EndSplineSet
EndChar

StartChar: uniE0F1
Encoding: 57585 57585 229
Width: 400
Flags: MW
HStem: 0 10<10 190 10 200> 390 10<10 190 10 10>
VStem: 0 10<10 10 10 390> 190 10<10 390 390 390>
LayerCount: 2
Fore
SplineSet
0 0 m 1
 0 400 l 1
 200 400 l 1
 200 0 l 1
 0 0 l 1
10 10 m 1
 190 10 l 1
 190 390 l 1
 10 390 l 1
 10 10 l 1
EndSplineSet
EndChar

StartChar: uniE0F2
Encoding: 57586 57586 230
Width: 400
Flags: MW
HStem: 0 10<10 190 10 200> 390 10<10 190 10 10>
VStem: 0 10<10 10 10 390> 190 10<10 390 390 390>
LayerCount: 2
Fore
SplineSet
0 0 m 1
 0 400 l 1
 200 400 l 1
 200 0 l 1
 0 0 l 1
10 10 m 1
 190 10 l 1
 190 390 l 1
 10 390 l 1
 10 10 l 1
EndSplineSet
EndChar

StartChar: uniE0F3
Encoding: 57587 57587 231
Width: 400
Flags: MW
HStem: 0 10<10 190 10 200> 390 10<10 190 10 10>
VStem: 0 10<10 10 10 390> 190 10<10 390 390 390>
LayerCount: 2
Fore
SplineSet
0 0 m 1
 0 400 l 1
 200 400 l 1
 200 0 l 1
 0 0 l 1
10 10 m 1
 190 10 l 1
 190 390 l 1
 10 390 l 1
 10 10 l 1
EndSplineSet
EndChar

StartChar: uniE0F4
Encoding: 57588 57588 232
Width: 400
Flags: MW
HStem: 0 10<10 190 10 200> 390 10<10 190 10 10>
VStem: 0 10<10 10 10 390> 190 10<10 390 390 390>
LayerCount: 2
Fore
SplineSet
0 0 m 1
 0 400 l 1
 200 400 l 1
 200 0 l 1
 0 0 l 1
10 10 m 1
 190 10 l 1
 190 390 l 1
 10 390 l 1
 10 10 l 1
EndSplineSet
EndChar

StartChar: uniE0F5
Encoding: 57589 57589 233
Width: 400
Flags: MW
HStem: 0 10<10 190 10 200> 390 10<10 190 10 10>
VStem: 0 10<10 10 10 390> 190 10<10 390 390 390>
LayerCount: 2
Fore
SplineSet
0 0 m 1
 0 400 l 1
 200 400 l 1
 200 0 l 1
 0 0 l 1
10 10 m 1
 190 10 l 1
 190 390 l 1
 10 390 l 1
 10 10 l 1
EndSplineSet
EndChar

StartChar: uniE0F6
Encoding: 57590 57590 234
Width: 400
Flags: MW
HStem: 0 10<10 190 10 200> 390 10<10 190 10 10>
VStem: 0 10<10 10 10 390> 190 10<10 390 390 390>
LayerCount: 2
Fore
SplineSet
0 0 m 1
 0 400 l 1
 200 400 l 1
 200 0 l 1
 0 0 l 1
10 10 m 1
 190 10 l 1
 190 390 l 1
 10 390 l 1
 10 10 l 1
EndSplineSet
EndChar

StartChar: uniE0F7
Encoding: 57591 57591 235
Width: 400
Flags: MW
HStem: 0 10<10 190 10 200> 390 10<10 190 10 10>
VStem: 0 10<10 10 10 390> 190 10<10 390 390 390>
LayerCount: 2
Fore
SplineSet
0 0 m 1
 0 400 l 1
 200 400 l 1
 200 0 l 1
 0 0 l 1
10 10 m 1
 190 10 l 1
 190 390 l 1
 10 390 l 1
 10 10 l 1
EndSplineSet
EndChar

StartChar: uniE0F8
Encoding: 57592 57592 236
Width: 400
Flags: MW
HStem: 0 10<10 190 10 200> 390 10<10 190 10 10>
VStem: 0 10<10 10 10 390> 190 10<10 390 390 390>
LayerCount: 2
Fore
SplineSet
0 0 m 1
 0 400 l 1
 200 400 l 1
 200 0 l 1
 0 0 l 1
10 10 m 1
 190 10 l 1
 190 390 l 1
 10 390 l 1
 10 10 l 1
EndSplineSet
EndChar

StartChar: uniE0F9
Encoding: 57593 57593 237
Width: 400
Flags: MW
HStem: 0 10<10 190 10 200> 390 10<10 190 10 10>
VStem: 0 10<10 10 10 390> 190 10<10 390 390 390>
LayerCount: 2
Fore
SplineSet
0 0 m 1
 0 400 l 1
 200 400 l 1
 200 0 l 1
 0 0 l 1
10 10 m 1
 190 10 l 1
 190 390 l 1
 10 390 l 1
 10 10 l 1
EndSplineSet
EndChar

StartChar: uniE0FA
Encoding: 57594 57594 238
Width: 400
Flags: MW
HStem: 0 10<10 190 10 200> 390 10<10 190 10 10>
VStem: 0 10<10 10 10 390> 190 10<10 390 390 390>
LayerCount: 2
Fore
SplineSet
0 0 m 1
 0 400 l 1
 200 400 l 1
 200 0 l 1
 0 0 l 1
10 10 m 1
 190 10 l 1
 190 390 l 1
 10 390 l 1
 10 10 l 1
EndSplineSet
EndChar

StartChar: uniE0FB
Encoding: 57595 57595 239
Width: 400
Flags: MW
HStem: 0 10<10 190 10 200> 390 10<10 190 10 10>
VStem: 0 10<10 10 10 390> 190 10<10 390 390 390>
LayerCount: 2
Fore
SplineSet
0 0 m 1
 0 400 l 1
 200 400 l 1
 200 0 l 1
 0 0 l 1
10 10 m 1
 190 10 l 1
 190 390 l 1
 10 390 l 1
 10 10 l 1
EndSplineSet
EndChar

StartChar: uniE0FC
Encoding: 57596 57596 240
Width: 400
Flags: MW
HStem: 0 10<10 190 10 200> 390 10<10 190 10 10>
VStem: 0 10<10 10 10 390> 190 10<10 390 390 390>
LayerCount: 2
Fore
SplineSet
0 0 m 1
 0 400 l 1
 200 400 l 1
 200 0 l 1
 0 0 l 1
10 10 m 1
 190 10 l 1
 190 390 l 1
 10 390 l 1
 10 10 l 1
EndSplineSet
EndChar

StartChar: uniE100
Encoding: 57600 57600 241
Width: 400
Flags: MW
HStem: 0 10<10 190 10 200> 390 10<10 190 10 10>
VStem: 0 10<10 10 10 390> 190 10<10 390 390 390>
LayerCount: 2
Fore
SplineSet
0 0 m 1
 0 400 l 1
 200 400 l 1
 200 0 l 1
 0 0 l 1
10 10 m 1
 190 10 l 1
 190 390 l 1
 10 390 l 1
 10 10 l 1
EndSplineSet
EndChar

StartChar: uniE101
Encoding: 57601 57601 242
Width: 212
Flags: MW
VStem: 0 212
LayerCount: 2
Fore
SplineSet
0 -224 m 0
 0 -218 79 170 90 224 c 0
 93 237 99 246 109 246 c 2
 196 246 l 2
 206 246 212 235 212 224 c 0
 212 218 133 -170 122 -224 c 0
 119 -237 113 -246 103 -246 c 2
 16 -246 l 2
 6 -246 0 -235 0 -224 c 0
EndSplineSet
EndChar

StartChar: uniE102
Encoding: 57602 57602 243
Width: 400
Flags: MW
HStem: -246 46<11 268 51 268 51 291> 200 46<132 349 132 132>
LayerCount: 2
Fore
SplineSet
0 -224 m 0
 0 -218 79 170 90 224 c 0
 93 237 99 246 109 246 c 2
 384 246 l 2
 394 246 400 235 400 224 c 0
 400 218 321 -170 310 -224 c 0
 307 -237 301 -246 291 -246 c 2
 16 -246 l 2
 6 -246 0 -235 0 -224 c 0
51 -200 m 1
 268 -200 l 1
 349 200 l 1
 132 200 l 1
 51 -200 l 1
EndSplineSet
EndChar

StartChar: uniE103
Encoding: 57603 57603 244
Width: 286
Flags: MW
HStem: -246 46<11 154 51 154 51 177> 200 46<132 235 132 132>
VStem: 0 286
LayerCount: 2
Fore
SplineSet
0 -224 m 0
 0 -218 79 170 90 224 c 0
 93 237 99 246 109 246 c 2
 270 246 l 2
 280 246 286 235 286 224 c 0
 286 218 207 -170 196 -224 c 0
 193 -237 187 -246 177 -246 c 2
 16 -246 l 2
 6 -246 0 -235 0 -224 c 0
51 -200 m 1
 154 -200 l 1
 235 200 l 1
 132 200 l 1
 51 -200 l 1
EndSplineSet
EndChar

StartChar: uniE104
Encoding: 57604 57604 245
Width: 400
Flags: MW
HStem: 0 10<10 190 10 200> 390 10<10 190 10 10>
VStem: 0 10<10 10 10 390> 190 10<10 390 390 390>
LayerCount: 2
Fore
SplineSet
0 0 m 1
 0 400 l 1
 200 400 l 1
 200 0 l 1
 0 0 l 1
10 10 m 1
 190 10 l 1
 190 390 l 1
 10 390 l 1
 10 10 l 1
EndSplineSet
EndChar

StartChar: uniE105
Encoding: 57605 57605 246
Width: 400
Flags: MW
HStem: 0 10<10 190 10 200> 390 10<10 190 10 10>
VStem: 0 10<10 10 10 390> 190 10<10 390 390 390>
LayerCount: 2
Fore
SplineSet
0 0 m 1
 0 400 l 1
 200 400 l 1
 200 0 l 1
 0 0 l 1
10 10 m 1
 190 10 l 1
 190 390 l 1
 10 390 l 1
 10 10 l 1
EndSplineSet
EndChar

StartChar: uniE106
Encoding: 57606 57606 247
Width: 400
Flags: MW
HStem: 0 10<10 190 10 200> 390 10<10 190 10 10>
VStem: 0 10<10 10 10 390> 190 10<10 390 390 390>
LayerCount: 2
Fore
SplineSet
0 0 m 1
 0 400 l 1
 200 400 l 1
 200 0 l 1
 0 0 l 1
10 10 m 1
 190 10 l 1
 190 390 l 1
 10 390 l 1
 10 10 l 1
EndSplineSet
EndChar

StartChar: uniE107
Encoding: 57607 57607 248
Width: 400
Flags: MW
HStem: 0 10<10 190 10 200> 390 10<10 190 10 10>
VStem: 0 10<10 10 10 390> 190 10<10 390 390 390>
LayerCount: 2
Fore
SplineSet
0 0 m 1
 0 400 l 1
 200 400 l 1
 200 0 l 1
 0 0 l 1
10 10 m 1
 190 10 l 1
 190 390 l 1
 10 390 l 1
 10 10 l 1
EndSplineSet
EndChar

StartChar: uniE108
Encoding: 57608 57608 249
Width: 400
Flags: MW
HStem: 0 10<10 190 10 200> 390 10<10 190 10 10>
VStem: 0 10<10 10 10 390> 190 10<10 390 390 390>
LayerCount: 2
Fore
SplineSet
0 0 m 1
 0 400 l 1
 200 400 l 1
 200 0 l 1
 0 0 l 1
10 10 m 1
 190 10 l 1
 190 390 l 1
 10 390 l 1
 10 10 l 1
EndSplineSet
EndChar

StartChar: uniE109
Encoding: 57609 57609 250
Width: 400
Flags: MW
HStem: 0 10<10 190 10 200> 390 10<10 190 10 10>
VStem: 0 10<10 10 10 390> 190 10<10 390 390 390>
LayerCount: 2
Fore
SplineSet
0 0 m 1
 0 400 l 1
 200 400 l 1
 200 0 l 1
 0 0 l 1
10 10 m 1
 190 10 l 1
 190 390 l 1
 10 390 l 1
 10 10 l 1
EndSplineSet
EndChar

StartChar: uniE110
Encoding: 57616 57616 251
Width: 400
Flags: MW
HStem: 0 10<10 190 10 200> 390 10<10 190 10 10>
VStem: 0 10<10 10 10 390> 190 10<10 390 390 390>
LayerCount: 2
Fore
SplineSet
0 0 m 1
 0 400 l 1
 200 400 l 1
 200 0 l 1
 0 0 l 1
10 10 m 1
 190 10 l 1
 190 390 l 1
 10 390 l 1
 10 10 l 1
EndSplineSet
EndChar

StartChar: uniE111
Encoding: 57617 57617 252
Width: 400
Flags: MW
HStem: 0 10<10 190 10 200> 390 10<10 190 10 10>
VStem: 0 10<10 10 10 390> 190 10<10 390 390 390>
LayerCount: 2
Fore
SplineSet
0 0 m 1
 0 400 l 1
 200 400 l 1
 200 0 l 1
 0 0 l 1
10 10 m 1
 190 10 l 1
 190 390 l 1
 10 390 l 1
 10 10 l 1
EndSplineSet
EndChar

StartChar: uniE112
Encoding: 57618 57618 253
Width: 400
Flags: MW
HStem: 0 10<10 190 10 200> 390 10<10 190 10 10>
VStem: 0 10<10 10 10 390> 190 10<10 390 390 390>
LayerCount: 2
Fore
SplineSet
0 0 m 1
 0 400 l 1
 200 400 l 1
 200 0 l 1
 0 0 l 1
10 10 m 1
 190 10 l 1
 190 390 l 1
 10 390 l 1
 10 10 l 1
EndSplineSet
EndChar

StartChar: uniE113
Encoding: 57619 57619 254
Width: 400
Flags: MW
HStem: 0 10<10 190 10 200> 390 10<10 190 10 10>
VStem: 0 10<10 10 10 390> 190 10<10 390 390 390>
LayerCount: 2
Fore
SplineSet
0 0 m 1
 0 400 l 1
 200 400 l 1
 200 0 l 1
 0 0 l 1
10 10 m 1
 190 10 l 1
 190 390 l 1
 10 390 l 1
 10 10 l 1
EndSplineSet
EndChar

StartChar: uniE114
Encoding: 57620 57620 255
Width: 400
Flags: MW
HStem: 0 10<10 190 10 200> 390 10<10 190 10 10>
VStem: 0 10<10 10 10 390> 190 10<10 390 390 390>
LayerCount: 2
Fore
SplineSet
0 0 m 1
 0 400 l 1
 200 400 l 1
 200 0 l 1
 0 0 l 1
10 10 m 1
 190 10 l 1
 190 390 l 1
 10 390 l 1
 10 10 l 1
EndSplineSet
EndChar

StartChar: uniE115
Encoding: 57621 57621 256
Width: 400
Flags: MW
HStem: 0 10<10 190 10 200> 390 10<10 190 10 10>
VStem: 0 10<10 10 10 390> 190 10<10 390 390 390>
LayerCount: 2
Fore
SplineSet
0 0 m 1
 0 400 l 1
 200 400 l 1
 200 0 l 1
 0 0 l 1
10 10 m 1
 190 10 l 1
 190 390 l 1
 10 390 l 1
 10 10 l 1
EndSplineSet
EndChar

StartChar: uniE116
Encoding: 57622 57622 257
Width: 400
Flags: MW
HStem: 0 10<10 190 10 200> 390 10<10 190 10 10>
VStem: 0 10<10 10 10 390> 190 10<10 390 390 390>
LayerCount: 2
Fore
SplineSet
0 0 m 1
 0 400 l 1
 200 400 l 1
 200 0 l 1
 0 0 l 1
10 10 m 1
 190 10 l 1
 190 390 l 1
 10 390 l 1
 10 10 l 1
EndSplineSet
EndChar

StartChar: uniE117
Encoding: 57623 57623 258
Width: 400
Flags: MW
HStem: 0 10<10 190 10 200> 390 10<10 190 10 10>
VStem: 0 10<10 10 10 390> 190 10<10 390 390 390>
LayerCount: 2
Fore
SplineSet
0 0 m 1
 0 400 l 1
 200 400 l 1
 200 0 l 1
 0 0 l 1
10 10 m 1
 190 10 l 1
 190 390 l 1
 10 390 l 1
 10 10 l 1
EndSplineSet
EndChar

StartChar: uniE118
Encoding: 57624 57624 259
Width: 400
Flags: MW
HStem: 0 10<10 190 10 200> 390 10<10 190 10 10>
VStem: 0 10<10 10 10 390> 190 10<10 390 390 390>
LayerCount: 2
Fore
SplineSet
0 0 m 1
 0 400 l 1
 200 400 l 1
 200 0 l 1
 0 0 l 1
10 10 m 1
 190 10 l 1
 190 390 l 1
 10 390 l 1
 10 10 l 1
EndSplineSet
EndChar

StartChar: uniE119
Encoding: 57625 57625 260
Width: 400
Flags: MW
HStem: 0 10<10 190 10 200> 390 10<10 190 10 10>
VStem: 0 10<10 10 10 390> 190 10<10 390 390 390>
LayerCount: 2
Fore
SplineSet
0 0 m 1
 0 400 l 1
 200 400 l 1
 200 0 l 1
 0 0 l 1
10 10 m 1
 190 10 l 1
 190 390 l 1
 10 390 l 1
 10 10 l 1
EndSplineSet
EndChar

StartChar: uniE11A
Encoding: 57626 57626 261
Width: 400
Flags: MW
HStem: 0 10<10 190 10 200> 390 10<10 190 10 10>
VStem: 0 10<10 10 10 390> 190 10<10 390 390 390>
LayerCount: 2
Fore
SplineSet
0 0 m 1
 0 400 l 1
 200 400 l 1
 200 0 l 1
 0 0 l 1
10 10 m 1
 190 10 l 1
 190 390 l 1
 10 390 l 1
 10 10 l 1
EndSplineSet
EndChar

StartChar: uniE11B
Encoding: 57627 57627 262
Width: 400
Flags: MW
HStem: 0 10<10 190 10 200> 390 10<10 190 10 10>
VStem: 0 10<10 10 10 390> 190 10<10 390 390 390>
LayerCount: 2
Fore
SplineSet
0 0 m 1
 0 400 l 1
 200 400 l 1
 200 0 l 1
 0 0 l 1
10 10 m 1
 190 10 l 1
 190 390 l 1
 10 390 l 1
 10 10 l 1
EndSplineSet
EndChar

StartChar: uniE120
Encoding: 57632 57632 263
Width: 400
Flags: MW
HStem: 0 10<10 190 10 200> 390 10<10 190 10 10>
VStem: 0 10<10 10 10 390> 190 10<10 390 390 390>
LayerCount: 2
Fore
SplineSet
0 0 m 1
 0 400 l 1
 200 400 l 1
 200 0 l 1
 0 0 l 1
10 10 m 1
 190 10 l 1
 190 390 l 1
 10 390 l 1
 10 10 l 1
EndSplineSet
EndChar

StartChar: uniE121
Encoding: 57633 57633 264
Width: 400
Flags: MW
HStem: 0 10<10 190 10 200> 390 10<10 190 10 10>
VStem: 0 10<10 10 10 390> 190 10<10 390 390 390>
LayerCount: 2
Fore
SplineSet
0 0 m 1
 0 400 l 1
 200 400 l 1
 200 0 l 1
 0 0 l 1
10 10 m 1
 190 10 l 1
 190 390 l 1
 10 390 l 1
 10 10 l 1
EndSplineSet
EndChar

StartChar: uniE122
Encoding: 57634 57634 265
Width: 400
Flags: MW
HStem: 0 10<10 190 10 200> 390 10<10 190 10 10>
VStem: 0 10<10 10 10 390> 190 10<10 390 390 390>
LayerCount: 2
Fore
SplineSet
0 0 m 1
 0 400 l 1
 200 400 l 1
 200 0 l 1
 0 0 l 1
10 10 m 1
 190 10 l 1
 190 390 l 1
 10 390 l 1
 10 10 l 1
EndSplineSet
EndChar

StartChar: uniE123
Encoding: 57635 57635 266
Width: 400
Flags: MW
HStem: 0 10<10 190 10 200> 390 10<10 190 10 10>
VStem: 0 10<10 10 10 390> 190 10<10 390 390 390>
LayerCount: 2
Fore
SplineSet
0 0 m 1
 0 400 l 1
 200 400 l 1
 200 0 l 1
 0 0 l 1
10 10 m 1
 190 10 l 1
 190 390 l 1
 10 390 l 1
 10 10 l 1
EndSplineSet
EndChar

StartChar: uniE124
Encoding: 57636 57636 267
Width: 400
Flags: MW
HStem: 0 10<10 190 10 200> 390 10<10 190 10 10>
VStem: 0 10<10 10 10 390> 190 10<10 390 390 390>
LayerCount: 2
Fore
SplineSet
0 0 m 1
 0 400 l 1
 200 400 l 1
 200 0 l 1
 0 0 l 1
10 10 m 1
 190 10 l 1
 190 390 l 1
 10 390 l 1
 10 10 l 1
EndSplineSet
EndChar

StartChar: uniE125
Encoding: 57637 57637 268
Width: 400
Flags: MW
HStem: 0 10<10 190 10 200> 390 10<10 190 10 10>
VStem: 0 10<10 10 10 390> 190 10<10 390 390 390>
LayerCount: 2
Fore
SplineSet
0 0 m 1
 0 400 l 1
 200 400 l 1
 200 0 l 1
 0 0 l 1
10 10 m 1
 190 10 l 1
 190 390 l 1
 10 390 l 1
 10 10 l 1
EndSplineSet
EndChar

StartChar: uniE126
Encoding: 57638 57638 269
Width: 400
Flags: MW
HStem: 0 10<10 190 10 200> 390 10<10 190 10 10>
VStem: 0 10<10 10 10 390> 190 10<10 390 390 390>
LayerCount: 2
Fore
SplineSet
0 0 m 1
 0 400 l 1
 200 400 l 1
 200 0 l 1
 0 0 l 1
10 10 m 1
 190 10 l 1
 190 390 l 1
 10 390 l 1
 10 10 l 1
EndSplineSet
EndChar

StartChar: uniE127
Encoding: 57639 57639 270
Width: 400
Flags: MW
HStem: 0 10<10 190 10 200> 390 10<10 190 10 10>
VStem: 0 10<10 10 10 390> 190 10<10 390 390 390>
LayerCount: 2
Fore
SplineSet
0 0 m 1
 0 400 l 1
 200 400 l 1
 200 0 l 1
 0 0 l 1
10 10 m 1
 190 10 l 1
 190 390 l 1
 10 390 l 1
 10 10 l 1
EndSplineSet
EndChar

StartChar: uniE128
Encoding: 57640 57640 271
Width: 400
Flags: MW
HStem: 0 10<10 190 10 200> 390 10<10 190 10 10>
VStem: 0 10<10 10 10 390> 190 10<10 390 390 390>
LayerCount: 2
Fore
SplineSet
0 0 m 1
 0 400 l 1
 200 400 l 1
 200 0 l 1
 0 0 l 1
10 10 m 1
 190 10 l 1
 190 390 l 1
 10 390 l 1
 10 10 l 1
EndSplineSet
EndChar

StartChar: uniE129
Encoding: 57641 57641 272
Width: 400
Flags: MW
HStem: 0 10<10 190 10 200> 390 10<10 190 10 10>
VStem: 0 10<10 10 10 390> 190 10<10 390 390 390>
LayerCount: 2
Fore
SplineSet
0 0 m 1
 0 400 l 1
 200 400 l 1
 200 0 l 1
 0 0 l 1
10 10 m 1
 190 10 l 1
 190 390 l 1
 10 390 l 1
 10 10 l 1
EndSplineSet
EndChar

StartChar: uniE12A
Encoding: 57642 57642 273
Width: 400
Flags: MW
HStem: 0 10<10 190 10 200> 390 10<10 190 10 10>
VStem: 0 10<10 10 10 390> 190 10<10 390 390 390>
LayerCount: 2
Fore
SplineSet
0 0 m 1
 0 400 l 1
 200 400 l 1
 200 0 l 1
 0 0 l 1
10 10 m 1
 190 10 l 1
 190 390 l 1
 10 390 l 1
 10 10 l 1
EndSplineSet
EndChar

StartChar: uniE12B
Encoding: 57643 57643 274
Width: 400
Flags: MW
HStem: 0 10<10 190 10 200> 390 10<10 190 10 10>
VStem: 0 10<10 10 10 390> 190 10<10 390 390 390>
LayerCount: 2
Fore
SplineSet
0 0 m 1
 0 400 l 1
 200 400 l 1
 200 0 l 1
 0 0 l 1
10 10 m 1
 190 10 l 1
 190 390 l 1
 10 390 l 1
 10 10 l 1
EndSplineSet
EndChar

StartChar: uniE12C
Encoding: 57644 57644 275
Width: 400
Flags: MW
HStem: 0 10<10 190 10 200> 390 10<10 190 10 10>
VStem: 0 10<10 10 10 390> 190 10<10 390 390 390>
LayerCount: 2
Fore
SplineSet
0 0 m 1
 0 400 l 1
 200 400 l 1
 200 0 l 1
 0 0 l 1
10 10 m 1
 190 10 l 1
 190 390 l 1
 10 390 l 1
 10 10 l 1
EndSplineSet
EndChar

StartChar: uniE12D
Encoding: 57645 57645 276
Width: 400
Flags: MW
HStem: 0 10<10 190 10 200> 390 10<10 190 10 10>
VStem: 0 10<10 10 10 390> 190 10<10 390 390 390>
LayerCount: 2
Fore
SplineSet
0 0 m 1
 0 400 l 1
 200 400 l 1
 200 0 l 1
 0 0 l 1
10 10 m 1
 190 10 l 1
 190 390 l 1
 10 390 l 1
 10 10 l 1
EndSplineSet
EndChar

StartChar: uniE12E
Encoding: 57646 57646 277
Width: 400
Flags: MW
HStem: 0 10<10 190 10 200> 390 10<10 190 10 10>
VStem: 0 10<10 10 10 390> 190 10<10 390 390 390>
LayerCount: 2
Fore
SplineSet
0 0 m 1
 0 400 l 1
 200 400 l 1
 200 0 l 1
 0 0 l 1
10 10 m 1
 190 10 l 1
 190 390 l 1
 10 390 l 1
 10 10 l 1
EndSplineSet
EndChar

StartChar: uniE12F
Encoding: 57647 57647 278
Width: 400
Flags: MW
HStem: 0 10<10 190 10 200> 390 10<10 190 10 10>
VStem: 0 10<10 10 10 390> 190 10<10 390 390 390>
LayerCount: 2
Fore
SplineSet
0 0 m 1
 0 400 l 1
 200 400 l 1
 200 0 l 1
 0 0 l 1
10 10 m 1
 190 10 l 1
 190 390 l 1
 10 390 l 1
 10 10 l 1
EndSplineSet
EndChar

StartChar: uniE130
Encoding: 57648 57648 279
Width: 400
Flags: MW
HStem: 0 10<10 190 10 200> 390 10<10 190 10 10>
VStem: 0 10<10 10 10 390> 190 10<10 390 390 390>
LayerCount: 2
Fore
SplineSet
0 0 m 1
 0 400 l 1
 200 400 l 1
 200 0 l 1
 0 0 l 1
10 10 m 1
 190 10 l 1
 190 390 l 1
 10 390 l 1
 10 10 l 1
EndSplineSet
EndChar

StartChar: uniE131
Encoding: 57649 57649 280
Width: 400
Flags: MW
HStem: 0 10<10 190 10 200> 390 10<10 190 10 10>
VStem: 0 10<10 10 10 390> 190 10<10 390 390 390>
LayerCount: 2
Fore
SplineSet
0 0 m 1
 0 400 l 1
 200 400 l 1
 200 0 l 1
 0 0 l 1
10 10 m 1
 190 10 l 1
 190 390 l 1
 10 390 l 1
 10 10 l 1
EndSplineSet
EndChar

StartChar: uniE132
Encoding: 57650 57650 281
Width: 400
Flags: MW
HStem: 0 10<10 190 10 200> 390 10<10 190 10 10>
VStem: 0 10<10 10 10 390> 190 10<10 390 390 390>
LayerCount: 2
Fore
SplineSet
0 0 m 1
 0 400 l 1
 200 400 l 1
 200 0 l 1
 0 0 l 1
10 10 m 1
 190 10 l 1
 190 390 l 1
 10 390 l 1
 10 10 l 1
EndSplineSet
EndChar

StartChar: uniE133
Encoding: 57651 57651 282
Width: 400
Flags: MW
HStem: 0 10<10 190 10 200> 390 10<10 190 10 10>
VStem: 0 10<10 10 10 390> 190 10<10 390 390 390>
LayerCount: 2
Fore
SplineSet
0 0 m 1
 0 400 l 1
 200 400 l 1
 200 0 l 1
 0 0 l 1
10 10 m 1
 190 10 l 1
 190 390 l 1
 10 390 l 1
 10 10 l 1
EndSplineSet
EndChar

StartChar: uniE134
Encoding: 57652 57652 283
Width: 400
Flags: MW
HStem: 0 10<10 190 10 200> 390 10<10 190 10 10>
VStem: 0 10<10 10 10 390> 190 10<10 390 390 390>
LayerCount: 2
Fore
SplineSet
0 0 m 1
 0 400 l 1
 200 400 l 1
 200 0 l 1
 0 0 l 1
10 10 m 1
 190 10 l 1
 190 390 l 1
 10 390 l 1
 10 10 l 1
EndSplineSet
EndChar

StartChar: uniE135
Encoding: 57653 57653 284
Width: 400
Flags: MW
HStem: 0 10<10 190 10 200> 390 10<10 190 10 10>
VStem: 0 10<10 10 10 390> 190 10<10 390 390 390>
LayerCount: 2
Fore
SplineSet
0 0 m 1
 0 400 l 1
 200 400 l 1
 200 0 l 1
 0 0 l 1
10 10 m 1
 190 10 l 1
 190 390 l 1
 10 390 l 1
 10 10 l 1
EndSplineSet
EndChar

StartChar: uniE136
Encoding: 57654 57654 285
Width: 400
Flags: MW
HStem: 0 10<10 190 10 200> 390 10<10 190 10 10>
VStem: 0 10<10 10 10 390> 190 10<10 390 390 390>
LayerCount: 2
Fore
SplineSet
0 0 m 1
 0 400 l 1
 200 400 l 1
 200 0 l 1
 0 0 l 1
10 10 m 1
 190 10 l 1
 190 390 l 1
 10 390 l 1
 10 10 l 1
EndSplineSet
EndChar

StartChar: uniE137
Encoding: 57655 57655 286
Width: 400
Flags: MW
HStem: 0 10<10 190 10 200> 390 10<10 190 10 10>
VStem: 0 10<10 10 10 390> 190 10<10 390 390 390>
LayerCount: 2
Fore
SplineSet
0 0 m 1
 0 400 l 1
 200 400 l 1
 200 0 l 1
 0 0 l 1
10 10 m 1
 190 10 l 1
 190 390 l 1
 10 390 l 1
 10 10 l 1
EndSplineSet
EndChar

StartChar: uniE138
Encoding: 57656 57656 287
Width: 400
Flags: MW
HStem: 0 10<10 190 10 200> 390 10<10 190 10 10>
VStem: 0 10<10 10 10 390> 190 10<10 390 390 390>
LayerCount: 2
Fore
SplineSet
0 0 m 1
 0 400 l 1
 200 400 l 1
 200 0 l 1
 0 0 l 1
10 10 m 1
 190 10 l 1
 190 390 l 1
 10 390 l 1
 10 10 l 1
EndSplineSet
EndChar

StartChar: uniE139
Encoding: 57657 57657 288
Width: 400
Flags: MW
HStem: 0 10<10 190 10 200> 390 10<10 190 10 10>
VStem: 0 10<10 10 10 390> 190 10<10 390 390 390>
LayerCount: 2
Fore
SplineSet
0 0 m 1
 0 400 l 1
 200 400 l 1
 200 0 l 1
 0 0 l 1
10 10 m 1
 190 10 l 1
 190 390 l 1
 10 390 l 1
 10 10 l 1
EndSplineSet
EndChar

StartChar: uniE13A
Encoding: 57658 57658 289
Width: 400
Flags: MW
HStem: 0 10<10 190 10 200> 390 10<10 190 10 10>
VStem: 0 10<10 10 10 390> 190 10<10 390 390 390>
LayerCount: 2
Fore
SplineSet
0 0 m 1
 0 400 l 1
 200 400 l 1
 200 0 l 1
 0 0 l 1
10 10 m 1
 190 10 l 1
 190 390 l 1
 10 390 l 1
 10 10 l 1
EndSplineSet
EndChar

StartChar: uniE13B
Encoding: 57659 57659 290
Width: 400
Flags: MW
HStem: 0 10<10 190 10 200> 390 10<10 190 10 10>
VStem: 0 10<10 10 10 390> 190 10<10 390 390 390>
LayerCount: 2
Fore
SplineSet
0 0 m 1
 0 400 l 1
 200 400 l 1
 200 0 l 1
 0 0 l 1
10 10 m 1
 190 10 l 1
 190 390 l 1
 10 390 l 1
 10 10 l 1
EndSplineSet
EndChar

StartChar: uniE13C
Encoding: 57660 57660 291
Width: 400
Flags: MW
HStem: 0 10<10 190 10 200> 390 10<10 190 10 10>
VStem: 0 10<10 10 10 390> 190 10<10 390 390 390>
LayerCount: 2
Fore
SplineSet
0 0 m 1
 0 400 l 1
 200 400 l 1
 200 0 l 1
 0 0 l 1
10 10 m 1
 190 10 l 1
 190 390 l 1
 10 390 l 1
 10 10 l 1
EndSplineSet
EndChar

StartChar: uniE13D
Encoding: 57661 57661 292
Width: 400
Flags: MW
HStem: 0 10<10 190 10 200> 390 10<10 190 10 10>
VStem: 0 10<10 10 10 390> 190 10<10 390 390 390>
LayerCount: 2
Fore
SplineSet
0 0 m 1
 0 400 l 1
 200 400 l 1
 200 0 l 1
 0 0 l 1
10 10 m 1
 190 10 l 1
 190 390 l 1
 10 390 l 1
 10 10 l 1
EndSplineSet
EndChar

StartChar: uniE13E
Encoding: 57662 57662 293
Width: 400
Flags: MW
HStem: 0 10<10 190 10 200> 390 10<10 190 10 10>
VStem: 0 10<10 10 10 390> 190 10<10 390 390 390>
LayerCount: 2
Fore
SplineSet
0 0 m 1
 0 400 l 1
 200 400 l 1
 200 0 l 1
 0 0 l 1
10 10 m 1
 190 10 l 1
 190 390 l 1
 10 390 l 1
 10 10 l 1
EndSplineSet
EndChar

StartChar: uniE13F
Encoding: 57663 57663 294
Width: 400
Flags: MW
HStem: 0 10<10 190 10 200> 390 10<10 190 10 10>
VStem: 0 10<10 10 10 390> 190 10<10 390 390 390>
LayerCount: 2
Fore
SplineSet
0 0 m 1
 0 400 l 1
 200 400 l 1
 200 0 l 1
 0 0 l 1
10 10 m 1
 190 10 l 1
 190 390 l 1
 10 390 l 1
 10 10 l 1
EndSplineSet
EndChar

StartChar: uniE140
Encoding: 57664 57664 295
Width: 400
Flags: MW
HStem: 0 10<10 190 10 200> 390 10<10 190 10 10>
VStem: 0 10<10 10 10 390> 190 10<10 390 390 390>
LayerCount: 2
Fore
SplineSet
0 0 m 1
 0 400 l 1
 200 400 l 1
 200 0 l 1
 0 0 l 1
10 10 m 1
 190 10 l 1
 190 390 l 1
 10 390 l 1
 10 10 l 1
EndSplineSet
EndChar

StartChar: uniE141
Encoding: 57665 57665 296
Width: 400
Flags: MW
HStem: 0 10<10 190 10 200> 390 10<10 190 10 10>
VStem: 0 10<10 10 10 390> 190 10<10 390 390 390>
LayerCount: 2
Fore
SplineSet
0 0 m 1
 0 400 l 1
 200 400 l 1
 200 0 l 1
 0 0 l 1
10 10 m 1
 190 10 l 1
 190 390 l 1
 10 390 l 1
 10 10 l 1
EndSplineSet
EndChar

StartChar: uniE142
Encoding: 57666 57666 297
Width: 400
Flags: MW
HStem: 0 10<10 190 10 200> 390 10<10 190 10 10>
VStem: 0 10<10 10 10 390> 190 10<10 390 390 390>
LayerCount: 2
Fore
SplineSet
0 0 m 1
 0 400 l 1
 200 400 l 1
 200 0 l 1
 0 0 l 1
10 10 m 1
 190 10 l 1
 190 390 l 1
 10 390 l 1
 10 10 l 1
EndSplineSet
EndChar

StartChar: uniE143
Encoding: 57667 57667 298
Width: 400
Flags: MW
HStem: 0 10<10 190 10 200> 390 10<10 190 10 10>
VStem: 0 10<10 10 10 390> 190 10<10 390 390 390>
LayerCount: 2
Fore
SplineSet
0 0 m 1
 0 400 l 1
 200 400 l 1
 200 0 l 1
 0 0 l 1
10 10 m 1
 190 10 l 1
 190 390 l 1
 10 390 l 1
 10 10 l 1
EndSplineSet
EndChar

StartChar: uniE144
Encoding: 57668 57668 299
Width: 400
Flags: MW
HStem: 0 10<10 190 10 200> 390 10<10 190 10 10>
VStem: 0 10<10 10 10 390> 190 10<10 390 390 390>
LayerCount: 2
Fore
SplineSet
0 0 m 1
 0 400 l 1
 200 400 l 1
 200 0 l 1
 0 0 l 1
10 10 m 1
 190 10 l 1
 190 390 l 1
 10 390 l 1
 10 10 l 1
EndSplineSet
EndChar

StartChar: uniE145
Encoding: 57669 57669 300
Width: 400
Flags: MW
HStem: 0 10<10 190 10 200> 390 10<10 190 10 10>
VStem: 0 10<10 10 10 390> 190 10<10 390 390 390>
LayerCount: 2
Fore
SplineSet
0 0 m 1
 0 400 l 1
 200 400 l 1
 200 0 l 1
 0 0 l 1
10 10 m 1
 190 10 l 1
 190 390 l 1
 10 390 l 1
 10 10 l 1
EndSplineSet
EndChar

StartChar: uniE146
Encoding: 57670 57670 301
Width: 400
Flags: MW
HStem: 0 10<10 190 10 200> 390 10<10 190 10 10>
VStem: 0 10<10 10 10 390> 190 10<10 390 390 390>
LayerCount: 2
Fore
SplineSet
0 0 m 1
 0 400 l 1
 200 400 l 1
 200 0 l 1
 0 0 l 1
10 10 m 1
 190 10 l 1
 190 390 l 1
 10 390 l 1
 10 10 l 1
EndSplineSet
EndChar

StartChar: uniE147
Encoding: 57671 57671 302
Width: 400
Flags: MW
HStem: 0 10<10 190 10 200> 390 10<10 190 10 10>
VStem: 0 10<10 10 10 390> 190 10<10 390 390 390>
LayerCount: 2
Fore
SplineSet
0 0 m 1
 0 400 l 1
 200 400 l 1
 200 0 l 1
 0 0 l 1
10 10 m 1
 190 10 l 1
 190 390 l 1
 10 390 l 1
 10 10 l 1
EndSplineSet
EndChar

StartChar: uniE150
Encoding: 57680 57680 303
Width: 400
Flags: MW
HStem: 0 10<10 190 10 200> 390 10<10 190 10 10>
VStem: 0 10<10 10 10 390> 190 10<10 390 390 390>
LayerCount: 2
Fore
SplineSet
0 0 m 1
 0 400 l 1
 200 400 l 1
 200 0 l 1
 0 0 l 1
10 10 m 1
 190 10 l 1
 190 390 l 1
 10 390 l 1
 10 10 l 1
EndSplineSet
EndChar

StartChar: uniE151
Encoding: 57681 57681 304
Width: 400
Flags: MW
HStem: 0 10<10 190 10 200> 390 10<10 190 10 10>
VStem: 0 10<10 10 10 390> 190 10<10 390 390 390>
LayerCount: 2
Fore
SplineSet
0 0 m 1
 0 400 l 1
 200 400 l 1
 200 0 l 1
 0 0 l 1
10 10 m 1
 190 10 l 1
 190 390 l 1
 10 390 l 1
 10 10 l 1
EndSplineSet
EndChar

StartChar: uniE152
Encoding: 57682 57682 305
Width: 400
Flags: MW
HStem: 0 10<10 190 10 200> 390 10<10 190 10 10>
VStem: 0 10<10 10 10 390> 190 10<10 390 390 390>
LayerCount: 2
Fore
SplineSet
0 0 m 1
 0 400 l 1
 200 400 l 1
 200 0 l 1
 0 0 l 1
10 10 m 1
 190 10 l 1
 190 390 l 1
 10 390 l 1
 10 10 l 1
EndSplineSet
EndChar

StartChar: uniE153
Encoding: 57683 57683 306
Width: 400
Flags: MW
HStem: 0 10<10 190 10 200> 390 10<10 190 10 10>
VStem: 0 10<10 10 10 390> 190 10<10 390 390 390>
LayerCount: 2
Fore
SplineSet
0 0 m 1
 0 400 l 1
 200 400 l 1
 200 0 l 1
 0 0 l 1
10 10 m 1
 190 10 l 1
 190 390 l 1
 10 390 l 1
 10 10 l 1
EndSplineSet
EndChar

StartChar: uniE154
Encoding: 57684 57684 307
Width: 400
Flags: MW
HStem: 0 10<10 190 10 200> 390 10<10 190 10 10>
VStem: 0 10<10 10 10 390> 190 10<10 390 390 390>
LayerCount: 2
Fore
SplineSet
0 0 m 1
 0 400 l 1
 200 400 l 1
 200 0 l 1
 0 0 l 1
10 10 m 1
 190 10 l 1
 190 390 l 1
 10 390 l 1
 10 10 l 1
EndSplineSet
EndChar

StartChar: uniE155
Encoding: 57685 57685 308
Width: 400
Flags: MW
HStem: 0 10<10 190 10 200> 390 10<10 190 10 10>
VStem: 0 10<10 10 10 390> 190 10<10 390 390 390>
LayerCount: 2
Fore
SplineSet
0 0 m 1
 0 400 l 1
 200 400 l 1
 200 0 l 1
 0 0 l 1
10 10 m 1
 190 10 l 1
 190 390 l 1
 10 390 l 1
 10 10 l 1
EndSplineSet
EndChar

StartChar: uniE156
Encoding: 57686 57686 309
Width: 400
Flags: MW
HStem: 0 10<10 190 10 200> 390 10<10 190 10 10>
VStem: 0 10<10 10 10 390> 190 10<10 390 390 390>
LayerCount: 2
Fore
SplineSet
0 0 m 1
 0 400 l 1
 200 400 l 1
 200 0 l 1
 0 0 l 1
10 10 m 1
 190 10 l 1
 190 390 l 1
 10 390 l 1
 10 10 l 1
EndSplineSet
EndChar

StartChar: uniE157
Encoding: 57687 57687 310
Width: 400
Flags: MW
HStem: 0 10<10 190 10 200> 390 10<10 190 10 10>
VStem: 0 10<10 10 10 390> 190 10<10 390 390 390>
LayerCount: 2
Fore
SplineSet
0 0 m 1
 0 400 l 1
 200 400 l 1
 200 0 l 1
 0 0 l 1
10 10 m 1
 190 10 l 1
 190 390 l 1
 10 390 l 1
 10 10 l 1
EndSplineSet
EndChar

StartChar: uniE158
Encoding: 57688 57688 311
Width: 400
Flags: MW
HStem: 0 10<10 190 10 200> 390 10<10 190 10 10>
VStem: 0 10<10 10 10 390> 190 10<10 390 390 390>
LayerCount: 2
Fore
SplineSet
0 0 m 1
 0 400 l 1
 200 400 l 1
 200 0 l 1
 0 0 l 1
10 10 m 1
 190 10 l 1
 190 390 l 1
 10 390 l 1
 10 10 l 1
EndSplineSet
EndChar

StartChar: uniE159
Encoding: 57689 57689 312
Width: 400
Flags: MW
HStem: 0 10<10 190 10 200> 390 10<10 190 10 10>
VStem: 0 10<10 10 10 390> 190 10<10 390 390 390>
LayerCount: 2
Fore
SplineSet
0 0 m 1
 0 400 l 1
 200 400 l 1
 200 0 l 1
 0 0 l 1
10 10 m 1
 190 10 l 1
 190 390 l 1
 10 390 l 1
 10 10 l 1
EndSplineSet
EndChar

StartChar: uniE15A
Encoding: 57690 57690 313
Width: 400
Flags: MW
HStem: 0 10<10 190 10 200> 390 10<10 190 10 10>
VStem: 0 10<10 10 10 390> 190 10<10 390 390 390>
LayerCount: 2
Fore
SplineSet
0 0 m 1
 0 400 l 1
 200 400 l 1
 200 0 l 1
 0 0 l 1
10 10 m 1
 190 10 l 1
 190 390 l 1
 10 390 l 1
 10 10 l 1
EndSplineSet
EndChar

StartChar: uniE15B
Encoding: 57691 57691 314
Width: 400
Flags: MW
HStem: 0 10<10 190 10 200> 390 10<10 190 10 10>
VStem: 0 10<10 10 10 390> 190 10<10 390 390 390>
LayerCount: 2
Fore
SplineSet
0 0 m 1
 0 400 l 1
 200 400 l 1
 200 0 l 1
 0 0 l 1
10 10 m 1
 190 10 l 1
 190 390 l 1
 10 390 l 1
 10 10 l 1
EndSplineSet
EndChar

StartChar: uniE15C
Encoding: 57692 57692 315
Width: 400
Flags: MW
HStem: 0 10<10 190 10 200> 390 10<10 190 10 10>
VStem: 0 10<10 10 10 390> 190 10<10 390 390 390>
LayerCount: 2
Fore
SplineSet
0 0 m 1
 0 400 l 1
 200 400 l 1
 200 0 l 1
 0 0 l 1
10 10 m 1
 190 10 l 1
 190 390 l 1
 10 390 l 1
 10 10 l 1
EndSplineSet
EndChar

StartChar: uniE15D
Encoding: 57693 57693 316
Width: 400
Flags: MW
HStem: 0 10<10 190 10 200> 390 10<10 190 10 10>
VStem: 0 10<10 10 10 390> 190 10<10 390 390 390>
LayerCount: 2
Fore
SplineSet
0 0 m 1
 0 400 l 1
 200 400 l 1
 200 0 l 1
 0 0 l 1
10 10 m 1
 190 10 l 1
 190 390 l 1
 10 390 l 1
 10 10 l 1
EndSplineSet
EndChar

StartChar: uniE15E
Encoding: 57694 57694 317
Width: 400
Flags: MW
HStem: 0 10<10 190 10 200> 390 10<10 190 10 10>
VStem: 0 10<10 10 10 390> 190 10<10 390 390 390>
LayerCount: 2
Fore
SplineSet
0 0 m 1
 0 400 l 1
 200 400 l 1
 200 0 l 1
 0 0 l 1
10 10 m 1
 190 10 l 1
 190 390 l 1
 10 390 l 1
 10 10 l 1
EndSplineSet
EndChar

StartChar: uniE15F
Encoding: 57695 57695 318
Width: 400
Flags: MW
HStem: 0 10<10 190 10 200> 390 10<10 190 10 10>
VStem: 0 10<10 10 10 390> 190 10<10 390 390 390>
LayerCount: 2
Fore
SplineSet
0 0 m 1
 0 400 l 1
 200 400 l 1
 200 0 l 1
 0 0 l 1
10 10 m 1
 190 10 l 1
 190 390 l 1
 10 390 l 1
 10 10 l 1
EndSplineSet
EndChar

StartChar: uniE160
Encoding: 57696 57696 319
Width: 400
Flags: MW
HStem: 0 10<10 190 10 200> 390 10<10 190 10 10>
VStem: 0 10<10 10 10 390> 190 10<10 390 390 390>
LayerCount: 2
Fore
SplineSet
0 0 m 1
 0 400 l 1
 200 400 l 1
 200 0 l 1
 0 0 l 1
10 10 m 1
 190 10 l 1
 190 390 l 1
 10 390 l 1
 10 10 l 1
EndSplineSet
EndChar

StartChar: uniE161
Encoding: 57697 57697 320
Width: 400
Flags: MW
HStem: 0 10<10 190 10 200> 390 10<10 190 10 10>
VStem: 0 10<10 10 10 390> 190 10<10 390 390 390>
LayerCount: 2
Fore
SplineSet
0 0 m 1
 0 400 l 1
 200 400 l 1
 200 0 l 1
 0 0 l 1
10 10 m 1
 190 10 l 1
 190 390 l 1
 10 390 l 1
 10 10 l 1
EndSplineSet
EndChar

StartChar: uniE162
Encoding: 57698 57698 321
Width: 400
Flags: MW
HStem: 0 10<10 190 10 200> 390 10<10 190 10 10>
VStem: 0 10<10 10 10 390> 190 10<10 390 390 390>
LayerCount: 2
Fore
SplineSet
0 0 m 1
 0 400 l 1
 200 400 l 1
 200 0 l 1
 0 0 l 1
10 10 m 1
 190 10 l 1
 190 390 l 1
 10 390 l 1
 10 10 l 1
EndSplineSet
EndChar

StartChar: uniE163
Encoding: 57699 57699 322
Width: 400
Flags: MW
HStem: 0 10<10 190 10 200> 390 10<10 190 10 10>
VStem: 0 10<10 10 10 390> 190 10<10 390 390 390>
LayerCount: 2
Fore
SplineSet
0 0 m 1
 0 400 l 1
 200 400 l 1
 200 0 l 1
 0 0 l 1
10 10 m 1
 190 10 l 1
 190 390 l 1
 10 390 l 1
 10 10 l 1
EndSplineSet
EndChar

StartChar: uniE164
Encoding: 57700 57700 323
Width: 400
Flags: MW
HStem: 0 10<10 190 10 200> 390 10<10 190 10 10>
VStem: 0 10<10 10 10 390> 190 10<10 390 390 390>
LayerCount: 2
Fore
SplineSet
0 0 m 1
 0 400 l 1
 200 400 l 1
 200 0 l 1
 0 0 l 1
10 10 m 1
 190 10 l 1
 190 390 l 1
 10 390 l 1
 10 10 l 1
EndSplineSet
EndChar

StartChar: uniE165
Encoding: 57701 57701 324
Width: 400
Flags: MW
HStem: 0 10<10 190 10 200> 390 10<10 190 10 10>
VStem: 0 10<10 10 10 390> 190 10<10 390 390 390>
LayerCount: 2
Fore
SplineSet
0 0 m 1
 0 400 l 1
 200 400 l 1
 200 0 l 1
 0 0 l 1
10 10 m 1
 190 10 l 1
 190 390 l 1
 10 390 l 1
 10 10 l 1
EndSplineSet
EndChar

StartChar: uniE166
Encoding: 57702 57702 325
Width: 400
Flags: MW
HStem: 0 10<10 190 10 200> 390 10<10 190 10 10>
VStem: 0 10<10 10 10 390> 190 10<10 390 390 390>
LayerCount: 2
Fore
SplineSet
0 0 m 1
 0 400 l 1
 200 400 l 1
 200 0 l 1
 0 0 l 1
10 10 m 1
 190 10 l 1
 190 390 l 1
 10 390 l 1
 10 10 l 1
EndSplineSet
EndChar

StartChar: uniE167
Encoding: 57703 57703 326
Width: 400
Flags: MW
HStem: 0 10<10 190 10 200> 390 10<10 190 10 10>
VStem: 0 10<10 10 10 390> 190 10<10 390 390 390>
LayerCount: 2
Fore
SplineSet
0 0 m 1
 0 400 l 1
 200 400 l 1
 200 0 l 1
 0 0 l 1
10 10 m 1
 190 10 l 1
 190 390 l 1
 10 390 l 1
 10 10 l 1
EndSplineSet
EndChar

StartChar: uniE168
Encoding: 57704 57704 327
Width: 400
Flags: MW
HStem: 0 10<10 190 10 200> 390 10<10 190 10 10>
VStem: 0 10<10 10 10 390> 190 10<10 390 390 390>
LayerCount: 2
Fore
SplineSet
0 0 m 1
 0 400 l 1
 200 400 l 1
 200 0 l 1
 0 0 l 1
10 10 m 1
 190 10 l 1
 190 390 l 1
 10 390 l 1
 10 10 l 1
EndSplineSet
EndChar

StartChar: uniE169
Encoding: 57705 57705 328
Width: 400
Flags: MW
HStem: 0 10<10 190 10 200> 390 10<10 190 10 10>
VStem: 0 10<10 10 10 390> 190 10<10 390 390 390>
LayerCount: 2
Fore
SplineSet
0 0 m 1
 0 400 l 1
 200 400 l 1
 200 0 l 1
 0 0 l 1
10 10 m 1
 190 10 l 1
 190 390 l 1
 10 390 l 1
 10 10 l 1
EndSplineSet
EndChar

StartChar: uniE16A
Encoding: 57706 57706 329
Width: 400
Flags: MW
HStem: 0 10<10 190 10 200> 390 10<10 190 10 10>
VStem: 0 10<10 10 10 390> 190 10<10 390 390 390>
LayerCount: 2
Fore
SplineSet
0 0 m 1
 0 400 l 1
 200 400 l 1
 200 0 l 1
 0 0 l 1
10 10 m 1
 190 10 l 1
 190 390 l 1
 10 390 l 1
 10 10 l 1
EndSplineSet
EndChar

StartChar: uniE16B
Encoding: 57707 57707 330
Width: 400
Flags: MW
HStem: 0 10<10 190 10 200> 390 10<10 190 10 10>
VStem: 0 10<10 10 10 390> 190 10<10 390 390 390>
LayerCount: 2
Fore
SplineSet
0 0 m 1
 0 400 l 1
 200 400 l 1
 200 0 l 1
 0 0 l 1
10 10 m 1
 190 10 l 1
 190 390 l 1
 10 390 l 1
 10 10 l 1
EndSplineSet
EndChar

StartChar: uniE16C
Encoding: 57708 57708 331
Width: 400
Flags: MW
HStem: 0 10<10 190 10 200> 390 10<10 190 10 10>
VStem: 0 10<10 10 10 390> 190 10<10 390 390 390>
LayerCount: 2
Fore
SplineSet
0 0 m 1
 0 400 l 1
 200 400 l 1
 200 0 l 1
 0 0 l 1
10 10 m 1
 190 10 l 1
 190 390 l 1
 10 390 l 1
 10 10 l 1
EndSplineSet
EndChar

StartChar: uniE16D
Encoding: 57709 57709 332
Width: 400
Flags: MW
HStem: 0 10<10 190 10 200> 390 10<10 190 10 10>
VStem: 0 10<10 10 10 390> 190 10<10 390 390 390>
LayerCount: 2
Fore
SplineSet
0 0 m 1
 0 400 l 1
 200 400 l 1
 200 0 l 1
 0 0 l 1
10 10 m 1
 190 10 l 1
 190 390 l 1
 10 390 l 1
 10 10 l 1
EndSplineSet
EndChar

StartChar: uniE16E
Encoding: 57710 57710 333
Width: 400
Flags: MW
HStem: 0 10<10 190 10 200> 390 10<10 190 10 10>
VStem: 0 10<10 10 10 390> 190 10<10 390 390 390>
LayerCount: 2
Fore
SplineSet
0 0 m 1
 0 400 l 1
 200 400 l 1
 200 0 l 1
 0 0 l 1
10 10 m 1
 190 10 l 1
 190 390 l 1
 10 390 l 1
 10 10 l 1
EndSplineSet
EndChar

StartChar: uniE16F
Encoding: 57711 57711 334
Width: 400
Flags: MW
HStem: 0 10<10 190 10 200> 390 10<10 190 10 10>
VStem: 0 10<10 10 10 390> 190 10<10 390 390 390>
LayerCount: 2
Fore
SplineSet
0 0 m 1
 0 400 l 1
 200 400 l 1
 200 0 l 1
 0 0 l 1
10 10 m 1
 190 10 l 1
 190 390 l 1
 10 390 l 1
 10 10 l 1
EndSplineSet
EndChar

StartChar: uniE170
Encoding: 57712 57712 335
Width: 400
Flags: MW
HStem: 0 10<10 190 10 200> 390 10<10 190 10 10>
VStem: 0 10<10 10 10 390> 190 10<10 390 390 390>
LayerCount: 2
Fore
SplineSet
0 0 m 1
 0 400 l 1
 200 400 l 1
 200 0 l 1
 0 0 l 1
10 10 m 1
 190 10 l 1
 190 390 l 1
 10 390 l 1
 10 10 l 1
EndSplineSet
EndChar

StartChar: uniE171
Encoding: 57713 57713 336
Width: 400
Flags: MW
HStem: 0 10<10 190 10 200> 390 10<10 190 10 10>
VStem: 0 10<10 10 10 390> 190 10<10 390 390 390>
LayerCount: 2
Fore
SplineSet
0 0 m 1
 0 400 l 1
 200 400 l 1
 200 0 l 1
 0 0 l 1
10 10 m 1
 190 10 l 1
 190 390 l 1
 10 390 l 1
 10 10 l 1
EndSplineSet
EndChar

StartChar: uniE172
Encoding: 57714 57714 337
Width: 400
Flags: MW
HStem: 0 10<10 190 10 200> 390 10<10 190 10 10>
VStem: 0 10<10 10 10 390> 190 10<10 390 390 390>
LayerCount: 2
Fore
SplineSet
0 0 m 1
 0 400 l 1
 200 400 l 1
 200 0 l 1
 0 0 l 1
10 10 m 1
 190 10 l 1
 190 390 l 1
 10 390 l 1
 10 10 l 1
EndSplineSet
EndChar

StartChar: uniE173
Encoding: 57715 57715 338
Width: 400
Flags: MW
HStem: 0 10<10 190 10 200> 390 10<10 190 10 10>
VStem: 0 10<10 10 10 390> 190 10<10 390 390 390>
LayerCount: 2
Fore
SplineSet
0 0 m 1
 0 400 l 1
 200 400 l 1
 200 0 l 1
 0 0 l 1
10 10 m 1
 190 10 l 1
 190 390 l 1
 10 390 l 1
 10 10 l 1
EndSplineSet
EndChar

StartChar: uniE174
Encoding: 57716 57716 339
Width: 400
Flags: MW
HStem: 0 10<10 190 10 200> 390 10<10 190 10 10>
VStem: 0 10<10 10 10 390> 190 10<10 390 390 390>
LayerCount: 2
Fore
SplineSet
0 0 m 1
 0 400 l 1
 200 400 l 1
 200 0 l 1
 0 0 l 1
10 10 m 1
 190 10 l 1
 190 390 l 1
 10 390 l 1
 10 10 l 1
EndSplineSet
EndChar

StartChar: uniE175
Encoding: 57717 57717 340
Width: 400
Flags: MW
HStem: 0 10<10 190 10 200> 390 10<10 190 10 10>
VStem: 0 10<10 10 10 390> 190 10<10 390 390 390>
LayerCount: 2
Fore
SplineSet
0 0 m 1
 0 400 l 1
 200 400 l 1
 200 0 l 1
 0 0 l 1
10 10 m 1
 190 10 l 1
 190 390 l 1
 10 390 l 1
 10 10 l 1
EndSplineSet
EndChar

StartChar: uniE176
Encoding: 57718 57718 341
Width: 400
Flags: MW
HStem: 0 10<10 190 10 200> 390 10<10 190 10 10>
VStem: 0 10<10 10 10 390> 190 10<10 390 390 390>
LayerCount: 2
Fore
SplineSet
0 0 m 1
 0 400 l 1
 200 400 l 1
 200 0 l 1
 0 0 l 1
10 10 m 1
 190 10 l 1
 190 390 l 1
 10 390 l 1
 10 10 l 1
EndSplineSet
EndChar

StartChar: uniE177
Encoding: 57719 57719 342
Width: 400
Flags: MW
HStem: 0 10<10 190 10 200> 390 10<10 190 10 10>
VStem: 0 10<10 10 10 390> 190 10<10 390 390 390>
LayerCount: 2
Fore
SplineSet
0 0 m 1
 0 400 l 1
 200 400 l 1
 200 0 l 1
 0 0 l 1
10 10 m 1
 190 10 l 1
 190 390 l 1
 10 390 l 1
 10 10 l 1
EndSplineSet
EndChar

StartChar: uniE178
Encoding: 57720 57720 343
Width: 400
Flags: MW
HStem: 0 10<10 190 10 200> 390 10<10 190 10 10>
VStem: 0 10<10 10 10 390> 190 10<10 390 390 390>
LayerCount: 2
Fore
SplineSet
0 0 m 1
 0 400 l 1
 200 400 l 1
 200 0 l 1
 0 0 l 1
10 10 m 1
 190 10 l 1
 190 390 l 1
 10 390 l 1
 10 10 l 1
EndSplineSet
EndChar

StartChar: uniE179
Encoding: 57721 57721 344
Width: 400
Flags: MW
HStem: 0 10<10 190 10 200> 390 10<10 190 10 10>
VStem: 0 10<10 10 10 390> 190 10<10 390 390 390>
LayerCount: 2
Fore
SplineSet
0 0 m 1
 0 400 l 1
 200 400 l 1
 200 0 l 1
 0 0 l 1
10 10 m 1
 190 10 l 1
 190 390 l 1
 10 390 l 1
 10 10 l 1
EndSplineSet
EndChar

StartChar: uniE17A
Encoding: 57722 57722 345
Width: 400
Flags: MW
HStem: 0 10<10 190 10 200> 390 10<10 190 10 10>
VStem: 0 10<10 10 10 390> 190 10<10 390 390 390>
LayerCount: 2
Fore
SplineSet
0 0 m 1
 0 400 l 1
 200 400 l 1
 200 0 l 1
 0 0 l 1
10 10 m 1
 190 10 l 1
 190 390 l 1
 10 390 l 1
 10 10 l 1
EndSplineSet
EndChar

StartChar: uniE17B
Encoding: 57723 57723 346
Width: 400
Flags: MW
HStem: 0 10<10 190 10 200> 390 10<10 190 10 10>
VStem: 0 10<10 10 10 390> 190 10<10 390 390 390>
LayerCount: 2
Fore
SplineSet
0 0 m 1
 0 400 l 1
 200 400 l 1
 200 0 l 1
 0 0 l 1
10 10 m 1
 190 10 l 1
 190 390 l 1
 10 390 l 1
 10 10 l 1
EndSplineSet
EndChar

StartChar: uniE17C
Encoding: 57724 57724 347
Width: 400
Flags: MW
HStem: 0 10<10 190 10 200> 390 10<10 190 10 10>
VStem: 0 10<10 10 10 390> 190 10<10 390 390 390>
LayerCount: 2
Fore
SplineSet
0 0 m 1
 0 400 l 1
 200 400 l 1
 200 0 l 1
 0 0 l 1
10 10 m 1
 190 10 l 1
 190 390 l 1
 10 390 l 1
 10 10 l 1
EndSplineSet
EndChar

StartChar: uniE17D
Encoding: 57725 57725 348
Width: 400
Flags: MW
HStem: 0 10<10 190 10 200> 390 10<10 190 10 10>
VStem: 0 10<10 10 10 390> 190 10<10 390 390 390>
LayerCount: 2
Fore
SplineSet
0 0 m 1
 0 400 l 1
 200 400 l 1
 200 0 l 1
 0 0 l 1
10 10 m 1
 190 10 l 1
 190 390 l 1
 10 390 l 1
 10 10 l 1
EndSplineSet
EndChar

StartChar: uniE17E
Encoding: 57726 57726 349
Width: 400
Flags: MW
HStem: 0 10<10 190 10 200> 390 10<10 190 10 10>
VStem: 0 10<10 10 10 390> 190 10<10 390 390 390>
LayerCount: 2
Fore
SplineSet
0 0 m 1
 0 400 l 1
 200 400 l 1
 200 0 l 1
 0 0 l 1
10 10 m 1
 190 10 l 1
 190 390 l 1
 10 390 l 1
 10 10 l 1
EndSplineSet
EndChar

StartChar: uniE17F
Encoding: 57727 57727 350
Width: 400
Flags: MW
HStem: 0 10<10 190 10 200> 390 10<10 190 10 10>
VStem: 0 10<10 10 10 390> 190 10<10 390 390 390>
LayerCount: 2
Fore
SplineSet
0 0 m 1
 0 400 l 1
 200 400 l 1
 200 0 l 1
 0 0 l 1
10 10 m 1
 190 10 l 1
 190 390 l 1
 10 390 l 1
 10 10 l 1
EndSplineSet
EndChar

StartChar: uniE180
Encoding: 57728 57728 351
Width: 400
Flags: MW
HStem: 0 10<10 190 10 200> 390 10<10 190 10 10>
VStem: 0 10<10 10 10 390> 190 10<10 390 390 390>
LayerCount: 2
Fore
SplineSet
0 0 m 1
 0 400 l 1
 200 400 l 1
 200 0 l 1
 0 0 l 1
10 10 m 1
 190 10 l 1
 190 390 l 1
 10 390 l 1
 10 10 l 1
EndSplineSet
EndChar

StartChar: uniE181
Encoding: 57729 57729 352
Width: 400
Flags: MW
HStem: 0 10<10 190 10 200> 390 10<10 190 10 10>
VStem: 0 10<10 10 10 390> 190 10<10 390 390 390>
LayerCount: 2
Fore
SplineSet
0 0 m 1
 0 400 l 1
 200 400 l 1
 200 0 l 1
 0 0 l 1
10 10 m 1
 190 10 l 1
 190 390 l 1
 10 390 l 1
 10 10 l 1
EndSplineSet
EndChar

StartChar: uniE182
Encoding: 57730 57730 353
Width: 400
Flags: MW
HStem: 0 10<10 190 10 200> 390 10<10 190 10 10>
VStem: 0 10<10 10 10 390> 190 10<10 390 390 390>
LayerCount: 2
Fore
SplineSet
0 0 m 1
 0 400 l 1
 200 400 l 1
 200 0 l 1
 0 0 l 1
10 10 m 1
 190 10 l 1
 190 390 l 1
 10 390 l 1
 10 10 l 1
EndSplineSet
EndChar

StartChar: uniE183
Encoding: 57731 57731 354
Width: 400
Flags: MW
HStem: 0 10<10 190 10 200> 390 10<10 190 10 10>
VStem: 0 10<10 10 10 390> 190 10<10 390 390 390>
LayerCount: 2
Fore
SplineSet
0 0 m 1
 0 400 l 1
 200 400 l 1
 200 0 l 1
 0 0 l 1
10 10 m 1
 190 10 l 1
 190 390 l 1
 10 390 l 1
 10 10 l 1
EndSplineSet
EndChar

StartChar: uniE184
Encoding: 57732 57732 355
Width: 400
Flags: MW
HStem: 0 10<10 190 10 200> 390 10<10 190 10 10>
VStem: 0 10<10 10 10 390> 190 10<10 390 390 390>
LayerCount: 2
Fore
SplineSet
0 0 m 1
 0 400 l 1
 200 400 l 1
 200 0 l 1
 0 0 l 1
10 10 m 1
 190 10 l 1
 190 390 l 1
 10 390 l 1
 10 10 l 1
EndSplineSet
EndChar

StartChar: uniE185
Encoding: 57733 57733 356
Width: 400
Flags: MW
HStem: 0 10<10 190 10 200> 390 10<10 190 10 10>
VStem: 0 10<10 10 10 390> 190 10<10 390 390 390>
LayerCount: 2
Fore
SplineSet
0 0 m 1
 0 400 l 1
 200 400 l 1
 200 0 l 1
 0 0 l 1
10 10 m 1
 190 10 l 1
 190 390 l 1
 10 390 l 1
 10 10 l 1
EndSplineSet
EndChar

StartChar: uniE186
Encoding: 57734 57734 357
Width: 400
Flags: MW
HStem: 0 10<10 190 10 200> 390 10<10 190 10 10>
VStem: 0 10<10 10 10 390> 190 10<10 390 390 390>
LayerCount: 2
Fore
SplineSet
0 0 m 1
 0 400 l 1
 200 400 l 1
 200 0 l 1
 0 0 l 1
10 10 m 1
 190 10 l 1
 190 390 l 1
 10 390 l 1
 10 10 l 1
EndSplineSet
EndChar

StartChar: uniE187
Encoding: 57735 57735 358
Width: 400
Flags: MW
HStem: 0 10<10 190 10 200> 390 10<10 190 10 10>
VStem: 0 10<10 10 10 390> 190 10<10 390 390 390>
LayerCount: 2
Fore
SplineSet
0 0 m 1
 0 400 l 1
 200 400 l 1
 200 0 l 1
 0 0 l 1
10 10 m 1
 190 10 l 1
 190 390 l 1
 10 390 l 1
 10 10 l 1
EndSplineSet
EndChar

StartChar: uniE188
Encoding: 57736 57736 359
Width: 400
Flags: MW
HStem: 0 10<10 190 10 200> 390 10<10 190 10 10>
VStem: 0 10<10 10 10 390> 190 10<10 390 390 390>
LayerCount: 2
Fore
SplineSet
0 0 m 1
 0 400 l 1
 200 400 l 1
 200 0 l 1
 0 0 l 1
10 10 m 1
 190 10 l 1
 190 390 l 1
 10 390 l 1
 10 10 l 1
EndSplineSet
EndChar

StartChar: uniE189
Encoding: 57737 57737 360
Width: 400
Flags: MW
HStem: 0 10<10 190 10 200> 390 10<10 190 10 10>
VStem: 0 10<10 10 10 390> 190 10<10 390 390 390>
LayerCount: 2
Fore
SplineSet
0 0 m 1
 0 400 l 1
 200 400 l 1
 200 0 l 1
 0 0 l 1
10 10 m 1
 190 10 l 1
 190 390 l 1
 10 390 l 1
 10 10 l 1
EndSplineSet
EndChar

StartChar: uniE18A
Encoding: 57738 57738 361
Width: 400
Flags: MW
HStem: 0 10<10 190 10 200> 390 10<10 190 10 10>
VStem: 0 10<10 10 10 390> 190 10<10 390 390 390>
LayerCount: 2
Fore
SplineSet
0 0 m 1
 0 400 l 1
 200 400 l 1
 200 0 l 1
 0 0 l 1
10 10 m 1
 190 10 l 1
 190 390 l 1
 10 390 l 1
 10 10 l 1
EndSplineSet
EndChar

StartChar: uniE18B
Encoding: 57739 57739 362
Width: 400
Flags: MW
HStem: 0 10<10 190 10 200> 390 10<10 190 10 10>
VStem: 0 10<10 10 10 390> 190 10<10 390 390 390>
LayerCount: 2
Fore
SplineSet
0 0 m 1
 0 400 l 1
 200 400 l 1
 200 0 l 1
 0 0 l 1
10 10 m 1
 190 10 l 1
 190 390 l 1
 10 390 l 1
 10 10 l 1
EndSplineSet
EndChar

StartChar: uniE18C
Encoding: 57740 57740 363
Width: 400
Flags: MW
HStem: 0 10<10 190 10 200> 390 10<10 190 10 10>
VStem: 0 10<10 10 10 390> 190 10<10 390 390 390>
LayerCount: 2
Fore
SplineSet
0 0 m 1
 0 400 l 1
 200 400 l 1
 200 0 l 1
 0 0 l 1
10 10 m 1
 190 10 l 1
 190 390 l 1
 10 390 l 1
 10 10 l 1
EndSplineSet
EndChar

StartChar: uniE18D
Encoding: 57741 57741 364
Width: 400
Flags: MW
HStem: 0 10<10 190 10 200> 390 10<10 190 10 10>
VStem: 0 10<10 10 10 390> 190 10<10 390 390 390>
LayerCount: 2
Fore
SplineSet
0 0 m 1
 0 400 l 1
 200 400 l 1
 200 0 l 1
 0 0 l 1
10 10 m 1
 190 10 l 1
 190 390 l 1
 10 390 l 1
 10 10 l 1
EndSplineSet
EndChar

StartChar: uniE18E
Encoding: 57742 57742 365
Width: 400
Flags: MW
HStem: 0 10<10 190 10 200> 390 10<10 190 10 10>
VStem: 0 10<10 10 10 390> 190 10<10 390 390 390>
LayerCount: 2
Fore
SplineSet
0 0 m 1
 0 400 l 1
 200 400 l 1
 200 0 l 1
 0 0 l 1
10 10 m 1
 190 10 l 1
 190 390 l 1
 10 390 l 1
 10 10 l 1
EndSplineSet
EndChar

StartChar: uniE18F
Encoding: 57743 57743 366
Width: 400
Flags: MW
HStem: 0 10<10 190 10 200> 390 10<10 190 10 10>
VStem: 0 10<10 10 10 390> 190 10<10 390 390 390>
LayerCount: 2
Fore
SplineSet
0 0 m 1
 0 400 l 1
 200 400 l 1
 200 0 l 1
 0 0 l 1
10 10 m 1
 190 10 l 1
 190 390 l 1
 10 390 l 1
 10 10 l 1
EndSplineSet
EndChar

StartChar: uniE190
Encoding: 57744 57744 367
Width: 400
Flags: MW
HStem: 0 10<10 190 10 200> 390 10<10 190 10 10>
VStem: 0 10<10 10 10 390> 190 10<10 390 390 390>
LayerCount: 2
Fore
SplineSet
0 0 m 1
 0 400 l 1
 200 400 l 1
 200 0 l 1
 0 0 l 1
10 10 m 1
 190 10 l 1
 190 390 l 1
 10 390 l 1
 10 10 l 1
EndSplineSet
EndChar

StartChar: uniE191
Encoding: 57745 57745 368
Width: 400
Flags: MW
HStem: 0 10<10 190 10 200> 390 10<10 190 10 10>
VStem: 0 10<10 10 10 390> 190 10<10 390 390 390>
LayerCount: 2
Fore
SplineSet
0 0 m 1
 0 400 l 1
 200 400 l 1
 200 0 l 1
 0 0 l 1
10 10 m 1
 190 10 l 1
 190 390 l 1
 10 390 l 1
 10 10 l 1
EndSplineSet
EndChar

StartChar: uniE192
Encoding: 57746 57746 369
Width: 400
Flags: MW
HStem: 0 10<10 190 10 200> 390 10<10 190 10 10>
VStem: 0 10<10 10 10 390> 190 10<10 390 390 390>
LayerCount: 2
Fore
SplineSet
0 0 m 1
 0 400 l 1
 200 400 l 1
 200 0 l 1
 0 0 l 1
10 10 m 1
 190 10 l 1
 190 390 l 1
 10 390 l 1
 10 10 l 1
EndSplineSet
EndChar

StartChar: uniE193
Encoding: 57747 57747 370
Width: 400
Flags: MW
HStem: 0 10<10 190 10 200> 390 10<10 190 10 10>
VStem: 0 10<10 10 10 390> 190 10<10 390 390 390>
LayerCount: 2
Fore
SplineSet
0 0 m 1
 0 400 l 1
 200 400 l 1
 200 0 l 1
 0 0 l 1
10 10 m 1
 190 10 l 1
 190 390 l 1
 10 390 l 1
 10 10 l 1
EndSplineSet
EndChar

StartChar: uniE194
Encoding: 57748 57748 371
Width: 400
Flags: MW
HStem: 0 10<10 190 10 200> 390 10<10 190 10 10>
VStem: 0 10<10 10 10 390> 190 10<10 390 390 390>
LayerCount: 2
Fore
SplineSet
0 0 m 1
 0 400 l 1
 200 400 l 1
 200 0 l 1
 0 0 l 1
10 10 m 1
 190 10 l 1
 190 390 l 1
 10 390 l 1
 10 10 l 1
EndSplineSet
EndChar

StartChar: uniE195
Encoding: 57749 57749 372
Width: 400
Flags: MW
HStem: 0 10<10 190 10 200> 390 10<10 190 10 10>
VStem: 0 10<10 10 10 390> 190 10<10 390 390 390>
LayerCount: 2
Fore
SplineSet
0 0 m 1
 0 400 l 1
 200 400 l 1
 200 0 l 1
 0 0 l 1
10 10 m 1
 190 10 l 1
 190 390 l 1
 10 390 l 1
 10 10 l 1
EndSplineSet
EndChar

StartChar: uniE196
Encoding: 57750 57750 373
Width: 400
Flags: MW
HStem: 0 10<10 190 10 200> 390 10<10 190 10 10>
VStem: 0 10<10 10 10 390> 190 10<10 390 390 390>
LayerCount: 2
Fore
SplineSet
0 0 m 1
 0 400 l 1
 200 400 l 1
 200 0 l 1
 0 0 l 1
10 10 m 1
 190 10 l 1
 190 390 l 1
 10 390 l 1
 10 10 l 1
EndSplineSet
EndChar

StartChar: uniE197
Encoding: 57751 57751 374
Width: 400
Flags: MW
HStem: 0 10<10 190 10 200> 390 10<10 190 10 10>
VStem: 0 10<10 10 10 390> 190 10<10 390 390 390>
LayerCount: 2
Fore
SplineSet
0 0 m 1
 0 400 l 1
 200 400 l 1
 200 0 l 1
 0 0 l 1
10 10 m 1
 190 10 l 1
 190 390 l 1
 10 390 l 1
 10 10 l 1
EndSplineSet
EndChar

StartChar: uniE198
Encoding: 57752 57752 375
Width: 400
Flags: MW
HStem: 0 10<10 190 10 200> 390 10<10 190 10 10>
VStem: 0 10<10 10 10 390> 190 10<10 390 390 390>
LayerCount: 2
Fore
SplineSet
0 0 m 1
 0 400 l 1
 200 400 l 1
 200 0 l 1
 0 0 l 1
10 10 m 1
 190 10 l 1
 190 390 l 1
 10 390 l 1
 10 10 l 1
EndSplineSet
EndChar

StartChar: uniE199
Encoding: 57753 57753 376
Width: 400
Flags: MW
HStem: 0 10<10 190 10 200> 390 10<10 190 10 10>
VStem: 0 10<10 10 10 390> 190 10<10 390 390 390>
LayerCount: 2
Fore
SplineSet
0 0 m 1
 0 400 l 1
 200 400 l 1
 200 0 l 1
 0 0 l 1
10 10 m 1
 190 10 l 1
 190 390 l 1
 10 390 l 1
 10 10 l 1
EndSplineSet
EndChar

StartChar: uniE19A
Encoding: 57754 57754 377
Width: 400
Flags: MW
HStem: 0 10<10 190 10 200> 390 10<10 190 10 10>
VStem: 0 10<10 10 10 390> 190 10<10 390 390 390>
LayerCount: 2
Fore
SplineSet
0 0 m 1
 0 400 l 1
 200 400 l 1
 200 0 l 1
 0 0 l 1
10 10 m 1
 190 10 l 1
 190 390 l 1
 10 390 l 1
 10 10 l 1
EndSplineSet
EndChar

StartChar: uniE19B
Encoding: 57755 57755 378
Width: 400
Flags: MW
HStem: 0 10<10 190 10 200> 390 10<10 190 10 10>
VStem: 0 10<10 10 10 390> 190 10<10 390 390 390>
LayerCount: 2
Fore
SplineSet
0 0 m 1
 0 400 l 1
 200 400 l 1
 200 0 l 1
 0 0 l 1
10 10 m 1
 190 10 l 1
 190 390 l 1
 10 390 l 1
 10 10 l 1
EndSplineSet
EndChar

StartChar: uniE19C
Encoding: 57756 57756 379
Width: 400
Flags: MW
HStem: 0 10<10 190 10 200> 390 10<10 190 10 10>
VStem: 0 10<10 10 10 390> 190 10<10 390 390 390>
LayerCount: 2
Fore
SplineSet
0 0 m 1
 0 400 l 1
 200 400 l 1
 200 0 l 1
 0 0 l 1
10 10 m 1
 190 10 l 1
 190 390 l 1
 10 390 l 1
 10 10 l 1
EndSplineSet
EndChar

StartChar: uniE19D
Encoding: 57757 57757 380
Width: 400
Flags: MW
HStem: 0 10<10 190 10 200> 390 10<10 190 10 10>
VStem: 0 10<10 10 10 390> 190 10<10 390 390 390>
LayerCount: 2
Fore
SplineSet
0 0 m 1
 0 400 l 1
 200 400 l 1
 200 0 l 1
 0 0 l 1
10 10 m 1
 190 10 l 1
 190 390 l 1
 10 390 l 1
 10 10 l 1
EndSplineSet
EndChar

StartChar: uniE19E
Encoding: 57758 57758 381
Width: 400
Flags: MW
HStem: 0 10<10 190 10 200> 390 10<10 190 10 10>
VStem: 0 10<10 10 10 390> 190 10<10 390 390 390>
LayerCount: 2
Fore
SplineSet
0 0 m 1
 0 400 l 1
 200 400 l 1
 200 0 l 1
 0 0 l 1
10 10 m 1
 190 10 l 1
 190 390 l 1
 10 390 l 1
 10 10 l 1
EndSplineSet
EndChar

StartChar: uniE19F
Encoding: 57759 57759 382
Width: 400
Flags: MW
HStem: 0 10<10 190 10 200> 390 10<10 190 10 10>
VStem: 0 10<10 10 10 390> 190 10<10 390 390 390>
LayerCount: 2
Fore
SplineSet
0 0 m 1
 0 400 l 1
 200 400 l 1
 200 0 l 1
 0 0 l 1
10 10 m 1
 190 10 l 1
 190 390 l 1
 10 390 l 1
 10 10 l 1
EndSplineSet
EndChar

StartChar: uniE1A0
Encoding: 57760 57760 383
Width: 400
Flags: MW
HStem: 0 10<10 190 10 200> 390 10<10 190 10 10>
VStem: 0 10<10 10 10 390> 190 10<10 390 390 390>
LayerCount: 2
Fore
SplineSet
0 0 m 1
 0 400 l 1
 200 400 l 1
 200 0 l 1
 0 0 l 1
10 10 m 1
 190 10 l 1
 190 390 l 1
 10 390 l 1
 10 10 l 1
EndSplineSet
EndChar

StartChar: uniE1A1
Encoding: 57761 57761 384
Width: 400
Flags: MW
HStem: 0 10<10 190 10 200> 390 10<10 190 10 10>
VStem: 0 10<10 10 10 390> 190 10<10 390 390 390>
LayerCount: 2
Fore
SplineSet
0 0 m 1
 0 400 l 1
 200 400 l 1
 200 0 l 1
 0 0 l 1
10 10 m 1
 190 10 l 1
 190 390 l 1
 10 390 l 1
 10 10 l 1
EndSplineSet
EndChar

StartChar: uniE1A2
Encoding: 57762 57762 385
Width: 400
Flags: MW
HStem: 0 10<10 190 10 200> 390 10<10 190 10 10>
VStem: 0 10<10 10 10 390> 190 10<10 390 390 390>
LayerCount: 2
Fore
SplineSet
0 0 m 1
 0 400 l 1
 200 400 l 1
 200 0 l 1
 0 0 l 1
10 10 m 1
 190 10 l 1
 190 390 l 1
 10 390 l 1
 10 10 l 1
EndSplineSet
EndChar

StartChar: uniE1A3
Encoding: 57763 57763 386
Width: 400
Flags: MW
HStem: 0 10<10 190 10 200> 390 10<10 190 10 10>
VStem: 0 10<10 10 10 390> 190 10<10 390 390 390>
LayerCount: 2
Fore
SplineSet
0 0 m 1
 0 400 l 1
 200 400 l 1
 200 0 l 1
 0 0 l 1
10 10 m 1
 190 10 l 1
 190 390 l 1
 10 390 l 1
 10 10 l 1
EndSplineSet
EndChar

StartChar: uniE1A4
Encoding: 57764 57764 387
Width: 400
Flags: MW
HStem: 0 10<10 190 10 200> 390 10<10 190 10 10>
VStem: 0 10<10 10 10 390> 190 10<10 390 390 390>
LayerCount: 2
Fore
SplineSet
0 0 m 1
 0 400 l 1
 200 400 l 1
 200 0 l 1
 0 0 l 1
10 10 m 1
 190 10 l 1
 190 390 l 1
 10 390 l 1
 10 10 l 1
EndSplineSet
EndChar

StartChar: uniE1A5
Encoding: 57765 57765 388
Width: 400
Flags: MW
HStem: 0 10<10 190 10 200> 390 10<10 190 10 10>
VStem: 0 10<10 10 10 390> 190 10<10 390 390 390>
LayerCount: 2
Fore
SplineSet
0 0 m 1
 0 400 l 1
 200 400 l 1
 200 0 l 1
 0 0 l 1
10 10 m 1
 190 10 l 1
 190 390 l 1
 10 390 l 1
 10 10 l 1
EndSplineSet
EndChar

StartChar: uniE1A6
Encoding: 57766 57766 389
Width: 400
Flags: MW
HStem: 0 10<10 190 10 200> 390 10<10 190 10 10>
VStem: 0 10<10 10 10 390> 190 10<10 390 390 390>
LayerCount: 2
Fore
SplineSet
0 0 m 1
 0 400 l 1
 200 400 l 1
 200 0 l 1
 0 0 l 1
10 10 m 1
 190 10 l 1
 190 390 l 1
 10 390 l 1
 10 10 l 1
EndSplineSet
EndChar

StartChar: uniE1A7
Encoding: 57767 57767 390
Width: 400
Flags: MW
HStem: 0 10<10 190 10 200> 390 10<10 190 10 10>
VStem: 0 10<10 10 10 390> 190 10<10 390 390 390>
LayerCount: 2
Fore
SplineSet
0 0 m 1
 0 400 l 1
 200 400 l 1
 200 0 l 1
 0 0 l 1
10 10 m 1
 190 10 l 1
 190 390 l 1
 10 390 l 1
 10 10 l 1
EndSplineSet
EndChar

StartChar: uniE1A8
Encoding: 57768 57768 391
Width: 400
Flags: MW
HStem: 0 10<10 190 10 200> 390 10<10 190 10 10>
VStem: 0 10<10 10 10 390> 190 10<10 390 390 390>
LayerCount: 2
Fore
SplineSet
0 0 m 1
 0 400 l 1
 200 400 l 1
 200 0 l 1
 0 0 l 1
10 10 m 1
 190 10 l 1
 190 390 l 1
 10 390 l 1
 10 10 l 1
EndSplineSet
EndChar

StartChar: uniE1A9
Encoding: 57769 57769 392
Width: 400
Flags: MW
HStem: 0 10<10 190 10 200> 390 10<10 190 10 10>
VStem: 0 10<10 10 10 390> 190 10<10 390 390 390>
LayerCount: 2
Fore
SplineSet
0 0 m 1
 0 400 l 1
 200 400 l 1
 200 0 l 1
 0 0 l 1
10 10 m 1
 190 10 l 1
 190 390 l 1
 10 390 l 1
 10 10 l 1
EndSplineSet
EndChar

StartChar: uniE1AA
Encoding: 57770 57770 393
Width: 400
Flags: MW
HStem: 0 10<10 190 10 200> 390 10<10 190 10 10>
VStem: 0 10<10 10 10 390> 190 10<10 390 390 390>
LayerCount: 2
Fore
SplineSet
0 0 m 1
 0 400 l 1
 200 400 l 1
 200 0 l 1
 0 0 l 1
10 10 m 1
 190 10 l 1
 190 390 l 1
 10 390 l 1
 10 10 l 1
EndSplineSet
EndChar

StartChar: uniE1AB
Encoding: 57771 57771 394
Width: 400
Flags: MW
HStem: 0 10<10 190 10 200> 390 10<10 190 10 10>
VStem: 0 10<10 10 10 390> 190 10<10 390 390 390>
LayerCount: 2
Fore
SplineSet
0 0 m 1
 0 400 l 1
 200 400 l 1
 200 0 l 1
 0 0 l 1
10 10 m 1
 190 10 l 1
 190 390 l 1
 10 390 l 1
 10 10 l 1
EndSplineSet
EndChar

StartChar: uniE1AC
Encoding: 57772 57772 395
Width: 400
Flags: MW
HStem: 0 10<10 190 10 200> 390 10<10 190 10 10>
VStem: 0 10<10 10 10 390> 190 10<10 390 390 390>
LayerCount: 2
Fore
SplineSet
0 0 m 1
 0 400 l 1
 200 400 l 1
 200 0 l 1
 0 0 l 1
10 10 m 1
 190 10 l 1
 190 390 l 1
 10 390 l 1
 10 10 l 1
EndSplineSet
EndChar

StartChar: uniE1AD
Encoding: 57773 57773 396
Width: 400
Flags: MW
HStem: 0 10<10 190 10 200> 390 10<10 190 10 10>
VStem: 0 10<10 10 10 390> 190 10<10 390 390 390>
LayerCount: 2
Fore
SplineSet
0 0 m 1
 0 400 l 1
 200 400 l 1
 200 0 l 1
 0 0 l 1
10 10 m 1
 190 10 l 1
 190 390 l 1
 10 390 l 1
 10 10 l 1
EndSplineSet
EndChar

StartChar: uniE1AE
Encoding: 57774 57774 397
Width: 400
Flags: MW
HStem: 0 10<10 190 10 200> 390 10<10 190 10 10>
VStem: 0 10<10 10 10 390> 190 10<10 390 390 390>
LayerCount: 2
Fore
SplineSet
0 0 m 1
 0 400 l 1
 200 400 l 1
 200 0 l 1
 0 0 l 1
10 10 m 1
 190 10 l 1
 190 390 l 1
 10 390 l 1
 10 10 l 1
EndSplineSet
EndChar

StartChar: uniE1AF
Encoding: 57775 57775 398
Width: 400
Flags: MW
HStem: 0 10<10 190 10 200> 390 10<10 190 10 10>
VStem: 0 10<10 10 10 390> 190 10<10 390 390 390>
LayerCount: 2
Fore
SplineSet
0 0 m 1
 0 400 l 1
 200 400 l 1
 200 0 l 1
 0 0 l 1
10 10 m 1
 190 10 l 1
 190 390 l 1
 10 390 l 1
 10 10 l 1
EndSplineSet
EndChar

StartChar: uniE1B0
Encoding: 57776 57776 399
Width: 316
Flags: MW
HStem: -135 37<81.5 88 50 167> 98 37<228 234.5 149 266>
VStem: 0 35<-66 -55.5 -85.5 9> 281 35<55.5 66 -9 85.5>
LayerCount: 2
Fore
SplineSet
0 -37 m 0
 0 55 97 135 201 135 c 0
 268 135 316 95 316 37 c 0
 316 -55 219 -135 115 -135 c 0
 48 -135 0 -95 0 -37 c 0
35 -80 m 0
 35 -91 43 -98 57 -98 c 0
 119 -98 281 31 281 80 c 0
 281 91 273 98 259 98 c 0
 197 98 35 -31 35 -80 c 0
EndSplineSet
EndChar

StartChar: uniE1B1
Encoding: 57777 57777 400
Width: 316
Flags: MW
HStem: -135 270<149 167>
VStem: 0 316<-9 9>
LayerCount: 2
Fore
SplineSet
0 -37 m 0
 0 55 97 135 201 135 c 0
 268 135 316 95 316 37 c 0
 316 -55 219 -135 115 -135 c 0
 48 -135 0 -95 0 -37 c 0
EndSplineSet
EndChar

StartChar: uniE1B2
Encoding: 57778 57778 401
Width: 330
Flags: MW
HStem: -114 56<10 302 28 302 28 316> 58 56<28 28 28 302>
VStem: 0 28<-58 58 -58 100> 302 28<-58 58 58 58>
LayerCount: 2
Fore
SplineSet
0 -100 m 2
 0 100 l 2
 0 108 6 114 14 114 c 2
 316 114 l 2
 324 114 330 108 330 100 c 2
 330 -100 l 2
 330 -108 324 -114 316 -114 c 2
 14 -114 l 2
 6 -114 0 -108 0 -100 c 2
28 58 m 1
 28 -58 l 1
 302 -58 l 1
 302 58 l 1
 28 58 l 1
EndSplineSet
EndChar

StartChar: uniE1B3
Encoding: 57779 57779 402
Width: 330
Flags: MW
HStem: -114 228<10 316 14 316>
VStem: 0 330<-100 100 -104 104>
LayerCount: 2
Fore
SplineSet
0 -100 m 2
 0 100 l 2
 0 108 6 114 14 114 c 2
 316 114 l 2
 324 114 330 108 330 100 c 2
 330 -100 l 2
 330 -108 324 -114 316 -114 c 2
 14 -114 l 2
 6 -114 0 -108 0 -100 c 2
EndSplineSet
EndChar

StartChar: uniE1B4
Encoding: 57780 57780 403
Width: 330
Flags: MW
HStem: -114 49<10 238 28 238 28 316>
VStem: 0 28<-65 -65 -65 74>
LayerCount: 2
Fore
SplineSet
0 -100 m 2
 0 100 l 2
 0 108 6 114 14 114 c 0
 17 114 20 114 22 112 c 2
 324 -88 l 2
 328 -91 330 -95 330 -100 c 0
 330 -108 324 -114 316 -114 c 2
 14 -114 l 2
 6 -114 0 -108 0 -100 c 2
28 -65 m 1
 238 -65 l 1
 28 74 l 1
 28 -65 l 1
EndSplineSet
EndChar

StartChar: uniE1B5
Encoding: 57781 57781 404
Width: 330
Flags: MW
HStem: -114 228<10 14 14 15.5 10 316>
VStem: 0 330<-100 -97.5 -104 100 -104 104>
LayerCount: 2
Fore
SplineSet
0 -100 m 2
 0 100 l 2
 0 108 6 114 14 114 c 0
 17 114 20 114 22 112 c 2
 324 -88 l 2
 328 -91 330 -95 330 -100 c 0
 330 -108 324 -114 316 -114 c 2
 14 -114 l 2
 6 -114 0 -108 0 -100 c 2
EndSplineSet
EndChar

StartChar: uniE1B6
Encoding: 57782 57782 405
Width: 330
Flags: MW
HStem: 65 49<92 92 92 302>
VStem: 302 28<-74 65 65 65>
LayerCount: 2
Fore
SplineSet
0 100 m 0
 0 108 6 114 14 114 c 2
 316 114 l 2
 324 114 330 108 330 100 c 2
 330 -100 l 2
 330 -108 324 -114 316 -114 c 0
 313 -114 310 -114 308 -112 c 2
 6 88 l 2
 2 91 0 95 0 100 c 0
92 65 m 1
 302 -74 l 1
 302 65 l 1
 92 65 l 1
EndSplineSet
EndChar

StartChar: uniE1B7
Encoding: 57783 57783 406
Width: 330
Flags: MW
HStem: -114 228<314.5 316 316 320>
VStem: 0 330<97.5 100 -104 104>
LayerCount: 2
Fore
SplineSet
0 100 m 0
 0 108 6 114 14 114 c 2
 316 114 l 2
 324 114 330 108 330 100 c 2
 330 -100 l 2
 330 -108 324 -114 316 -114 c 0
 313 -114 310 -114 308 -112 c 2
 6 88 l 2
 2 91 0 95 0 100 c 0
EndSplineSet
EndChar

StartChar: uniE1B8
Encoding: 57784 57784 407
Width: 330
Flags: MW
HStem: -114 228<163.5 166.5>
VStem: 0 330<-2.5 2.5>
LayerCount: 2
Fore
SplineSet
6 -12 m 2
 2 -9 0 -5 0 0 c 0
 0 5 2 9 6 12 c 2
 157 112 l 2
 159 114 162 114 165 114 c 0
 168 114 171 114 173 112 c 2
 324 12 l 2
 328 9 330 5 330 0 c 0
 330 -5 328 -9 324 -12 c 2
 173 -112 l 2
 171 -114 168 -114 165 -114 c 0
 162 -114 159 -114 157 -112 c 2
 6 -12 l 2
65 17 m 1
 191 -66 l 1
 265 -17 l 1
 139 66 l 1
 65 17 l 1
EndSplineSet
EndChar

StartChar: uniE1B9
Encoding: 57785 57785 408
Width: 330
Flags: MW
HStem: -114 228<163.5 166.5>
VStem: 0 330<-2.5 2.5>
LayerCount: 2
Fore
SplineSet
6 -12 m 2
 2 -9 0 -5 0 0 c 0
 0 5 2 9 6 12 c 2
 157 112 l 2
 159 114 162 114 165 114 c 0
 168 114 171 114 173 112 c 2
 324 12 l 2
 328 9 330 5 330 0 c 0
 330 -5 328 -9 324 -12 c 2
 173 -112 l 2
 171 -114 168 -114 165 -114 c 0
 162 -114 159 -114 157 -112 c 2
 6 -12 l 2
EndSplineSet
EndChar

StartChar: uniE1BA
Encoding: 57786 57786 409
Width: 330
Flags: MW
HStem: -114 56<83 267 83 316>
VStem: 0 330<-104 -98.5>
LayerCount: 2
Fore
SplineSet
0 -100 m 0
 0 -97 1 -94 3 -92 c 2
 153 109 l 2
 156 113 161 114 165 114 c 0
 169 114 174 113 177 109 c 2
 327 -92 l 2
 329 -94 330 -97 330 -100 c 0
 330 -108 324 -114 316 -114 c 2
 14 -114 l 2
 6 -114 0 -108 0 -100 c 0
83 -58 m 1
 267 -58 l 1
 175 64 l 1
 83 -58 l 1
EndSplineSet
EndChar

StartChar: uniE1BB
Encoding: 57787 57787 410
Width: 330
Flags: MW
HStem: -114 228<10 167 163 167 163 316>
VStem: 0 330<-104 -98.5>
LayerCount: 2
Fore
SplineSet
0 -100 m 0
 0 -97 1 -94 3 -92 c 2
 153 109 l 2
 156 113 161 114 165 114 c 0
 169 114 174 113 177 109 c 2
 327 -92 l 2
 329 -94 330 -97 330 -100 c 0
 330 -108 324 -114 316 -114 c 2
 14 -114 l 2
 6 -114 0 -108 0 -100 c 0
EndSplineSet
EndChar

StartChar: uniE1BC
Encoding: 57788 57788 411
Width: 330
Flags: MW
HStem: -114 70<131.5 198.5 131.5 209.5> 58 56<28 302 28 28>
VStem: 0 28<40 58 10.5 100> 302 28<40 58 58 58>
LayerCount: 2
Fore
SplineSet
0 40 m 2
 0 100 l 2
 0 108 6 114 14 114 c 2
 316 114 l 2
 324 114 330 108 330 100 c 2
 330 40 l 2
 330 -47 254 -114 165 -114 c 0
 76 -114 0 -47 0 40 c 2
28 40 m 2
 28 -19 98 -44 165 -44 c 0
 232 -44 302 -19 302 40 c 2
 302 58 l 1
 28 58 l 1
 28 40 l 2
EndSplineSet
EndChar

StartChar: uniE1BD
Encoding: 57789 57789 412
Width: 330
Flags: MW
HStem: -114 228<120.5 209.5>
VStem: 0 330<40 100 -3.5 104>
LayerCount: 2
Fore
SplineSet
0 40 m 2
 0 100 l 2
 0 108 6 114 14 114 c 2
 316 114 l 2
 324 114 330 108 330 100 c 2
 330 40 l 2
 330 -47 254 -114 165 -114 c 0
 76 -114 0 -47 0 40 c 2
EndSplineSet
EndChar

StartChar: uniE1BE
Encoding: 57790 57790 413
Width: 330
Flags: MW
HStem: -114 56<165 165 165 166.5> 86 28<139.5 190.5>
VStem: 0 330<26 29.5>
LayerCount: 2
Fore
SplineSet
0 28 m 0
 0 31 1 34 3 37 c 0
 42 86 102 114 165 114 c 0
 228 114 288 86 327 37 c 0
 329 34 330 31 330 28 c 0
 330 24 328 20 325 17 c 2
 175 -111 l 2
 172 -113 168 -114 165 -114 c 0
 162 -114 158 -113 155 -111 c 2
 5 17 l 2
 2 20 0 24 0 28 c 0
49 8 m 1
 165 -58 l 1
 281 8 l 1
 262 55 216 86 165 86 c 0
 114 86 68 55 49 8 c 1
EndSplineSet
EndChar

StartChar: uniE1BF
Encoding: 57791 57791 414
Width: 330
Flags: MW
HStem: -114 228<163.5 166.5>
VStem: 0 330<26 29.5>
LayerCount: 2
Fore
SplineSet
0 28 m 0
 0 31 1 34 3 37 c 0
 42 86 102 114 165 114 c 0
 228 114 288 86 327 37 c 0
 329 34 330 31 330 28 c 0
 330 24 328 20 325 17 c 2
 175 -111 l 2
 172 -113 168 -114 165 -114 c 0
 162 -114 158 -113 155 -111 c 2
 5 17 l 2
 2 20 0 24 0 28 c 0
EndSplineSet
EndChar

StartChar: uniE1C0
Encoding: 57792 57792 415
Width: 400
Flags: MW
HStem: 0 10<10 190 10 200> 390 10<10 190 10 10>
VStem: 0 10<10 10 10 390> 190 10<10 390 390 390>
LayerCount: 2
Fore
SplineSet
0 0 m 1
 0 400 l 1
 200 400 l 1
 200 0 l 1
 0 0 l 1
10 10 m 1
 190 10 l 1
 190 390 l 1
 10 390 l 1
 10 10 l 1
EndSplineSet
EndChar

StartChar: uniE1C1
Encoding: 57793 57793 416
Width: 400
Flags: MW
HStem: 0 10<10 190 10 200> 390 10<10 190 10 10>
VStem: 0 10<10 10 10 390> 190 10<10 390 390 390>
LayerCount: 2
Fore
SplineSet
0 0 m 1
 0 400 l 1
 200 400 l 1
 200 0 l 1
 0 0 l 1
10 10 m 1
 190 10 l 1
 190 390 l 1
 10 390 l 1
 10 10 l 1
EndSplineSet
EndChar

StartChar: uniE1C2
Encoding: 57794 57794 417
Width: 400
Flags: MW
HStem: 0 10<10 190 10 200> 390 10<10 190 10 10>
VStem: 0 10<10 10 10 390> 190 10<10 390 390 390>
LayerCount: 2
Fore
SplineSet
0 0 m 1
 0 400 l 1
 200 400 l 1
 200 0 l 1
 0 0 l 1
10 10 m 1
 190 10 l 1
 190 390 l 1
 10 390 l 1
 10 10 l 1
EndSplineSet
EndChar

StartChar: uniE1C3
Encoding: 57795 57795 418
Width: 400
Flags: MW
HStem: 0 10<10 190 10 200> 390 10<10 190 10 10>
VStem: 0 10<10 10 10 390> 190 10<10 390 390 390>
LayerCount: 2
Fore
SplineSet
0 0 m 1
 0 400 l 1
 200 400 l 1
 200 0 l 1
 0 0 l 1
10 10 m 1
 190 10 l 1
 190 390 l 1
 10 390 l 1
 10 10 l 1
EndSplineSet
EndChar

StartChar: uniE1C4
Encoding: 57796 57796 419
Width: 400
Flags: MW
HStem: 0 10<10 190 10 200> 390 10<10 190 10 10>
VStem: 0 10<10 10 10 390> 190 10<10 390 390 390>
LayerCount: 2
Fore
SplineSet
0 0 m 1
 0 400 l 1
 200 400 l 1
 200 0 l 1
 0 0 l 1
10 10 m 1
 190 10 l 1
 190 390 l 1
 10 390 l 1
 10 10 l 1
EndSplineSet
EndChar

StartChar: uniE1C5
Encoding: 57797 57797 420
Width: 400
Flags: MW
HStem: 0 10<10 190 10 200> 390 10<10 190 10 10>
VStem: 0 10<10 10 10 390> 190 10<10 390 390 390>
LayerCount: 2
Fore
SplineSet
0 0 m 1
 0 400 l 1
 200 400 l 1
 200 0 l 1
 0 0 l 1
10 10 m 1
 190 10 l 1
 190 390 l 1
 10 390 l 1
 10 10 l 1
EndSplineSet
EndChar

StartChar: uniE1C6
Encoding: 57798 57798 421
Width: 400
Flags: MW
HStem: 0 10<10 190 10 200> 390 10<10 190 10 10>
VStem: 0 10<10 10 10 390> 190 10<10 390 390 390>
LayerCount: 2
Fore
SplineSet
0 0 m 1
 0 400 l 1
 200 400 l 1
 200 0 l 1
 0 0 l 1
10 10 m 1
 190 10 l 1
 190 390 l 1
 10 390 l 1
 10 10 l 1
EndSplineSet
EndChar

StartChar: uniE1C7
Encoding: 57799 57799 422
Width: 400
Flags: MW
HStem: 0 10<10 190 10 200> 390 10<10 190 10 10>
VStem: 0 10<10 10 10 390> 190 10<10 390 390 390>
LayerCount: 2
Fore
SplineSet
0 0 m 1
 0 400 l 1
 200 400 l 1
 200 0 l 1
 0 0 l 1
10 10 m 1
 190 10 l 1
 190 390 l 1
 10 390 l 1
 10 10 l 1
EndSplineSet
EndChar

StartChar: uniE1C8
Encoding: 57800 57800 423
Width: 400
Flags: MW
HStem: 0 10<10 190 10 200> 390 10<10 190 10 10>
VStem: 0 10<10 10 10 390> 190 10<10 390 390 390>
LayerCount: 2
Fore
SplineSet
0 0 m 1
 0 400 l 1
 200 400 l 1
 200 0 l 1
 0 0 l 1
10 10 m 1
 190 10 l 1
 190 390 l 1
 10 390 l 1
 10 10 l 1
EndSplineSet
EndChar

StartChar: uniE1C9
Encoding: 57801 57801 424
Width: 400
Flags: MW
HStem: 0 10<10 190 10 200> 390 10<10 190 10 10>
VStem: 0 10<10 10 10 390> 190 10<10 390 390 390>
LayerCount: 2
Fore
SplineSet
0 0 m 1
 0 400 l 1
 200 400 l 1
 200 0 l 1
 0 0 l 1
10 10 m 1
 190 10 l 1
 190 390 l 1
 10 390 l 1
 10 10 l 1
EndSplineSet
EndChar

StartChar: uniE1CA
Encoding: 57802 57802 425
Width: 400
Flags: MW
HStem: 0 10<10 190 10 200> 390 10<10 190 10 10>
VStem: 0 10<10 10 10 390> 190 10<10 390 390 390>
LayerCount: 2
Fore
SplineSet
0 0 m 1
 0 400 l 1
 200 400 l 1
 200 0 l 1
 0 0 l 1
10 10 m 1
 190 10 l 1
 190 390 l 1
 10 390 l 1
 10 10 l 1
EndSplineSet
EndChar

StartChar: uniE1CB
Encoding: 57803 57803 426
Width: 400
Flags: MW
HStem: 0 10<10 190 10 200> 390 10<10 190 10 10>
VStem: 0 10<10 10 10 390> 190 10<10 390 390 390>
LayerCount: 2
Fore
SplineSet
0 0 m 1
 0 400 l 1
 200 400 l 1
 200 0 l 1
 0 0 l 1
10 10 m 1
 190 10 l 1
 190 390 l 1
 10 390 l 1
 10 10 l 1
EndSplineSet
EndChar

StartChar: uniE1D0
Encoding: 57808 57808 427
Width: 400
Flags: MW
HStem: 0 10<10 190 10 200> 390 10<10 190 10 10>
VStem: 0 10<10 10 10 390> 190 10<10 390 390 390>
LayerCount: 2
Fore
SplineSet
0 0 m 1
 0 400 l 1
 200 400 l 1
 200 0 l 1
 0 0 l 1
10 10 m 1
 190 10 l 1
 190 390 l 1
 10 390 l 1
 10 10 l 1
EndSplineSet
EndChar

StartChar: uniE1D1
Encoding: 57809 57809 428
Width: 400
Flags: MW
HStem: 0 10<10 190 10 200> 390 10<10 190 10 10>
VStem: 0 10<10 10 10 390> 190 10<10 390 390 390>
LayerCount: 2
Fore
SplineSet
0 0 m 1
 0 400 l 1
 200 400 l 1
 200 0 l 1
 0 0 l 1
10 10 m 1
 190 10 l 1
 190 390 l 1
 10 390 l 1
 10 10 l 1
EndSplineSet
EndChar

StartChar: uniE1D2
Encoding: 57810 57810 429
Width: 400
Flags: MW
HStem: 0 10<10 190 10 200> 390 10<10 190 10 10>
VStem: 0 10<10 10 10 390> 190 10<10 390 390 390>
LayerCount: 2
Fore
SplineSet
0 0 m 1
 0 400 l 1
 200 400 l 1
 200 0 l 1
 0 0 l 1
10 10 m 1
 190 10 l 1
 190 390 l 1
 10 390 l 1
 10 10 l 1
EndSplineSet
EndChar

StartChar: uniE1D3
Encoding: 57811 57811 430
Width: 400
Flags: MW
HStem: 0 10<10 190 10 200> 390 10<10 190 10 10>
VStem: 0 10<10 10 10 390> 190 10<10 390 390 390>
LayerCount: 2
Fore
SplineSet
0 0 m 1
 0 400 l 1
 200 400 l 1
 200 0 l 1
 0 0 l 1
10 10 m 1
 190 10 l 1
 190 390 l 1
 10 390 l 1
 10 10 l 1
EndSplineSet
EndChar

StartChar: uniE1D4
Encoding: 57812 57812 431
Width: 400
Flags: MW
HStem: 0 10<10 190 10 200> 390 10<10 190 10 10>
VStem: 0 10<10 10 10 390> 190 10<10 390 390 390>
LayerCount: 2
Fore
SplineSet
0 0 m 1
 0 400 l 1
 200 400 l 1
 200 0 l 1
 0 0 l 1
10 10 m 1
 190 10 l 1
 190 390 l 1
 10 390 l 1
 10 10 l 1
EndSplineSet
EndChar

StartChar: uniE1D5
Encoding: 57813 57813 432
Width: 400
Flags: MW
HStem: 0 10<10 190 10 200> 390 10<10 190 10 10>
VStem: 0 10<10 10 10 390> 190 10<10 390 390 390>
LayerCount: 2
Fore
SplineSet
0 0 m 1
 0 400 l 1
 200 400 l 1
 200 0 l 1
 0 0 l 1
10 10 m 1
 190 10 l 1
 190 390 l 1
 10 390 l 1
 10 10 l 1
EndSplineSet
EndChar

StartChar: uniE1D6
Encoding: 57814 57814 433
Width: 400
Flags: MW
HStem: 0 10<10 190 10 200> 390 10<10 190 10 10>
VStem: 0 10<10 10 10 390> 190 10<10 390 390 390>
LayerCount: 2
Fore
SplineSet
0 0 m 1
 0 400 l 1
 200 400 l 1
 200 0 l 1
 0 0 l 1
10 10 m 1
 190 10 l 1
 190 390 l 1
 10 390 l 1
 10 10 l 1
EndSplineSet
EndChar

StartChar: uniE1D7
Encoding: 57815 57815 434
Width: 400
Flags: MW
HStem: 0 10<10 190 10 200> 390 10<10 190 10 10>
VStem: 0 10<10 10 10 390> 190 10<10 390 390 390>
LayerCount: 2
Fore
SplineSet
0 0 m 1
 0 400 l 1
 200 400 l 1
 200 0 l 1
 0 0 l 1
10 10 m 1
 190 10 l 1
 190 390 l 1
 10 390 l 1
 10 10 l 1
EndSplineSet
EndChar

StartChar: uniE1D8
Encoding: 57816 57816 435
Width: 400
Flags: MW
HStem: 0 10<10 190 10 200> 390 10<10 190 10 10>
VStem: 0 10<10 10 10 390> 190 10<10 390 390 390>
LayerCount: 2
Fore
SplineSet
0 0 m 1
 0 400 l 1
 200 400 l 1
 200 0 l 1
 0 0 l 1
10 10 m 1
 190 10 l 1
 190 390 l 1
 10 390 l 1
 10 10 l 1
EndSplineSet
EndChar

StartChar: uniE1D9
Encoding: 57817 57817 436
Width: 400
Flags: MW
HStem: 0 10<10 190 10 200> 390 10<10 190 10 10>
VStem: 0 10<10 10 10 390> 190 10<10 390 390 390>
LayerCount: 2
Fore
SplineSet
0 0 m 1
 0 400 l 1
 200 400 l 1
 200 0 l 1
 0 0 l 1
10 10 m 1
 190 10 l 1
 190 390 l 1
 10 390 l 1
 10 10 l 1
EndSplineSet
EndChar

StartChar: uniE1DA
Encoding: 57818 57818 437
Width: 400
Flags: MW
HStem: 0 10<10 190 10 200> 390 10<10 190 10 10>
VStem: 0 10<10 10 10 390> 190 10<10 390 390 390>
LayerCount: 2
Fore
SplineSet
0 0 m 1
 0 400 l 1
 200 400 l 1
 200 0 l 1
 0 0 l 1
10 10 m 1
 190 10 l 1
 190 390 l 1
 10 390 l 1
 10 10 l 1
EndSplineSet
EndChar

StartChar: uniE1DB
Encoding: 57819 57819 438
Width: 400
Flags: MW
HStem: 0 10<10 190 10 200> 390 10<10 190 10 10>
VStem: 0 10<10 10 10 390> 190 10<10 390 390 390>
LayerCount: 2
Fore
SplineSet
0 0 m 1
 0 400 l 1
 200 400 l 1
 200 0 l 1
 0 0 l 1
10 10 m 1
 190 10 l 1
 190 390 l 1
 10 390 l 1
 10 10 l 1
EndSplineSet
EndChar

StartChar: uniE1DC
Encoding: 57820 57820 439
Width: 400
Flags: MW
HStem: 0 10<10 190 10 200> 390 10<10 190 10 10>
VStem: 0 10<10 10 10 390> 190 10<10 390 390 390>
LayerCount: 2
Fore
SplineSet
0 0 m 1
 0 400 l 1
 200 400 l 1
 200 0 l 1
 0 0 l 1
10 10 m 1
 190 10 l 1
 190 390 l 1
 10 390 l 1
 10 10 l 1
EndSplineSet
EndChar

StartChar: uniE1DD
Encoding: 57821 57821 440
Width: 400
Flags: MW
HStem: 0 10<10 190 10 200> 390 10<10 190 10 10>
VStem: 0 10<10 10 10 390> 190 10<10 390 390 390>
LayerCount: 2
Fore
SplineSet
0 0 m 1
 0 400 l 1
 200 400 l 1
 200 0 l 1
 0 0 l 1
10 10 m 1
 190 10 l 1
 190 390 l 1
 10 390 l 1
 10 10 l 1
EndSplineSet
EndChar

StartChar: uniE1DE
Encoding: 57822 57822 441
Width: 400
Flags: MW
HStem: 0 10<10 190 10 200> 390 10<10 190 10 10>
VStem: 0 10<10 10 10 390> 190 10<10 390 390 390>
LayerCount: 2
Fore
SplineSet
0 0 m 1
 0 400 l 1
 200 400 l 1
 200 0 l 1
 0 0 l 1
10 10 m 1
 190 10 l 1
 190 390 l 1
 10 390 l 1
 10 10 l 1
EndSplineSet
EndChar

StartChar: uniE1DF
Encoding: 57823 57823 442
Width: 400
Flags: MW
HStem: 0 10<10 190 10 200> 390 10<10 190 10 10>
VStem: 0 10<10 10 10 390> 190 10<10 390 390 390>
LayerCount: 2
Fore
SplineSet
0 0 m 1
 0 400 l 1
 200 400 l 1
 200 0 l 1
 0 0 l 1
10 10 m 1
 190 10 l 1
 190 390 l 1
 10 390 l 1
 10 10 l 1
EndSplineSet
EndChar

StartChar: uniE1E0
Encoding: 57824 57824 443
Width: 400
Flags: MW
HStem: 0 10<10 190 10 200> 390 10<10 190 10 10>
VStem: 0 10<10 10 10 390> 190 10<10 390 390 390>
LayerCount: 2
Fore
SplineSet
0 0 m 1
 0 400 l 1
 200 400 l 1
 200 0 l 1
 0 0 l 1
10 10 m 1
 190 10 l 1
 190 390 l 1
 10 390 l 1
 10 10 l 1
EndSplineSet
EndChar

StartChar: uniE1E1
Encoding: 57825 57825 444
Width: 400
Flags: MW
HStem: 0 10<10 190 10 200> 390 10<10 190 10 10>
VStem: 0 10<10 10 10 390> 190 10<10 390 390 390>
LayerCount: 2
Fore
SplineSet
0 0 m 1
 0 400 l 1
 200 400 l 1
 200 0 l 1
 0 0 l 1
10 10 m 1
 190 10 l 1
 190 390 l 1
 10 390 l 1
 10 10 l 1
EndSplineSet
EndChar

